SplineFontDB: 3.0
FontName: Merriweather-Light
FullName: Merriweather Light
FamilyName: Merriweather
Weight: Extra-Light
Copyright: Copyright (c) 2010 by Eben Sorkin (eben@eyebytes.com),with Reserved Font Name Merriweather.This Font Software is licensed under the SIL Open Font License, Version 1.1.This license is copied below, and is also available with a FAQ at:http://scripts.sil.org/OFL
Version: 1.286
ItalicAngle: 0
UnderlinePosition: -72
UnderlineWidth: 120
Ascent: 1638
Descent: 410
LayerCount: 2
Layer: 0 1 "Back"  1
Layer: 1 1 "Fore"  0
XUID: [1021 631 1661839179 4364458]
FSType: 0
OS2Version: 3
OS2_WeightWidthSlopeOnly: 0
OS2_UseTypoMetrics: 1
CreationTime: 1303528080
ModificationTime: 1303517283
PfmFamily: 17
TTFWeight: 200
TTFWidth: 5
LineGap: 0
VLineGap: 0
Panose: 2 6 5 3 5 4 6 3 7 4
OS2TypoAscent: 382
OS2TypoAOffset: 1
OS2TypoDescent: -130
OS2TypoDOffset: 1
OS2TypoLinegap: 0
OS2WinAscent: -51
OS2WinAOffset: 1
OS2WinDescent: -6
OS2WinDOffset: 1
HheadAscent: -51
HheadAOffset: 1
HheadDescent: 6
HheadDOffset: 1
OS2SubXSize: 1434
OS2SubYSize: 1331
OS2SubXOff: 0
OS2SubYOff: 287
OS2SupXSize: 1434
OS2SupYSize: 1331
OS2SupXOff: 0
OS2SupYOff: 977
OS2StrikeYSize: 85
OS2StrikeYPos: 520
OS2FamilyClass: 512
OS2Vendor: 'eye '
OS2CodePages: 00000001.00000000
OS2UnicodeRanges: 800000a7.50000000.00000000.00000000
Lookup: 4 0 0 "'dlig' Discretionary Ligatures in Latin lookup 0"  {"'dlig' Discretionary Ligatures in Latin lookup 0 subtable"  } ['dlig' ('latn' <'dflt' > ) ]
Lookup: 258 0 0 "'kern' Horizontal Kerning in Latin lookup 0"  {"'kern' Horizontal Kerning in Latin lookup 0 subtable"  } ['kern' ('latn' <'dflt' > ) ]
DEI: 91125
TtTable: prep
PUSHW_1
 511
SCANCTRL
PUSHB_1
 4
SCANTYPE
EndTTInstrs
ShortTable: maxp 16
  1
  0
  275
  133
  5
  0
  0
  1
  0
  0
  0
  0
  0
  0
  0
  0
EndShort

StartChar: .notdef
Encoding: 65536 -1 0
Width: 1259
Flags: W
LayerCount: 2
Fore
SplineSet
74 1330 m 1,0,-1
 1187 1330 l 1,1,-1
 1187 210 l 1,2,-1
 74 210 l 1,3,-1
 74 1330 l 1,0,-1
632 670 m 1,4,-1
 925 367 l 1,5,-1
 1038 480 l 1,6,-1
 734 773 l 1,7,-1
 1038 1057 l 1,8,-1
 919 1173 l 1,9,-1
 635 872 l 1,10,-1
 346 1174 l 1,11,-1
 232 1058 l 1,12,-1
 532 770 l 1,13,-1
 233 502 l 1,14,-1
 352 367 l 1,15,-1
 632 670 l 1,4,-1
EndSplineSet
EndChar

StartChar: exclam
Encoding: 33 33 4
Width: 706
GlyphClass: 2
Flags: W
LayerCount: 2
Fore
SplineSet
245 1780 m 1,0,-1
 434 1780 l 1,1,-1
 381 454 l 1,2,-1
 290 454 l 1,3,-1
 245 1780 l 1,0,-1
239 73 m 0,4,5
 239 96 239 96 249.5 116.5 c 128,-1,6
 260 137 260 137 276.5 152 c 128,-1,7
 293 167 293 167 314 176 c 128,-1,8
 335 185 335 185 356 185 c 0,9,10
 408 185 408 185 431.5 156.5 c 128,-1,11
 455 128 455 128 455 89 c 0,12,13
 455 64 455 64 445 43.5 c 128,-1,14
 435 23 435 23 418.5 8.5 c 128,-1,15
 402 -6 402 -6 381 -14 c 128,-1,16
 360 -22 360 -22 338 -22 c 0,17,18
 319 -22 319 -22 301 -15.5 c 128,-1,19
 283 -9 283 -9 269.5 3.5 c 128,-1,20
 256 16 256 16 247.5 33.5 c 128,-1,21
 239 51 239 51 239 73 c 0,4,5
EndSplineSet
EndChar

StartChar: quotedbl
Encoding: 34 34 5
Width: 1140
GlyphClass: 2
Flags: W
LayerCount: 2
Fore
SplineSet
675 1782 m 1,0,-1
 846 1782 l 1,1,-1
 807 1036 l 1,2,-1
 714 1036 l 1,3,-1
 675 1782 l 1,0,-1
295 1782 m 1,4,-1
 466 1782 l 1,5,-1
 427 1036 l 1,6,-1
 334 1036 l 1,7,-1
 295 1782 l 1,4,-1
EndSplineSet
EndChar

StartChar: numbersign
Encoding: 35 35 6
Width: 1427
GlyphClass: 2
Flags: W
LayerCount: 2
Fore
SplineSet
370 365 m 1,0,-1
 149 365 l 1,1,-1
 149 462 l 1,2,-1
 374 462 l 1,3,-1
 407 928 l 1,4,-1
 171 928 l 1,5,-1
 171 1025 l 1,6,-1
 413 1025 l 1,7,-1
 440 1355 l 1,8,-1
 567 1355 l 1,9,-1
 542 1025 l 1,10,-1
 933 1025 l 1,11,-1
 960 1355 l 1,12,-1
 1086 1355 l 1,13,-1
 1061 1025 l 1,14,-1
 1280 1025 l 1,15,-1
 1280 928 l 1,16,-1
 1055 928 l 1,17,-1
 1021 462 l 1,18,-1
 1245 462 l 1,19,-1
 1246 365 l 1,20,-1
 1017 365 l 1,21,-1
 987 0 l 1,22,-1
 866 0 l 1,23,-1
 890 365 l 1,24,-1
 498 365 l 1,25,-1
 466 0 l 1,26,-1
 342 0 l 1,27,-1
 370 365 l 1,0,-1
894 462 m 1,28,-1
 927 928 l 1,29,-1
 536 928 l 1,30,-1
 502 462 l 1,31,-1
 894 462 l 1,28,-1
EndSplineSet
EndChar

StartChar: dollar
Encoding: 36 36 7
Width: 1164
GlyphClass: 2
Flags: W
LayerCount: 2
Fore
SplineSet
94 362 m 1,0,-1
 165 362 l 1,1,-1
 214 161 l 1,2,3
 249 127 249 127 292.5 107 c 128,-1,4
 336 87 336 87 382.5 76.5 c 128,-1,5
 429 66 429 66 477 62.5 c 128,-1,6
 525 59 525 59 569 59 c 0,7,8
 630 59 630 59 694 75 c 128,-1,9
 758 91 758 91 809.5 126.5 c 128,-1,10
 861 162 861 162 893.5 218 c 128,-1,11
 926 274 926 274 926 355 c 0,12,13
 926 426 926 426 891 480.5 c 128,-1,14
 856 535 856 535 799 579.5 c 128,-1,15
 742 624 742 624 669.5 661.5 c 128,-1,16
 597 699 597 699 520.5 736.5 c 128,-1,17
 444 774 444 774 371.5 814.5 c 128,-1,18
 299 855 299 855 242 904.5 c 128,-1,19
 185 954 185 954 150 1017 c 128,-1,20
 115 1080 115 1080 115 1162 c 0,21,22
 115 1229 115 1229 135.5 1283 c 128,-1,23
 156 1337 156 1337 191 1378.5 c 128,-1,24
 226 1420 226 1420 272 1450.5 c 128,-1,25
 318 1481 318 1481 369.5 1501.5 c 128,-1,26
 421 1522 421 1522 473.5 1532.5 c 128,-1,27
 526 1543 526 1543 574 1546 c 1,28,-1
 581 1731 l 1,29,-1
 700 1731 l 1,30,-1
 694 1543 l 1,31,32
 808 1535 808 1535 881 1512 c 128,-1,33
 954 1489 954 1489 992 1467 c 1,34,-1
 992 1200 l 1,35,-1
 923 1200 l 1,36,-1
 865 1400 l 1,37,38
 846 1418 846 1418 816.5 1430.5 c 128,-1,39
 787 1443 787 1443 751 1451.5 c 128,-1,40
 715 1460 715 1460 674 1463.5 c 128,-1,41
 633 1467 633 1467 592 1467 c 0,42,43
 542 1467 542 1467 483 1453 c 128,-1,44
 424 1439 424 1439 373 1407 c 128,-1,45
 322 1375 322 1375 287.5 1321 c 128,-1,46
 253 1267 253 1267 253 1188 c 0,47,48
 253 1120 253 1120 288 1067.5 c 128,-1,49
 323 1015 323 1015 380 972.5 c 128,-1,50
 437 930 437 930 510 893.5 c 128,-1,51
 583 857 583 857 659 820.5 c 128,-1,52
 735 784 735 784 808 744.5 c 128,-1,53
 881 705 881 705 938 655.5 c 128,-1,54
 995 606 995 606 1030 543 c 128,-1,55
 1065 480 1065 480 1065 398 c 0,56,57
 1065 299 1065 299 1031 224.5 c 128,-1,58
 997 150 997 150 938.5 99 c 128,-1,59
 880 48 880 48 801 19 c 128,-1,60
 722 -10 722 -10 632 -19 c 1,61,-1
 625 -231 l 1,62,-1
 505 -231 l 1,63,-1
 512 -22 l 1,64,65
 442 -20 442 -20 375.5 -11 c 128,-1,66
 309 -2 309 -2 253 10.5 c 128,-1,67
 197 23 197 23 155.5 37 c 128,-1,68
 114 51 114 51 94 63 c 1,69,-1
 94 362 l 1,0,-1
EndSplineSet
EndChar

StartChar: percent
Encoding: 37 37 8
Width: 2111
GlyphClass: 2
Flags: W
LayerCount: 2
Fore
SplineSet
1296 1601 m 1,0,-1
 1414 1601 l 1,1,-1
 830 0 l 1,2,-1
 709 0 l 1,3,-1
 1296 1601 l 1,0,-1
517 692 m 0,4,5
 446 690 446 690 390 719 c 128,-1,6
 334 748 334 748 295 797.5 c 128,-1,7
 256 847 256 847 235 913.5 c 128,-1,8
 214 980 214 980 214 1053 c 0,9,10
 214 1142 214 1142 241 1211 c 128,-1,11
 268 1280 268 1280 314 1327.5 c 128,-1,12
 360 1375 360 1375 420 1400 c 128,-1,13
 480 1425 480 1425 545 1427 c 0,14,15
 624 1430 624 1430 681 1401.5 c 128,-1,16
 738 1373 738 1373 775 1323 c 128,-1,17
 812 1273 812 1273 829.5 1205.5 c 128,-1,18
 847 1138 847 1138 847 1062 c 0,19,20
 847 973 847 973 820 904.5 c 128,-1,21
 793 836 793 836 747 789.5 c 128,-1,22
 701 743 701 743 641.5 718.5 c 128,-1,23
 582 694 582 694 517 692 c 0,4,5
526 773 m 0,24,25
 620 773 620 773 674 847 c 128,-1,26
 728 921 728 921 728 1055 c 0,27,28
 728 1121 728 1121 715.5 1175 c 128,-1,29
 703 1229 703 1229 679 1267.5 c 128,-1,30
 655 1306 655 1306 619 1327 c 128,-1,31
 583 1348 583 1348 536 1348 c 256,32,33
 489 1348 489 1348 451.5 1328 c 128,-1,34
 414 1308 414 1308 388 1270.5 c 128,-1,35
 362 1233 362 1233 348 1180 c 128,-1,36
 334 1127 334 1127 334 1061 c 0,37,38
 334 998 334 998 346.5 945.5 c 128,-1,39
 359 893 359 893 383 854.5 c 128,-1,40
 407 816 407 816 443 794.5 c 128,-1,41
 479 773 479 773 526 773 c 0,24,25
1274 525 m 0,42,43
 1274 614 1274 614 1301 683 c 128,-1,44
 1328 752 1328 752 1374 799.5 c 128,-1,45
 1420 847 1420 847 1480 872 c 128,-1,46
 1540 897 1540 897 1605 899 c 0,47,48
 1684 902 1684 902 1741 873.5 c 128,-1,49
 1798 845 1798 845 1835 795 c 128,-1,50
 1872 745 1872 745 1889.5 677.5 c 128,-1,51
 1907 610 1907 610 1907 534 c 0,52,53
 1907 445 1907 445 1880 376.5 c 128,-1,54
 1853 308 1853 308 1807 261.5 c 128,-1,55
 1761 215 1761 215 1701.5 190.5 c 128,-1,56
 1642 166 1642 166 1577 164 c 0,57,58
 1506 162 1506 162 1450 191 c 128,-1,59
 1394 220 1394 220 1355 269.5 c 128,-1,60
 1316 319 1316 319 1295 385.5 c 128,-1,61
 1274 452 1274 452 1274 525 c 0,42,43
1394 533 m 0,62,63
 1394 470 1394 470 1406.5 417.5 c 128,-1,64
 1419 365 1419 365 1443 326.5 c 128,-1,65
 1467 288 1467 288 1503 266.5 c 128,-1,66
 1539 245 1539 245 1586 245 c 0,67,68
 1632 245 1632 245 1669 264 c 128,-1,69
 1706 283 1706 283 1732.5 319 c 128,-1,70
 1759 355 1759 355 1773.5 407.5 c 128,-1,71
 1788 460 1788 460 1788 527 c 0,72,73
 1788 593 1788 593 1775.5 647 c 128,-1,74
 1763 701 1763 701 1739 739.5 c 128,-1,75
 1715 778 1715 778 1679 799 c 128,-1,76
 1643 820 1643 820 1596 820 c 256,77,78
 1549 820 1549 820 1511.5 800 c 128,-1,79
 1474 780 1474 780 1448 742.5 c 128,-1,80
 1422 705 1422 705 1408 652 c 128,-1,81
 1394 599 1394 599 1394 533 c 0,62,63
EndSplineSet
EndChar

StartChar: ampersand
Encoding: 38 38 9
Width: 1601
GlyphClass: 2
Flags: W
LayerCount: 2
Fore
SplineSet
192 348 m 0,0,1
 192 423 192 423 219 484 c 128,-1,2
 246 545 246 545 290.5 595 c 128,-1,3
 335 645 335 645 391 685 c 128,-1,4
 447 725 447 725 505 758 c 1,5,6
 471 801 471 801 438 848.5 c 128,-1,7
 405 896 405 896 378.5 947 c 128,-1,8
 352 998 352 998 335.5 1053.5 c 128,-1,9
 319 1109 319 1109 319 1170 c 0,10,11
 319 1262 319 1262 348.5 1333 c 128,-1,12
 378 1404 378 1404 429.5 1452.5 c 128,-1,13
 481 1501 481 1501 550 1526 c 128,-1,14
 619 1551 619 1551 698 1551 c 0,15,16
 783 1551 783 1551 846.5 1525.5 c 128,-1,17
 910 1500 910 1500 951 1456.5 c 128,-1,18
 992 1413 992 1413 1012.5 1355.5 c 128,-1,19
 1033 1298 1033 1298 1033 1234 c 0,20,21
 1033 1155 1033 1155 1002.5 1085.5 c 128,-1,22
 972 1016 972 1016 922.5 956 c 128,-1,23
 873 896 873 896 809 846 c 128,-1,24
 745 796 745 796 679 756 c 1,25,26
 704 726 704 726 738.5 687 c 128,-1,27
 773 648 773 648 813 604 c 128,-1,28
 853 560 853 560 895.5 514.5 c 128,-1,29
 938 469 938 469 978 426.5 c 128,-1,30
 1018 384 1018 384 1054 348 c 128,-1,31
 1090 312 1090 312 1116 287 c 2,32,-1
 1143 262 l 1,33,34
 1178 321 1178 321 1190 386 c 128,-1,35
 1202 451 1202 451 1202 515 c 0,36,37
 1202 564 1202 564 1197 602 c 128,-1,38
 1192 640 1192 640 1185 667.5 c 128,-1,39
 1178 695 1178 695 1171 712.5 c 128,-1,40
 1164 730 1164 730 1160 738 c 1,41,-1
 1306 738 l 1,42,43
 1316 706 1316 706 1326.5 658.5 c 128,-1,44
 1337 611 1337 611 1335 542 c 1,45,46
 1330 434 1330 434 1303 350 c 128,-1,47
 1276 266 1276 266 1221 194 c 1,48,49
 1267 156 1267 156 1305.5 132.5 c 128,-1,50
 1344 109 1344 109 1377 96.5 c 128,-1,51
 1410 84 1410 84 1440 81 c 128,-1,52
 1470 78 1470 78 1500 81 c 1,53,-1
 1500 13 l 1,54,55
 1485 4 1485 4 1462 -1 c 128,-1,56
 1439 -6 1439 -6 1412.5 -7.5 c 128,-1,57
 1386 -9 1386 -9 1358 -7 c 128,-1,58
 1330 -5 1330 -5 1304 0 c 1,59,60
 1265 5 1265 5 1221 32 c 128,-1,61
 1177 59 1177 59 1128 100 c 1,62,63
 1090 68 1090 68 1042 43.5 c 128,-1,64
 994 19 994 19 941 2 c 128,-1,65
 888 -15 888 -15 833 -23.5 c 128,-1,66
 778 -32 778 -32 727 -32 c 256,67,68
 676 -32 676 -32 616.5 -25 c 128,-1,69
 557 -18 557 -18 497.5 -1 c 128,-1,70
 438 16 438 16 383 44.5 c 128,-1,71
 328 73 328 73 285.5 115 c 128,-1,72
 243 157 243 157 217.5 214.5 c 128,-1,73
 192 272 192 272 192 348 c 0,0,1
623 825 m 1,74,75
 684 855 684 855 736.5 894 c 128,-1,76
 789 933 789 933 827 981 c 128,-1,77
 865 1029 865 1029 886.5 1086.5 c 128,-1,78
 908 1144 908 1144 908 1211 c 0,79,80
 908 1252 908 1252 898 1298 c 128,-1,81
 888 1344 888 1344 862.5 1382.5 c 128,-1,82
 837 1421 837 1421 792.5 1446.5 c 128,-1,83
 748 1472 748 1472 680 1472 c 0,84,85
 641 1472 641 1472 599.5 1458 c 128,-1,86
 558 1444 558 1444 524 1413.5 c 128,-1,87
 490 1383 490 1383 468.5 1335.5 c 128,-1,88
 447 1288 447 1288 447 1222 c 0,89,90
 447 1148 447 1148 465 1088 c 128,-1,91
 483 1028 483 1028 509.5 979 c 128,-1,92
 536 930 536 930 566.5 892 c 128,-1,93
 597 854 597 854 623 825 c 1,74,75
329 367 m 0,94,95
 329 296 329 296 361 239 c 128,-1,96
 393 182 393 182 448.5 142 c 128,-1,97
 504 102 504 102 579.5 81 c 128,-1,98
 655 60 655 60 742 60 c 0,99,100
 836 60 836 60 917.5 83.5 c 128,-1,101
 999 107 999 107 1055 163 c 1,102,-1
 1055 164 l 1,103,104
 1023 192 1023 192 982 232.5 c 128,-1,105
 941 273 941 273 895 319.5 c 128,-1,106
 849 366 849 366 801.5 417 c 128,-1,107
 754 468 754 468 709 517.5 c 128,-1,108
 664 567 664 567 624.5 612.5 c 128,-1,109
 585 658 585 658 555 695 c 1,110,111
 439 629 439 629 384 550 c 128,-1,112
 329 471 329 471 329 367 c 0,94,95
EndSplineSet
EndChar

StartChar: quotesingle
Encoding: 39 39 10
Width: 786
GlyphClass: 2
Flags: W
LayerCount: 2
Fore
SplineSet
305 1782 m 1,0,-1
 476 1782 l 1,1,-1
 437 1036 l 1,2,-1
 344 1036 l 1,3,-1
 305 1782 l 1,0,-1
EndSplineSet
EndChar

StartChar: parenleft
Encoding: 40 40 11
Width: 889
GlyphClass: 2
Flags: W
LayerCount: 2
Fore
SplineSet
624 -310 m 1,0,1
 601 -296 601 -296 557 -261 c 128,-1,2
 513 -226 513 -226 460.5 -167.5 c 128,-1,3
 408 -109 408 -109 353 -26 c 128,-1,4
 298 57 298 57 253.5 166 c 128,-1,5
 209 275 209 275 180.5 412 c 128,-1,6
 152 549 152 549 152 715 c 0,7,8
 152 860 152 860 180.5 986.5 c 128,-1,9
 209 1113 209 1113 253.5 1219 c 128,-1,10
 298 1325 298 1325 353 1410 c 128,-1,11
 408 1495 408 1495 460.5 1557 c 128,-1,12
 513 1619 513 1619 557 1657 c 128,-1,13
 601 1695 601 1695 624 1708 c 1,14,-1
 692 1668 l 1,15,16
 670 1654 670 1654 633 1619 c 128,-1,17
 596 1584 596 1584 553 1528.5 c 128,-1,18
 510 1473 510 1473 465 1397 c 128,-1,19
 420 1321 420 1321 382.5 1225 c 128,-1,20
 345 1129 345 1129 320 1013.5 c 128,-1,21
 295 898 295 898 291 764 c 0,22,23
 286 608 286 608 308 476 c 128,-1,24
 330 344 330 344 367.5 236 c 128,-1,25
 405 128 405 128 452.5 43.5 c 128,-1,26
 500 -41 500 -41 547.5 -103 c 128,-1,27
 595 -165 595 -165 636.5 -204.5 c 128,-1,28
 678 -244 678 -244 703 -262 c 1,29,-1
 624 -310 l 1,30,-1
 624 -310 l 1,0,1
EndSplineSet
EndChar

StartChar: parenright
Encoding: 41 41 12
Width: 889
GlyphClass: 2
Flags: W
LayerCount: 2
Fore
SplineSet
195 -269 m 1,0,1
 219 -255 219 -255 256.5 -220 c 128,-1,2
 294 -185 294 -185 337.5 -129.5 c 128,-1,3
 381 -74 381 -74 425.5 2 c 128,-1,4
 470 78 470 78 507 173.5 c 128,-1,5
 544 269 544 269 569 384 c 128,-1,6
 594 499 594 499 598 634 c 0,7,8
 603 784 603 784 582 913 c 128,-1,9
 561 1042 561 1042 525 1150 c 128,-1,10
 489 1258 489 1258 441.5 1344.5 c 128,-1,11
 394 1431 394 1431 347 1495 c 128,-1,12
 300 1559 300 1559 257 1600.5 c 128,-1,13
 214 1642 214 1642 186 1660 c 1,14,-1
 265 1708 l 1,15,16
 288 1694 288 1694 332 1659 c 128,-1,17
 376 1624 376 1624 428.5 1565.5 c 128,-1,18
 481 1507 481 1507 536 1424 c 128,-1,19
 591 1341 591 1341 635.5 1232 c 128,-1,20
 680 1123 680 1123 708.5 986 c 128,-1,21
 737 849 737 849 737 683 c 0,22,23
 737 538 737 538 708.5 411.5 c 128,-1,24
 680 285 680 285 635.5 179 c 128,-1,25
 591 73 591 73 536 -12 c 128,-1,26
 481 -97 481 -97 428.5 -159 c 128,-1,27
 376 -221 376 -221 332 -259 c 128,-1,28
 288 -297 288 -297 265 -310 c 1,29,-1
 195 -269 l 1,30,-1
 195 -269 l 1,0,1
EndSplineSet
EndChar

StartChar: asterisk
Encoding: 42 42 13
Width: 1256
GlyphClass: 2
Flags: W
LayerCount: 2
Fore
SplineSet
581 1148 m 1,0,-1
 597 1248 l 1,1,-1
 533 1188 l 1,2,-1
 219 945 l 1,3,-1
 144 1051 l 1,4,-1
 496 1247 l 1,5,-1
 578 1282 l 1,6,-1
 495 1318 l 1,7,-1
 143 1501 l 1,8,-1
 216 1609 l 1,9,-1
 528 1378 l 1,10,-1
 597 1317 l 1,11,-1
 581 1425 l 1,12,-1
 553 1786 l 1,13,-1
 690 1785 l 1,14,-1
 661 1425 l 1,15,-1
 641 1317 l 1,16,-1
 727 1389 l 1,17,-1
 1025 1607 l 1,18,-1
 1109 1501 l 1,19,-1
 755 1323 l 1,20,-1
 660 1282 l 1,21,-1
 753 1243 l 1,22,-1
 1110 1050 l 1,23,-1
 1025 947 l 1,24,-1
 716 1185 l 1,25,-1
 642 1247 l 1,26,-1
 659 1148 l 1,27,-1
 690 768 l 1,28,-1
 553 768 l 1,29,-1
 581 1148 l 1,0,-1
EndSplineSet
EndChar

StartChar: plus
Encoding: 43 43 14
Width: 1233
GlyphClass: 2
Flags: W
LayerCount: 2
Fore
SplineSet
552 579 m 1,0,-1
 558 739 l 1,1,-1
 401 731 l 1,2,-1
 160 731 l 1,3,-1
 160 862 l 1,4,-1
 401 862 l 1,5,-1
 558 851 l 1,6,-1
 552 1012 l 1,7,-1
 552 1260 l 1,8,-1
 679 1260 l 1,9,-1
 679 1012 l 1,10,-1
 672 851 l 1,11,-1
 811 862 l 1,12,-1
 1073 862 l 1,13,-1
 1073 731 l 1,14,-1
 811 731 l 1,15,-1
 672 739 l 1,16,-1
 679 579 l 1,17,-1
 679 321 l 1,18,-1
 552 321 l 1,19,-1
 552 579 l 1,0,-1
EndSplineSet
EndChar

StartChar: comma
Encoding: 44 44 15
Width: 711
GlyphClass: 2
Flags: W
LayerCount: 2
Fore
SplineSet
185 69 m 1,0,-1
 271 182 l 1,1,2
 326 170 326 170 365 137.5 c 128,-1,3
 404 105 404 105 429 63 c 128,-1,4
 454 21 454 21 466 -24 c 128,-1,5
 478 -69 478 -69 479 -106 c 0,6,7
 480 -181 480 -181 454.5 -250 c 128,-1,8
 429 -319 429 -319 387.5 -377 c 128,-1,9
 346 -435 346 -435 294.5 -478.5 c 128,-1,10
 243 -522 243 -522 191 -546 c 1,11,-1
 150 -508 l 1,12,-1
 150 -474 l 1,13,14
 181 -462 181 -462 214.5 -430 c 128,-1,15
 248 -398 248 -398 275.5 -355 c 128,-1,16
 303 -312 303 -312 321 -262 c 128,-1,17
 339 -212 339 -212 339 -164 c 0,18,19
 339 -125 339 -125 326 -90 c 128,-1,20
 313 -55 313 -55 291 -28.5 c 128,-1,21
 269 -2 269 -2 241.5 15 c 128,-1,22
 214 32 214 32 185 35 c 1,23,-1
 185 69 l 1,0,-1
EndSplineSet
EndChar

StartChar: hyphen
Encoding: 45 45 16
Width: 1205
GlyphClass: 2
Flags: W
LayerCount: 2
Fore
SplineSet
160 863 m 1,0,-1
 1045 863 l 1,1,-1
 1045 752 l 1,2,-1
 160 752 l 1,3,-1
 160 863 l 1,0,-1
EndSplineSet
EndChar

StartChar: period
Encoding: 46 46 17
Width: 706
GlyphClass: 2
Flags: W
LayerCount: 2
Fore
SplineSet
242 73 m 0,0,1
 242 96 242 96 252.5 116.5 c 128,-1,2
 263 137 263 137 279.5 152 c 128,-1,3
 296 167 296 167 317 176 c 128,-1,4
 338 185 338 185 359 185 c 0,5,6
 411 185 411 185 434.5 156.5 c 128,-1,7
 458 128 458 128 458 89 c 0,8,9
 458 64 458 64 448 43.5 c 128,-1,10
 438 23 438 23 421.5 8.5 c 128,-1,11
 405 -6 405 -6 384 -14 c 128,-1,12
 363 -22 363 -22 341 -22 c 0,13,14
 322 -22 322 -22 304 -15.5 c 128,-1,15
 286 -9 286 -9 272.5 3.5 c 128,-1,16
 259 16 259 16 250.5 33.5 c 128,-1,17
 242 51 242 51 242 73 c 0,0,1
EndSplineSet
EndChar

StartChar: slash
Encoding: 47 47 18
Width: 715
GlyphClass: 2
Flags: W
LayerCount: 2
Fore
SplineSet
601 1599 m 1,0,-1
 736 1599 l 1,1,-1
 115 -363 l 1,2,-1
 -20 -363 l 1,3,-1
 601 1599 l 1,0,-1
EndSplineSet
EndChar

StartChar: zero
Encoding: 48 48 19
Width: 1368
GlyphClass: 2
Flags: W
LayerCount: 2
Fore
SplineSet
151 632 m 0,0,1
 153 777 153 777 198.5 892 c 128,-1,2
 244 1007 244 1007 320 1086.5 c 128,-1,3
 396 1166 396 1166 494.5 1208.5 c 128,-1,4
 593 1251 593 1251 701 1252 c 0,5,6
 847 1253 847 1253 946 1204.5 c 128,-1,7
 1045 1156 1045 1156 1105.5 1071 c 128,-1,8
 1166 986 1166 986 1191.5 870.5 c 128,-1,9
 1217 755 1217 755 1216 623 c 0,10,11
 1215 479 1215 479 1172.5 359 c 128,-1,12
 1130 239 1130 239 1057 153.5 c 128,-1,13
 984 68 984 68 886 20 c 128,-1,14
 788 -28 788 -28 676 -28 c 0,15,16
 581 -28 581 -28 504.5 -3 c 128,-1,17
 428 22 428 22 369.5 66.5 c 128,-1,18
 311 111 311 111 269 173 c 128,-1,19
 227 235 227 235 200.5 308.5 c 128,-1,20
 174 382 174 382 162 464 c 128,-1,21
 150 546 150 546 151 632 c 0,0,1
677 56 m 0,22,23
 779 54 779 54 852 93 c 128,-1,24
 925 132 925 132 972 205.5 c 128,-1,25
 1019 279 1019 279 1041 383 c 128,-1,26
 1063 487 1063 487 1063 615 c 0,27,28
 1063 732 1063 732 1042.5 832 c 128,-1,29
 1022 932 1022 932 978 1006.5 c 128,-1,30
 934 1081 934 1081 865 1123.5 c 128,-1,31
 796 1166 796 1166 699 1168 c 1,32,33
 597 1169 597 1169 522.5 1133 c 128,-1,34
 448 1097 448 1097 399.5 1028 c 128,-1,35
 351 959 351 959 328 860 c 128,-1,36
 305 761 305 761 305 638 c 0,37,38
 305 525 305 525 326.5 421 c 128,-1,39
 348 317 348 317 393.5 236.5 c 128,-1,40
 439 156 439 156 509.5 107 c 128,-1,41
 580 58 580 58 677 56 c 0,22,23
EndSplineSet
EndChar

StartChar: one
Encoding: 49 49 20
Width: 902
GlyphClass: 2
Flags: W
LayerCount: 2
Fore
SplineSet
102 68 m 1,0,-1
 413 90 l 1,1,-1
 413 1086 l 1,2,3
 374 1072 374 1072 340 1061 c 128,-1,4
 306 1050 306 1050 273 1040 c 128,-1,5
 240 1030 240 1030 206.5 1020.5 c 128,-1,6
 173 1011 173 1011 135 1001 c 1,7,-1
 120 1078 l 1,8,9
 150 1087 150 1087 187.5 1101.5 c 128,-1,10
 225 1116 225 1116 264 1133.5 c 128,-1,11
 303 1151 303 1151 341.5 1169.5 c 128,-1,12
 380 1188 380 1188 413 1206 c 128,-1,13
 446 1224 446 1224 470.5 1239 c 128,-1,14
 495 1254 495 1254 507 1264 c 1,15,-1
 559 1249 l 1,16,-1
 557 89 l 1,17,-1
 861 68 l 1,18,-1
 861 0 l 1,19,-1
 102 0 l 1,20,-1
 102 68 l 1,0,-1
EndSplineSet
EndChar

StartChar: two
Encoding: 50 50 21
Width: 1231
GlyphClass: 2
Flags: W
LayerCount: 2
Fore
SplineSet
143 61 m 1,0,1
 232 116 232 116 317 178.5 c 128,-1,2
 402 241 402 241 477 308 c 128,-1,3
 552 375 552 375 614.5 446 c 128,-1,4
 677 517 677 517 722.5 588.5 c 128,-1,5
 768 660 768 660 792.5 731.5 c 128,-1,6
 817 803 817 803 817 873 c 0,7,8
 817 931 817 931 799 983 c 128,-1,9
 781 1035 781 1035 745 1075 c 128,-1,10
 709 1115 709 1115 656 1138.5 c 128,-1,11
 603 1162 603 1162 532 1162 c 0,12,13
 482 1162 482 1162 432.5 1148 c 128,-1,14
 383 1134 383 1134 337 1111 c 128,-1,15
 291 1088 291 1088 251 1059 c 128,-1,16
 211 1030 211 1030 181 1000 c 1,17,-1
 144 1060 l 1,18,19
 172 1096 172 1096 216.5 1132.5 c 128,-1,20
 261 1169 261 1169 317 1198 c 128,-1,21
 373 1227 373 1227 440 1245 c 128,-1,22
 507 1263 507 1263 580 1263 c 0,23,24
 681 1263 681 1263 754.5 1233.5 c 128,-1,25
 828 1204 828 1204 876.5 1155.5 c 128,-1,26
 925 1107 925 1107 948.5 1045 c 128,-1,27
 972 983 972 983 972 918 c 0,28,29
 973 806 973 806 924.5 696 c 128,-1,30
 876 586 876 586 791.5 481.5 c 128,-1,31
 707 377 707 377 591 279 c 128,-1,32
 475 181 475 181 341 93 c 1,33,-1
 958 123 l 1,34,-1
 1046 296 l 1,35,-1
 1114 275 l 1,36,-1
 1049 0 l 1,37,-1
 166 0 l 1,38,-1
 143 61 l 1,39,-1
 143 61 l 1,0,1
EndSplineSet
EndChar

StartChar: three
Encoding: 51 51 22
Width: 1085
GlyphClass: 2
Flags: W
LayerCount: 2
Fore
SplineSet
152 -234 m 1,0,1
 251 -251 251 -251 339 -243.5 c 128,-1,2
 427 -236 427 -236 500.5 -210.5 c 128,-1,3
 574 -185 574 -185 632.5 -143.5 c 128,-1,4
 691 -102 691 -102 732 -50 c 128,-1,5
 773 2 773 2 794.5 61.5 c 128,-1,6
 816 121 816 121 816 183 c 0,7,8
 816 253 816 253 794 312 c 128,-1,9
 772 371 772 371 725.5 411.5 c 128,-1,10
 679 452 679 452 606.5 471.5 c 128,-1,11
 534 491 534 491 432 483 c 1,12,-1
 288 449 l 1,13,-1
 288 553 l 1,14,15
 390 570 390 570 471.5 605 c 128,-1,16
 553 640 553 640 610.5 687.5 c 128,-1,17
 668 735 668 735 699 790.5 c 128,-1,18
 730 846 730 846 731 903 c 0,19,20
 732 970 732 970 712 1019 c 128,-1,21
 692 1068 692 1068 656.5 1100.5 c 128,-1,22
 621 1133 621 1133 572 1149 c 128,-1,23
 523 1165 523 1165 465 1165 c 0,24,25
 403 1165 403 1165 352.5 1152.5 c 128,-1,26
 302 1140 302 1140 262 1121 c 128,-1,27
 222 1102 222 1102 191 1079.5 c 128,-1,28
 160 1057 160 1057 137 1037 c 1,29,-1
 94 1109 l 1,30,31
 119 1133 119 1133 158 1161 c 128,-1,32
 197 1189 197 1189 250 1213 c 128,-1,33
 303 1237 303 1237 370 1253 c 128,-1,34
 437 1269 437 1269 517 1269 c 0,35,36
 586 1269 586 1269 650.5 1251 c 128,-1,37
 715 1233 715 1233 765.5 1194 c 128,-1,38
 816 1155 816 1155 846.5 1093.5 c 128,-1,39
 877 1032 877 1032 877 945 c 0,40,41
 877 905 877 905 864.5 863 c 128,-1,42
 852 821 852 821 830.5 781 c 128,-1,43
 809 741 809 741 778.5 703.5 c 128,-1,44
 748 666 748 666 712 635 c 128,-1,45
 676 604 676 604 635.5 580.5 c 128,-1,46
 595 557 595 557 553 544 c 1,47,48
 658 547 658 547 735 523.5 c 128,-1,49
 812 500 812 500 862.5 455.5 c 128,-1,50
 913 411 913 411 937.5 349 c 128,-1,51
 962 287 962 287 962 214 c 0,52,53
 962 137 962 137 936 61.5 c 128,-1,54
 910 -14 910 -14 860.5 -80.5 c 128,-1,55
 811 -147 811 -147 739.5 -200.5 c 128,-1,56
 668 -254 668 -254 578 -287.5 c 128,-1,57
 488 -321 488 -321 381 -330.5 c 128,-1,58
 274 -340 274 -340 153 -318 c 1,59,-1
 152 -234 l 1,60,-1
 152 -234 l 1,0,1
EndSplineSet
EndChar

StartChar: four
Encoding: 52 52 23
Width: 1256
GlyphClass: 2
Flags: W
LayerCount: 2
Fore
SplineSet
65 75 m 1,0,1
 143 217 143 217 221 355.5 c 128,-1,2
 299 494 299 494 377 639 c 128,-1,3
 455 784 455 784 533 940 c 128,-1,4
 611 1096 611 1096 689 1273 c 1,5,-1
 741 1273 l 1,6,-1
 827 1209 l 1,7,8
 681 940 681 940 536 680 c 128,-1,9
 391 420 391 420 245 161 c 1,10,-1
 198 89 l 1,11,-1
 762 112 l 1,12,-1
 765 623 l 1,13,-1
 896 654 l 1,14,-1
 896 117 l 1,15,-1
 1172 129 l 1,16,-1
 1172 0 l 1,17,-1
 896 0 l 1,18,-1
 896 -376 l 1,19,-1
 760 -376 l 1,20,-1
 762 0 l 1,21,-1
 90 0 l 1,22,-1
 65 75 l 1,0,1
EndSplineSet
EndChar

StartChar: five
Encoding: 53 53 24
Width: 1079
GlyphClass: 2
Flags: W
LayerCount: 2
Fore
SplineSet
160 -251 m 1,0,1
 239 -263 239 -263 318 -252.5 c 128,-1,2
 397 -242 397 -242 470 -213 c 128,-1,3
 543 -184 543 -184 606 -138.5 c 128,-1,4
 669 -93 669 -93 716 -35 c 128,-1,5
 763 23 763 23 789.5 92.5 c 128,-1,6
 816 162 816 162 816 238 c 0,7,8
 816 329 816 329 792 395 c 128,-1,9
 768 461 768 461 725 504 c 128,-1,10
 682 547 682 547 623 568.5 c 128,-1,11
 564 590 564 590 494 593 c 128,-1,12
 424 596 424 596 345.5 581 c 128,-1,13
 267 566 267 566 186 536 c 1,14,-1
 151 566 l 1,15,-1
 230 1237 l 1,16,-1
 791 1237 l 1,17,-1
 902 1249 l 1,18,-1
 865 1114 l 1,19,-1
 341 1114 l 1,20,-1
 269 631 l 1,21,22
 415 685 415 685 542.5 684.5 c 128,-1,23
 670 684 670 684 765 634.5 c 128,-1,24
 860 585 860 585 914.5 489 c 128,-1,25
 969 393 969 393 969 256 c 0,26,27
 969 186 969 186 946 113.5 c 128,-1,28
 923 41 923 41 879.5 -26.5 c 128,-1,29
 836 -94 836 -94 774 -153 c 128,-1,30
 712 -212 712 -212 633.5 -256.5 c 128,-1,31
 555 -301 555 -301 461.5 -326 c 128,-1,32
 368 -351 368 -351 262 -351 c 0,33,34
 237 -351 237 -351 211 -348 c 128,-1,35
 185 -345 185 -345 159 -337 c 1,36,-1
 160 -251 l 1,37,-1
 160 -251 l 1,0,1
EndSplineSet
EndChar

StartChar: six
Encoding: 54 54 25
Width: 1272
GlyphClass: 2
Flags: W
LayerCount: 2
Fore
SplineSet
124 563 m 0,0,1
 124 692 124 692 159.5 808.5 c 128,-1,2
 195 925 195 925 257 1026.5 c 128,-1,3
 319 1128 319 1128 402.5 1213 c 128,-1,4
 486 1298 486 1298 581.5 1363 c 128,-1,5
 677 1428 677 1428 780 1471.5 c 128,-1,6
 883 1515 883 1515 984 1534 c 1,7,-1
 1016 1468 l 1,8,9
 835 1416 835 1416 698 1324.5 c 128,-1,10
 561 1233 561 1233 468.5 1119.5 c 128,-1,11
 376 1006 376 1006 328 880 c 128,-1,12
 280 754 280 754 277 633 c 0,13,14
 274 522 274 522 294 418.5 c 128,-1,15
 314 315 314 315 359 235 c 128,-1,16
 404 155 404 155 476.5 107 c 128,-1,17
 549 59 549 59 652 59 c 0,18,19
 743 59 743 59 808.5 99.5 c 128,-1,20
 874 140 874 140 916.5 201.5 c 128,-1,21
 959 263 959 263 979 335.5 c 128,-1,22
 999 408 999 408 999 472 c 0,23,24
 999 571 999 571 976.5 645 c 128,-1,25
 954 719 954 719 916 768.5 c 128,-1,26
 878 818 878 818 828 842.5 c 128,-1,27
 778 867 778 867 723 867 c 0,28,29
 681 867 681 867 645 859.5 c 128,-1,30
 609 852 609 852 579.5 841.5 c 128,-1,31
 550 831 550 831 528.5 818 c 128,-1,32
 507 805 507 805 494 795 c 1,33,-1
 460 857 l 1,34,35
 479 879 479 879 510 899 c 128,-1,36
 541 919 541 919 580 934.5 c 128,-1,37
 619 950 619 950 664 959 c 128,-1,38
 709 968 709 968 757 968 c 0,39,40
 853 968 853 968 924.5 929 c 128,-1,41
 996 890 996 890 1043.5 828 c 128,-1,42
 1091 766 1091 766 1114.5 687.5 c 128,-1,43
 1138 609 1138 609 1138 530 c 0,44,45
 1138 466 1138 466 1123 400 c 128,-1,46
 1108 334 1108 334 1078 273 c 128,-1,47
 1048 212 1048 212 1004.5 158.5 c 128,-1,48
 961 105 961 105 904.5 65 c 128,-1,49
 848 25 848 25 778.5 2 c 128,-1,50
 709 -21 709 -21 628 -21 c 0,51,52
 509 -21 509 -21 415 26.5 c 128,-1,53
 321 74 321 74 256.5 154.5 c 128,-1,54
 192 235 192 235 158 340.5 c 128,-1,55
 124 446 124 446 124 563 c 0,0,1
EndSplineSet
EndChar

StartChar: seven
Encoding: 55 55 26
Width: 1256
GlyphClass: 2
Flags: W
LayerCount: 2
Fore
SplineSet
1021 1148 m 1,0,-1
 329 1134 l 1,1,-1
 247 928 l 1,2,-1
 171 937 l 1,3,-1
 222 1253 l 1,4,-1
 1110 1253 l 1,5,-1
 1143 1217 l 1,6,-1
 538 -316 l 1,7,-1
 392 -265 l 1,8,-1
 1021 1148 l 1,0,-1
EndSplineSet
EndChar

StartChar: eight
Encoding: 56 56 27
Width: 1256
GlyphClass: 2
Flags: W
LayerCount: 2
Fore
SplineSet
126 373 m 0,0,1
 126 432 126 432 147 491 c 128,-1,2
 168 550 168 550 209.5 605 c 128,-1,3
 251 660 251 660 312 708 c 128,-1,4
 373 756 373 756 453 794 c 1,5,6
 401 826 401 826 355.5 863 c 128,-1,7
 310 900 310 900 276 946 c 128,-1,8
 242 992 242 992 222.5 1047.5 c 128,-1,9
 203 1103 203 1103 203 1171 c 0,10,11
 203 1269 203 1269 242 1340.5 c 128,-1,12
 281 1412 281 1412 344.5 1459 c 128,-1,13
 408 1506 408 1506 489 1528.5 c 128,-1,14
 570 1551 570 1551 653 1551 c 0,15,16
 739 1551 739 1551 813.5 1526.5 c 128,-1,17
 888 1502 888 1502 943.5 1457 c 128,-1,18
 999 1412 999 1412 1030.5 1348 c 128,-1,19
 1062 1284 1062 1284 1062 1206 c 0,20,21
 1062 1150 1062 1150 1043 1090 c 128,-1,22
 1024 1030 1024 1030 987.5 972.5 c 128,-1,23
 951 915 951 915 896 864 c 128,-1,24
 841 813 841 813 769 775 c 1,25,26
 838 738 838 738 902.5 699 c 128,-1,27
 967 660 967 660 1017 615 c 128,-1,28
 1067 570 1067 570 1097 516.5 c 128,-1,29
 1127 463 1127 463 1128 397 c 0,30,31
 1129 283 1129 283 1085 202 c 128,-1,32
 1041 121 1041 121 970 70 c 128,-1,33
 899 19 899 19 809 -4.5 c 128,-1,34
 719 -28 719 -28 629 -28 c 0,35,36
 571 -28 571 -28 511 -17.5 c 128,-1,37
 451 -7 451 -7 395 14 c 128,-1,38
 339 35 339 35 290 67.5 c 128,-1,39
 241 100 241 100 204.5 145 c 128,-1,40
 168 190 168 190 147 246.5 c 128,-1,41
 126 303 126 303 126 373 c 0,0,1
678 823 m 1,42,43
 723 835 723 835 768.5 868 c 128,-1,44
 814 901 814 901 851.5 946.5 c 128,-1,45
 889 992 889 992 913 1046.5 c 128,-1,46
 937 1101 937 1101 938 1156 c 0,47,48
 940 1227 940 1227 919 1285.5 c 128,-1,49
 898 1344 898 1344 858 1386 c 128,-1,50
 818 1428 818 1428 762 1451.5 c 128,-1,51
 706 1475 706 1475 639 1475 c 0,52,53
 573 1475 573 1475 515 1453.5 c 128,-1,54
 457 1432 457 1432 414 1394 c 128,-1,55
 371 1356 371 1356 346 1305 c 128,-1,56
 321 1254 321 1254 321 1194 c 0,57,58
 321 1130 321 1130 351 1077.5 c 128,-1,59
 381 1025 381 1025 430.5 981 c 128,-1,60
 480 937 480 937 544.5 898.5 c 128,-1,61
 609 860 609 860 678 823 c 1,42,43
264 407 m 0,62,63
 264 333 264 333 291 268.5 c 128,-1,64
 318 204 318 204 368.5 156 c 128,-1,65
 419 108 419 108 491.5 80 c 128,-1,66
 564 52 564 52 654 52 c 0,67,68
 727 52 727 52 789.5 74.5 c 128,-1,69
 852 97 852 97 898.5 136 c 128,-1,70
 945 175 945 175 971.5 228.5 c 128,-1,71
 998 282 998 282 998 344 c 0,72,73
 998 395 998 395 978.5 437 c 128,-1,74
 959 479 959 479 925.5 514.5 c 128,-1,75
 892 550 892 550 846.5 580 c 128,-1,76
 801 610 801 610 749 638 c 128,-1,77
 697 666 697 666 641 693 c 128,-1,78
 585 720 585 720 530 750 c 1,79,80
 477 729 477 729 429 693 c 128,-1,81
 381 657 381 657 344.5 611.5 c 128,-1,82
 308 566 308 566 286 513.5 c 128,-1,83
 264 461 264 461 264 407 c 0,62,63
EndSplineSet
EndChar

StartChar: nine
Encoding: 57 57 28
Width: 1256
GlyphClass: 2
Flags: W
LayerCount: 2
Fore
SplineSet
245 -338 m 1,0,1
 363 -304 363 -304 462 -244 c 128,-1,2
 561 -184 561 -184 641.5 -108 c 128,-1,3
 722 -32 722 -32 783 57 c 128,-1,4
 844 146 844 146 885.5 239 c 128,-1,5
 927 332 927 332 948.5 424.5 c 128,-1,6
 970 517 970 517 971 601 c 0,7,8
 973 715 973 715 956 819 c 128,-1,9
 939 923 939 923 897 1001.5 c 128,-1,10
 855 1080 855 1080 785 1127 c 128,-1,11
 715 1174 715 1174 610 1174 c 0,12,13
 519 1174 519 1174 453 1133.5 c 128,-1,14
 387 1093 387 1093 344.5 1032 c 128,-1,15
 302 971 302 971 282 899 c 128,-1,16
 262 827 262 827 262 764 c 0,17,18
 262 668 262 668 284.5 593 c 128,-1,19
 307 518 307 518 345 467 c 128,-1,20
 383 416 383 416 433 389.5 c 128,-1,21
 483 363 483 363 538 363 c 0,22,23
 580 363 580 363 616 370.5 c 128,-1,24
 652 378 652 378 681.5 388.5 c 128,-1,25
 711 399 711 399 733 411.5 c 128,-1,26
 755 424 755 424 768 435 c 1,27,-1
 802 373 l 1,28,29
 783 351 783 351 752 331 c 128,-1,30
 721 311 721 311 682 295.5 c 128,-1,31
 643 280 643 280 598 271 c 128,-1,32
 553 262 553 262 505 262 c 0,33,34
 409 262 409 262 337.5 301 c 128,-1,35
 266 340 266 340 218.5 403 c 128,-1,36
 171 466 171 466 147.5 545 c 128,-1,37
 124 624 124 624 124 703 c 0,38,39
 124 767 124 767 139 833 c 128,-1,40
 154 899 154 899 184 960 c 128,-1,41
 214 1021 214 1021 257.5 1074.5 c 128,-1,42
 301 1128 301 1128 357.5 1168 c 128,-1,43
 414 1208 414 1208 483.5 1231 c 128,-1,44
 553 1254 553 1254 634 1254 c 0,45,46
 755 1254 755 1254 846.5 1206.5 c 128,-1,47
 938 1159 938 1159 999.5 1078.5 c 128,-1,48
 1061 998 1061 998 1092.5 892.5 c 128,-1,49
 1124 787 1124 787 1124 670 c 0,50,51
 1124 536 1124 536 1089 410 c 128,-1,52
 1054 284 1054 284 993.5 170.5 c 128,-1,53
 933 57 933 57 851.5 -40 c 128,-1,54
 770 -137 770 -137 675.5 -211.5 c 128,-1,55
 581 -286 581 -286 479 -336 c 128,-1,56
 377 -386 377 -386 276 -405 c 1,57,-1
 274 -405 l 1,58,-1
 245 -338 l 1,59,-1
 245 -338 l 1,0,1
EndSplineSet
EndChar

StartChar: colon
Encoding: 58 58 29
Width: 706
GlyphClass: 2
Flags: W
LayerCount: 2
Fore
SplineSet
341 788 m 0,0,1
 322 788 322 788 304 794.5 c 128,-1,2
 286 801 286 801 272.5 813.5 c 128,-1,3
 259 826 259 826 250.5 843.5 c 128,-1,4
 242 861 242 861 242 883 c 0,5,6
 242 906 242 906 252.5 926.5 c 128,-1,7
 263 947 263 947 279.5 962 c 128,-1,8
 296 977 296 977 317 986 c 128,-1,9
 338 995 338 995 359 995 c 0,10,11
 411 995 411 995 434.5 966.5 c 128,-1,12
 458 938 458 938 458 899 c 0,13,14
 458 874 458 874 448 853.5 c 128,-1,15
 438 833 438 833 421.5 818.5 c 128,-1,16
 405 804 405 804 384 796 c 128,-1,17
 363 788 363 788 341 788 c 0,0,1
242 73 m 0,18,19
 242 96 242 96 252.5 116.5 c 128,-1,20
 263 137 263 137 279.5 152 c 128,-1,21
 296 167 296 167 317 176 c 128,-1,22
 338 185 338 185 359 185 c 0,23,24
 411 185 411 185 434.5 156.5 c 128,-1,25
 458 128 458 128 458 89 c 0,26,27
 458 64 458 64 448 43.5 c 128,-1,28
 438 23 438 23 421.5 8.5 c 128,-1,29
 405 -6 405 -6 384 -14 c 128,-1,30
 363 -22 363 -22 341 -22 c 0,31,32
 322 -22 322 -22 304 -15.5 c 128,-1,33
 286 -9 286 -9 272.5 3.5 c 128,-1,34
 259 16 259 16 250.5 33.5 c 128,-1,35
 242 51 242 51 242 73 c 0,18,19
EndSplineSet
EndChar

StartChar: semicolon
Encoding: 59 59 30
Width: 750
GlyphClass: 2
Flags: W
LayerCount: 2
Fore
SplineSet
341 788 m 0,0,1
 322 788 322 788 304 794.5 c 128,-1,2
 286 801 286 801 272.5 813.5 c 128,-1,3
 259 826 259 826 250.5 843.5 c 128,-1,4
 242 861 242 861 242 883 c 0,5,6
 242 906 242 906 252.5 926.5 c 128,-1,7
 263 947 263 947 279.5 962 c 128,-1,8
 296 977 296 977 317 986 c 128,-1,9
 338 995 338 995 359 995 c 0,10,11
 411 995 411 995 434.5 966.5 c 128,-1,12
 458 938 458 938 458 899 c 0,13,14
 458 874 458 874 448 853.5 c 128,-1,15
 438 833 438 833 421.5 818.5 c 128,-1,16
 405 804 405 804 384 796 c 128,-1,17
 363 788 363 788 341 788 c 0,0,1
224 69 m 1,18,-1
 310 182 l 1,19,20
 365 170 365 170 404 137.5 c 128,-1,21
 443 105 443 105 468 63 c 128,-1,22
 493 21 493 21 505 -24 c 128,-1,23
 517 -69 517 -69 518 -106 c 0,24,25
 519 -181 519 -181 493.5 -250 c 128,-1,26
 468 -319 468 -319 426.5 -377 c 128,-1,27
 385 -435 385 -435 333.5 -478.5 c 128,-1,28
 282 -522 282 -522 230 -546 c 1,29,-1
 189 -508 l 1,30,-1
 189 -474 l 1,31,32
 220 -462 220 -462 253.5 -430 c 128,-1,33
 287 -398 287 -398 314.5 -355 c 128,-1,34
 342 -312 342 -312 360 -262 c 128,-1,35
 378 -212 378 -212 378 -164 c 0,36,37
 378 -125 378 -125 365 -90 c 128,-1,38
 352 -55 352 -55 330 -28.5 c 128,-1,39
 308 -2 308 -2 280.5 15 c 128,-1,40
 253 32 253 32 224 35 c 1,41,-1
 224 69 l 1,18,-1
EndSplineSet
EndChar

StartChar: less
Encoding: 60 60 31
Width: 1519
GlyphClass: 2
Flags: W
LayerCount: 2
Fore
SplineSet
200 802 m 1,0,-1
 1169 1317 l 1,1,-1
 1169 1180 l 1,2,-1
 328 751 l 1,3,-1
 1169 324 l 1,4,-1
 1169 187 l 1,5,-1
 200 701 l 1,6,-1
 200 802 l 1,0,-1
EndSplineSet
EndChar

StartChar: equal
Encoding: 61 61 32
Width: 1205
GlyphClass: 2
Flags: W
LayerCount: 2
Fore
SplineSet
160 1021 m 1,0,-1
 1045 1021 l 1,1,-1
 1045 909 l 1,2,-1
 160 909 l 1,3,-1
 160 1021 l 1,0,-1
160 673 m 1,4,-1
 1045 673 l 1,5,-1
 1045 562 l 1,6,-1
 160 562 l 1,7,-1
 160 673 l 1,4,-1
EndSplineSet
EndChar

StartChar: greater
Encoding: 62 62 33
Width: 1519
GlyphClass: 2
Flags: W
LayerCount: 2
Fore
SplineSet
350 323 m 1,0,-1
 1191 752 l 1,1,-1
 350 1179 l 1,2,-1
 350 1317 l 1,3,-1
 1319 802 l 1,4,-1
 1319 701 l 1,5,-1
 350 187 l 1,6,-1
 350 323 l 1,0,-1
EndSplineSet
EndChar

StartChar: question
Encoding: 63 63 34
Width: 1012
GlyphClass: 2
Flags: W
LayerCount: 2
Fore
SplineSet
491 490 m 1,0,1
 477 502 477 502 459.5 524.5 c 128,-1,2
 442 547 442 547 424 576 c 128,-1,3
 406 605 406 605 389 638.5 c 128,-1,4
 372 672 372 672 358.5 706 c 128,-1,5
 345 740 345 740 337 772.5 c 128,-1,6
 329 805 329 805 330 832 c 1,7,8
 330 872 330 872 367 905.5 c 128,-1,9
 404 939 404 939 459.5 968.5 c 128,-1,10
 515 998 515 998 580 1024.5 c 128,-1,11
 645 1051 645 1051 702 1077.5 c 128,-1,12
 759 1104 759 1104 799 1132 c 128,-1,13
 839 1160 839 1160 844 1193 c 1,14,15
 848 1298 848 1298 808.5 1390.5 c 128,-1,16
 769 1483 769 1483 699 1552.5 c 128,-1,17
 629 1622 629 1622 534.5 1662 c 128,-1,18
 440 1702 440 1702 333 1702 c 0,19,20
 312 1702 312 1702 288.5 1700.5 c 128,-1,21
 265 1699 265 1699 241.5 1695.5 c 128,-1,22
 218 1692 218 1692 197.5 1686.5 c 128,-1,23
 177 1681 177 1681 162 1674 c 1,24,-1
 162 1789 l 1,25,26
 169 1798 169 1798 188.5 1806 c 128,-1,27
 208 1814 208 1814 234 1820 c 128,-1,28
 260 1826 260 1826 290.5 1830 c 128,-1,29
 321 1834 321 1834 349 1834 c 0,30,31
 464 1834 464 1834 555 1806.5 c 128,-1,32
 646 1779 646 1779 715.5 1732 c 128,-1,33
 785 1685 785 1685 833 1622 c 128,-1,34
 881 1559 881 1559 910 1489 c 128,-1,35
 939 1419 939 1419 949.5 1345 c 128,-1,36
 960 1271 960 1271 954 1202 c 1,37,38
 954 1158 954 1158 920.5 1123 c 128,-1,39
 887 1088 887 1088 836.5 1057.5 c 128,-1,40
 786 1027 786 1027 726 1000 c 128,-1,41
 666 973 666 973 612.5 947 c 128,-1,42
 559 921 559 921 520 894 c 128,-1,43
 481 867 481 867 472 836 c 1,44,45
 467 792 467 792 476 748 c 128,-1,46
 485 704 485 704 501 660.5 c 128,-1,47
 517 617 517 617 537.5 574 c 128,-1,48
 558 531 558 531 576 490 c 1,49,-1
 491 490 l 1,0,1
478 73 m 0,50,51
 478 96 478 96 488.5 116.5 c 128,-1,52
 499 137 499 137 515.5 152 c 128,-1,53
 532 167 532 167 553 176 c 128,-1,54
 574 185 574 185 595 185 c 0,55,56
 647 185 647 185 670.5 156.5 c 128,-1,57
 694 128 694 128 694 89 c 0,58,59
 694 64 694 64 684 43.5 c 128,-1,60
 674 23 674 23 657.5 8.5 c 128,-1,61
 641 -6 641 -6 620 -14 c 128,-1,62
 599 -22 599 -22 577 -22 c 0,63,64
 558 -22 558 -22 540 -15.5 c 128,-1,65
 522 -9 522 -9 508.5 3.5 c 128,-1,66
 495 16 495 16 486.5 33.5 c 128,-1,67
 478 51 478 51 478 73 c 0,50,51
EndSplineSet
EndChar

StartChar: at
Encoding: 64 64 35
Width: 2133
GlyphClass: 2
Flags: W
LayerCount: 2
Fore
SplineSet
224 414 m 0,0,1
 224 570 224 570 260.5 706.5 c 128,-1,2
 297 843 297 843 362.5 957 c 128,-1,3
 428 1071 428 1071 518.5 1160 c 128,-1,4
 609 1249 609 1249 718 1310.5 c 128,-1,5
 827 1372 827 1372 950 1404.5 c 128,-1,6
 1073 1437 1073 1437 1203 1437 c 0,7,8
 1347 1437 1347 1437 1471.5 1394.5 c 128,-1,9
 1596 1352 1596 1352 1688.5 1271.5 c 128,-1,10
 1781 1191 1781 1191 1834 1075 c 128,-1,11
 1887 959 1887 959 1887 812 c 0,12,13
 1887 675 1887 675 1862.5 564 c 128,-1,14
 1838 453 1838 453 1796.5 367 c 128,-1,15
 1755 281 1755 281 1700.5 219 c 128,-1,16
 1646 157 1646 157 1586 116.5 c 128,-1,17
 1526 76 1526 76 1464 57 c 128,-1,18
 1402 38 1402 38 1347 38 c 0,19,20
 1312 38 1312 38 1292.5 84 c 128,-1,21
 1273 130 1273 130 1268 205 c 0,22,23
 1266 237 1266 237 1266 274.5 c 128,-1,24
 1266 312 1266 312 1270 361.5 c 128,-1,25
 1274 411 1274 411 1282.5 475 c 128,-1,26
 1291 539 1291 539 1306 624 c 1,27,28
 1283 556 1283 556 1253.5 485 c 128,-1,29
 1224 414 1224 414 1189.5 347.5 c 128,-1,30
 1155 281 1155 281 1116.5 222.5 c 128,-1,31
 1078 164 1078 164 1035.5 120.5 c 128,-1,32
 993 77 993 77 948.5 51.5 c 128,-1,33
 904 26 904 26 858 26 c 256,34,35
 812 26 812 26 766.5 53.5 c 128,-1,36
 721 81 721 81 685 133 c 128,-1,37
 649 185 649 185 627 260 c 128,-1,38
 605 335 605 335 605 430 c 0,39,40
 605 494 605 494 618.5 565 c 128,-1,41
 632 636 632 636 658.5 705.5 c 128,-1,42
 685 775 685 775 724 837.5 c 128,-1,43
 763 900 763 900 813.5 948 c 128,-1,44
 864 996 864 996 926.5 1024 c 128,-1,45
 989 1052 989 1052 1062 1052 c 0,46,47
 1097 1052 1097 1052 1136.5 1047 c 128,-1,48
 1176 1042 1176 1042 1215 1033.5 c 128,-1,49
 1254 1025 1254 1025 1289 1013.5 c 128,-1,50
 1324 1002 1324 1002 1350 988 c 1,51,52
 1353 997 1353 997 1356.5 1006.5 c 128,-1,53
 1360 1016 1360 1016 1365 1023.5 c 128,-1,54
 1370 1031 1370 1031 1377 1035.5 c 128,-1,55
 1384 1040 1384 1040 1393 1038 c 1,56,-1
 1477 1009 l 1,57,58
 1465 955 1465 955 1452 878 c 128,-1,59
 1439 801 1439 801 1427 715.5 c 128,-1,60
 1415 630 1415 630 1404.5 544.5 c 128,-1,61
 1394 459 1394 459 1386 388 c 0,62,63
 1380 335 1380 335 1378.5 288 c 128,-1,64
 1377 241 1377 241 1379.5 206 c 128,-1,65
 1382 171 1382 171 1389.5 150.5 c 128,-1,66
 1397 130 1397 130 1409 130 c 0,67,68
 1445 130 1445 130 1486.5 150.5 c 128,-1,69
 1528 171 1528 171 1569 210 c 128,-1,70
 1610 249 1610 249 1648 304.5 c 128,-1,71
 1686 360 1686 360 1714.5 429 c 128,-1,72
 1743 498 1743 498 1760.5 580.5 c 128,-1,73
 1778 663 1778 663 1778 755 c 0,74,75
 1778 860 1778 860 1754.5 944 c 128,-1,76
 1731 1028 1731 1028 1688.5 1093 c 128,-1,77
 1646 1158 1646 1158 1587 1204.5 c 128,-1,78
 1528 1251 1528 1251 1457.5 1281 c 128,-1,79
 1387 1311 1387 1311 1307 1325 c 128,-1,80
 1227 1339 1227 1339 1143 1339 c 0,81,82
 984 1339 984 1339 838 1280.5 c 128,-1,83
 692 1222 692 1222 580.5 1109.5 c 128,-1,84
 469 997 469 997 402.5 833.5 c 128,-1,85
 336 670 336 670 336 460 c 0,86,87
 336 327 336 327 364 221 c 128,-1,88
 392 115 392 115 442 34 c 128,-1,89
 492 -47 492 -47 560.5 -105.5 c 128,-1,90
 629 -164 629 -164 710 -201 c 128,-1,91
 791 -238 791 -238 882 -255.5 c 128,-1,92
 973 -273 973 -273 1067 -273 c 0,93,94
 1123 -273 1123 -273 1179 -266 c 128,-1,95
 1235 -259 1235 -259 1284.5 -248 c 128,-1,96
 1334 -237 1334 -237 1374.5 -223 c 128,-1,97
 1415 -209 1415 -209 1442 -195 c 1,98,-1
 1470 -260 l 1,99,100
 1437 -286 1437 -286 1385.5 -307.5 c 128,-1,101
 1334 -329 1334 -329 1272.5 -344 c 128,-1,102
 1211 -359 1211 -359 1143.5 -367.5 c 128,-1,103
 1076 -376 1076 -376 1012 -376 c 0,104,105
 898 -376 898 -376 795.5 -351 c 128,-1,106
 693 -326 693 -326 605.5 -278.5 c 128,-1,107
 518 -231 518 -231 447.5 -162.5 c 128,-1,108
 377 -94 377 -94 327.5 -6 c 128,-1,109
 278 82 278 82 251 187.5 c 128,-1,110
 224 293 224 293 224 414 c 0,0,1
726 486 m 0,111,112
 726 432 726 432 735 373 c 128,-1,113
 744 314 744 314 763 264.5 c 128,-1,114
 782 215 782 215 812.5 183 c 128,-1,115
 843 151 843 151 887 151 c 0,116,117
 927 151 927 151 970 186 c 128,-1,118
 1013 221 1013 221 1055.5 279.5 c 128,-1,119
 1098 338 1098 338 1138 413 c 128,-1,120
 1178 488 1178 488 1211.5 568.5 c 128,-1,121
 1245 649 1245 649 1270 728.5 c 128,-1,122
 1295 808 1295 808 1308 875 c 1,123,124
 1291 890 1291 890 1261.5 903 c 128,-1,125
 1232 916 1232 916 1197.5 925 c 128,-1,126
 1163 934 1163 934 1127 939 c 128,-1,127
 1091 944 1091 944 1060 944 c 0,128,129
 973 944 973 944 910 904 c 128,-1,130
 847 864 847 864 806 799 c 128,-1,131
 765 734 765 734 745.5 652 c 128,-1,132
 726 570 726 570 726 486 c 0,111,112
EndSplineSet
EndChar

StartChar: A
Encoding: 65 65 36
Width: 1502
GlyphClass: 2
Flags: W
LayerCount: 2
Fore
SplineSet
4 67 m 1,0,-1
 151 91 l 1,1,-1
 684 1541 l 1,2,-1
 814 1541 l 1,3,-1
 1322 92 l 1,4,-1
 1497 67 l 1,5,-1
 1497 0 l 1,6,-1
 983 0 l 1,7,-1
 983 67 l 1,8,-1
 1159 91 l 1,9,-1
 1036 456 l 1,10,-1
 406 456 l 1,11,-1
 280 90 l 1,12,-1
 467 67 l 1,13,-1
 467 0 l 1,14,-1
 4 0 l 1,15,-1
 4 67 l 1,0,-1
1005 546 m 1,16,-1
 775 1229 l 1,17,-1
 727 1380 l 1,18,-1
 437 546 l 1,19,-1
 1005 546 l 1,16,-1
EndSplineSet
EndChar

StartChar: B
Encoding: 66 66 37
Width: 1415
GlyphClass: 2
Flags: W
LayerCount: 2
Fore
SplineSet
102 67 m 1,0,-1
 282 91 l 1,1,-1
 282 1440 l 1,2,-1
 105 1455 l 1,3,-1
 105 1531 l 1,4,-1
 348 1531 l 1,5,6
 393 1532 393 1532 436 1534 c 128,-1,7
 479 1536 479 1536 525 1538 c 128,-1,8
 571 1540 571 1540 622 1541.5 c 128,-1,9
 673 1543 673 1543 733 1543 c 0,10,11
 967 1542 967 1542 1093.5 1461 c 128,-1,12
 1220 1380 1220 1380 1220 1217 c 0,13,14
 1220 1143 1220 1143 1201.5 1079.5 c 128,-1,15
 1183 1016 1183 1016 1145 965.5 c 128,-1,16
 1107 915 1107 915 1049 879.5 c 128,-1,17
 991 844 991 844 911 828 c 1,18,19
 993 827 993 827 1067.5 802.5 c 128,-1,20
 1142 778 1142 778 1198.5 730.5 c 128,-1,21
 1255 683 1255 683 1288.5 614.5 c 128,-1,22
 1322 546 1322 546 1322 457 c 0,23,24
 1322 354 1322 354 1284 267.5 c 128,-1,25
 1246 181 1246 181 1167.5 118.5 c 128,-1,26
 1089 56 1089 56 969 21 c 128,-1,27
 849 -14 849 -14 684 -14 c 0,28,29
 641 -14 641 -14 593.5 -12.5 c 128,-1,30
 546 -11 546 -11 500 -9 c 128,-1,31
 454 -7 454 -7 414.5 -4.5 c 128,-1,32
 375 -2 375 -2 349 0 c 1,33,-1
 102 0 l 1,34,-1
 102 67 l 1,0,-1
429 862 m 1,35,36
 456 858 456 858 495 856.5 c 128,-1,37
 534 855 534 855 575 855 c 128,-1,38
 616 855 616 855 654.5 856 c 128,-1,39
 693 857 693 857 718 857 c 0,40,41
 794 857 794 857 860 876.5 c 128,-1,42
 926 896 926 896 975.5 937 c 128,-1,43
 1025 978 1025 978 1053.5 1040 c 128,-1,44
 1082 1102 1082 1102 1082 1188 c 0,45,46
 1082 1267 1082 1267 1050.5 1319 c 128,-1,47
 1019 1371 1019 1371 966.5 1402 c 128,-1,48
 914 1433 914 1433 845 1445.5 c 128,-1,49
 776 1458 776 1458 700 1458 c 0,50,51
 670 1458 670 1458 632 1458 c 128,-1,52
 594 1458 594 1458 556 1456.5 c 128,-1,53
 518 1455 518 1455 484.5 1452.5 c 128,-1,54
 451 1450 451 1450 430 1446 c 1,55,-1
 429 862 l 1,35,36
429 103 m 1,56,57
 448 96 448 96 483 90 c 128,-1,58
 518 84 518 84 559 80 c 128,-1,59
 600 76 600 76 641.5 74 c 128,-1,60
 683 72 683 72 715 72 c 0,61,62
 770 72 770 72 824.5 79 c 128,-1,63
 879 86 879 86 929.5 102 c 128,-1,64
 980 118 980 118 1023.5 144.5 c 128,-1,65
 1067 171 1067 171 1098.5 210.5 c 128,-1,66
 1130 250 1130 250 1148.5 304 c 128,-1,67
 1167 358 1167 358 1167 429 c 0,68,69
 1167 524 1167 524 1135.5 588 c 128,-1,70
 1104 652 1104 652 1046.5 691 c 128,-1,71
 989 730 989 730 907 747 c 128,-1,72
 825 764 825 764 724 764 c 0,73,74
 689 764 689 764 649 764.5 c 128,-1,75
 609 765 609 765 569.5 765 c 128,-1,76
 530 765 530 765 493.5 764 c 128,-1,77
 457 763 457 763 429 760 c 1,78,-1
 429 103 l 1,56,57
EndSplineSet
EndChar

StartChar: C
Encoding: 67 67 38
Width: 1441
GlyphClass: 2
Flags: W
LayerCount: 2
Fore
SplineSet
110 724 m 0,0,1
 110 853 110 853 140 964 c 128,-1,2
 170 1075 170 1075 224 1166.5 c 128,-1,3
 278 1258 278 1258 352.5 1329 c 128,-1,4
 427 1400 427 1400 517 1448.5 c 128,-1,5
 607 1497 607 1497 708 1522.5 c 128,-1,6
 809 1548 809 1548 916 1548 c 0,7,8
 988 1548 988 1548 1050 1539.5 c 128,-1,9
 1112 1531 1112 1531 1164 1519.5 c 128,-1,10
 1216 1508 1216 1508 1258 1496 c 128,-1,11
 1300 1484 1300 1484 1333 1477 c 1,12,-1
 1318 1203 l 1,13,-1
 1237 1203 l 1,14,-1
 1199 1382 l 1,15,16
 1137 1420 1137 1420 1057 1440 c 128,-1,17
 977 1460 977 1460 872 1460 c 0,18,19
 755 1460 755 1460 645.5 1416 c 128,-1,20
 536 1372 536 1372 451 1285.5 c 128,-1,21
 366 1199 366 1199 315 1071 c 128,-1,22
 264 943 264 943 264 776 c 0,23,24
 264 679 264 679 281.5 587.5 c 128,-1,25
 299 496 299 496 333.5 415.5 c 128,-1,26
 368 335 368 335 419 268 c 128,-1,27
 470 201 470 201 537.5 153.5 c 128,-1,28
 605 106 605 106 688.5 80 c 128,-1,29
 772 54 772 54 871 55 c 0,30,31
 932 55 932 55 986 64 c 128,-1,32
 1040 73 1040 73 1084.5 88 c 128,-1,33
 1129 103 1129 103 1163 122.5 c 128,-1,34
 1197 142 1197 142 1218 165 c 1,35,-1
 1263 334 l 1,36,-1
 1334 333 l 1,37,-1
 1334 63 l 1,38,39
 1298 61 1298 61 1254.5 47 c 128,-1,40
 1211 33 1211 33 1151 16 c 128,-1,41
 1091 -1 1091 -1 1011.5 -14.5 c 128,-1,42
 932 -28 932 -28 825 -28 c 0,43,44
 670 -28 670 -28 539 27 c 128,-1,45
 408 82 408 82 312.5 181.5 c 128,-1,46
 217 281 217 281 163.5 419 c 128,-1,47
 110 557 110 557 110 724 c 0,0,1
EndSplineSet
EndChar

StartChar: D
Encoding: 68 68 39
Width: 1591
GlyphClass: 2
Flags: W
LayerCount: 2
Fore
SplineSet
102 67 m 1,0,-1
 282 91 l 1,1,-1
 282 1439 l 1,2,-1
 105 1455 l 1,3,-1
 105 1531 l 1,4,-1
 354 1531 l 2,5,6
 410 1531 410 1531 460.5 1532.5 c 128,-1,7
 511 1534 511 1534 558.5 1536.5 c 128,-1,8
 606 1539 606 1539 651 1541 c 128,-1,9
 696 1543 696 1543 741 1543 c 0,10,11
 921 1543 921 1543 1060 1496 c 128,-1,12
 1199 1449 1199 1449 1294 1357 c 128,-1,13
 1389 1265 1389 1265 1438 1129.5 c 128,-1,14
 1487 994 1487 994 1487 817 c 0,15,16
 1487 620 1487 620 1427.5 466 c 128,-1,17
 1368 312 1368 312 1260.5 205.5 c 128,-1,18
 1153 99 1153 99 1004.5 43.5 c 128,-1,19
 856 -12 856 -12 679 -10 c 0,20,21
 643 -9 643 -9 603 -7 c 128,-1,22
 563 -5 563 -5 521 -3.5 c 128,-1,23
 479 -2 479 -2 437 -0.5 c 128,-1,24
 395 1 395 1 356 1 c 2,25,-1
 102 0 l 1,26,-1
 102 67 l 1,0,-1
429 99 m 1,27,28
 497 88 497 88 560.5 80.5 c 128,-1,29
 624 73 624 73 699 75 c 0,30,31
 827 77 827 77 942 120.5 c 128,-1,32
 1057 164 1057 164 1144 251 c 128,-1,33
 1231 338 1231 338 1282 469 c 128,-1,34
 1333 600 1333 600 1333 776 c 0,35,36
 1333 942 1333 942 1291.5 1070.5 c 128,-1,37
 1250 1199 1250 1199 1169.5 1286 c 128,-1,38
 1089 1373 1089 1373 970 1417 c 128,-1,39
 851 1461 851 1461 696 1457 c 0,40,41
 621 1455 621 1455 556.5 1451 c 128,-1,42
 492 1447 492 1447 429 1439 c 1,43,-1
 429 99 l 1,27,28
EndSplineSet
EndChar

StartChar: E
Encoding: 69 69 40
Width: 1351
GlyphClass: 2
Flags: W
LayerCount: 2
Fore
SplineSet
102 67 m 1,0,-1
 282 91 l 1,1,-1
 282 1439 l 1,2,-1
 105 1455 l 1,3,-1
 105 1531 l 1,4,-1
 1123 1531 l 1,5,-1
 1152 1245 l 1,6,-1
 1068 1245 l 1,7,-1
 1022 1438 l 1,8,-1
 428 1450 l 1,9,-1
 428 867 l 1,10,-1
 852 874 l 1,11,-1
 879 1034 l 1,12,-1
 958 1034 l 1,13,-1
 958 610 l 1,14,-1
 879 610 l 1,15,-1
 852 778 l 1,16,-1
 428 784 l 1,17,-1
 428 83 l 1,18,-1
 1061 100 l 1,19,-1
 1151 333 l 1,20,-1
 1225 315 l 1,21,-1
 1180 0 l 1,22,-1
 102 0 l 1,23,-1
 102 67 l 1,0,-1
EndSplineSet
EndChar

StartChar: F
Encoding: 70 70 41
Width: 1249
GlyphClass: 2
Flags: W
LayerCount: 2
Fore
SplineSet
90 67 m 1,0,-1
 281 91 l 1,1,-1
 281 1440 l 1,2,-1
 105 1455 l 1,3,-1
 105 1531 l 1,4,-1
 1144 1531 l 1,5,-1
 1166 1246 l 1,6,-1
 1088 1244 l 1,7,-1
 1042 1434 l 1,8,-1
 428 1447 l 1,9,-1
 428 827 l 1,10,-1
 879 835 l 1,11,-1
 912 991 l 1,12,-1
 988 991 l 1,13,-1
 988 571 l 1,14,-1
 903 571 l 1,15,-1
 879 738 l 1,16,-1
 428 744 l 1,17,-1
 428 91 l 1,18,-1
 724 73 l 1,19,-1
 724 0 l 1,20,-1
 90 0 l 1,21,-1
 90 67 l 1,0,-1
EndSplineSet
EndChar

StartChar: G
Encoding: 71 71 42
Width: 1579
GlyphClass: 2
Flags: W
LayerCount: 2
Fore
SplineSet
113 724 m 0,0,1
 113 853 113 853 142 964 c 128,-1,2
 171 1075 171 1075 224 1167 c 128,-1,3
 277 1259 277 1259 350.5 1329.5 c 128,-1,4
 424 1400 424 1400 513.5 1449 c 128,-1,5
 603 1498 603 1498 705 1523 c 128,-1,6
 807 1548 807 1548 916 1548 c 0,7,8
 1006 1548 1006 1548 1076 1540 c 128,-1,9
 1146 1532 1146 1532 1199.5 1520.5 c 128,-1,10
 1253 1509 1253 1509 1292.5 1497.5 c 128,-1,11
 1332 1486 1332 1486 1361 1480 c 1,12,-1
 1347 1208 l 1,13,-1
 1266 1208 l 1,14,-1
 1228 1385 l 1,15,16
 1213 1397 1213 1397 1181.5 1410.5 c 128,-1,17
 1150 1424 1150 1424 1105 1435 c 128,-1,18
 1060 1446 1060 1446 1001 1453.5 c 128,-1,19
 942 1461 942 1461 872 1460 c 0,20,21
 755 1459 755 1459 645.5 1414 c 128,-1,22
 536 1369 536 1369 452 1282 c 128,-1,23
 368 1195 368 1195 317.5 1067 c 128,-1,24
 267 939 267 939 267 772 c 0,25,26
 267 682 267 682 282.5 593.5 c 128,-1,27
 298 505 298 505 330 425.5 c 128,-1,28
 362 346 362 346 410 278.5 c 128,-1,29
 458 211 458 211 522.5 161.5 c 128,-1,30
 587 112 587 112 669 84 c 128,-1,31
 751 56 751 56 850 56 c 0,32,33
 897 56 897 56 950 61.5 c 128,-1,34
 1003 67 1003 67 1053.5 78.5 c 128,-1,35
 1104 90 1104 90 1147.5 108.5 c 128,-1,36
 1191 127 1191 127 1220 154 c 1,37,-1
 1219 617 l 1,38,-1
 943 633 l 1,39,-1
 943 708 l 1,40,-1
 1504 708 l 1,41,-1
 1504 633 l 1,42,-1
 1367 616 l 1,43,-1
 1367 75 l 1,44,45
 1334 72 1334 72 1276.5 56 c 128,-1,46
 1219 40 1219 40 1145.5 21 c 128,-1,47
 1072 2 1072 2 986 -13 c 128,-1,48
 900 -28 900 -28 809 -28 c 0,49,50
 654 -28 654 -28 526 28.5 c 128,-1,51
 398 85 398 85 306 185.5 c 128,-1,52
 214 286 214 286 163.5 423.5 c 128,-1,53
 113 561 113 561 113 724 c 0,0,1
EndSplineSet
EndChar

StartChar: H
Encoding: 72 72 43
Width: 1698
GlyphClass: 2
Flags: W
LayerCount: 2
Fore
SplineSet
111 67 m 1,0,-1
 283 92 l 1,1,-1
 283 1440 l 1,2,-1
 118 1455 l 1,3,-1
 118 1531 l 1,4,-1
 592 1531 l 1,5,-1
 592 1455 l 1,6,-1
 430 1440 l 1,7,-1
 430 794 l 1,8,-1
 1268 794 l 1,9,-1
 1268 1440 l 1,10,-1
 1104 1455 l 1,11,-1
 1104 1531 l 1,12,-1
 1576 1531 l 1,13,-1
 1576 1455 l 1,14,-1
 1415 1440 l 1,15,-1
 1415 91 l 1,16,-1
 1589 67 l 1,17,-1
 1589 0 l 1,18,-1
 1098 0 l 1,19,-1
 1098 67 l 1,20,-1
 1268 91 l 1,21,-1
 1268 703 l 1,22,-1
 430 703 l 1,23,-1
 430 91 l 1,24,-1
 600 67 l 1,25,-1
 600 0 l 1,26,-1
 111 0 l 1,27,-1
 111 67 l 1,0,-1
EndSplineSet
EndChar

StartChar: I
Encoding: 73 73 44
Width: 764
GlyphClass: 2
Flags: W
LayerCount: 2
Fore
SplineSet
138 67 m 1,0,-1
 307 91 l 1,1,-1
 307 1440 l 1,2,-1
 141 1455 l 1,3,-1
 141 1531 l 1,4,-1
 622 1531 l 1,5,-1
 622 1455 l 1,6,-1
 454 1440 l 1,7,-1
 454 91 l 1,8,-1
 631 67 l 1,9,-1
 631 0 l 1,10,-1
 138 0 l 1,11,-1
 138 67 l 1,0,-1
EndSplineSet
EndChar

StartChar: J
Encoding: 74 74 45
Width: 739
GlyphClass: 2
Flags: W
LayerCount: 2
Fore
SplineSet
264 -63 m 1,0,1
 279 -19 279 -19 287.5 30 c 128,-1,2
 296 79 296 79 300.5 136 c 128,-1,3
 305 193 305 193 306 258.5 c 128,-1,4
 307 324 307 324 307 401 c 2,5,-1
 307 1441 l 1,6,-1
 131 1455 l 1,7,-1
 131 1531 l 1,8,-1
 635 1531 l 1,9,-1
 635 1455 l 1,10,-1
 454 1440 l 1,11,-1
 454 320 l 2,12,13
 454 277 454 277 454 240.5 c 128,-1,14
 454 204 454 204 452.5 170.5 c 128,-1,15
 451 137 451 137 447.5 104 c 128,-1,16
 444 71 444 71 437 35 c 0,17,18
 419 -55 419 -55 372 -128 c 128,-1,19
 325 -201 325 -201 262 -254 c 128,-1,20
 199 -307 199 -307 126 -339.5 c 128,-1,21
 53 -372 53 -372 -18 -381 c 1,22,-1
 -62 -320 l 1,23,24
 59 -291 59 -291 142.5 -225.5 c 128,-1,25
 226 -160 226 -160 264 -63 c 1,0,1
EndSplineSet
EndChar

StartChar: K
Encoding: 75 75 46
Width: 1438
GlyphClass: 2
Flags: W
LayerCount: 2
Fore
SplineSet
136 67 m 1,0,-1
 298 91 l 1,1,-1
 298 1441 l 1,2,-1
 139 1455 l 1,3,-1
 139 1531 l 1,4,-1
 607 1531 l 1,5,-1
 607 1455 l 1,6,-1
 446 1441 l 1,7,-1
 446 702 l 1,8,-1
 1103 1441 l 1,9,-1
 946 1455 l 1,10,-1
 946 1531 l 1,11,-1
 1402 1531 l 1,12,-1
 1402 1455 l 1,13,-1
 1244 1439 l 1,14,-1
 730 884 l 1,15,-1
 731 884 l 1,16,17
 751 867 751 867 785 823 c 128,-1,18
 819 779 819 779 861 720 c 128,-1,19
 903 661 903 661 950.5 591 c 128,-1,20
 998 521 998 521 1046 450.5 c 128,-1,21
 1094 380 1094 380 1139.5 314.5 c 128,-1,22
 1185 249 1185 249 1223.5 199 c 128,-1,23
 1262 149 1262 149 1290 119.5 c 128,-1,24
 1318 90 1318 90 1331 91 c 1,25,-1
 1448 67 l 1,26,-1
 1448 0 l 1,27,-1
 1214 0 l 2,28,29
 1201 0 1201 0 1176 27.5 c 128,-1,30
 1151 55 1151 55 1117.5 101.5 c 128,-1,31
 1084 148 1084 148 1044 209.5 c 128,-1,32
 1004 271 1004 271 961.5 338.5 c 128,-1,33
 919 406 919 406 875 474.5 c 128,-1,34
 831 543 831 543 790 604.5 c 128,-1,35
 749 666 749 666 712.5 716 c 128,-1,36
 676 766 676 766 648 796 c 1,37,-1
 446 577 l 1,38,-1
 446 90 l 1,39,-1
 649 67 l 1,40,-1
 649 0 l 1,41,-1
 136 0 l 1,42,-1
 136 67 l 1,0,-1
EndSplineSet
EndChar

StartChar: L
Encoding: 76 76 47
Width: 1240
GlyphClass: 2
Flags: W
LayerCount: 2
Fore
SplineSet
102 67 m 1,0,-1
 282 92 l 1,1,-1
 282 1432 l 1,2,-1
 105 1448 l 1,3,-1
 105 1531 l 1,4,-1
 625 1531 l 1,5,-1
 625 1448 l 1,6,-1
 430 1433 l 1,7,-1
 428 85 l 1,8,-1
 1034 105 l 1,9,-1
 1142 350 l 1,10,-1
 1210 318 l 1,11,-1
 1145 0 l 1,12,-1
 102 0 l 1,13,-1
 102 67 l 1,0,-1
EndSplineSet
EndChar

StartChar: M
Encoding: 77 77 48
Width: 1984
GlyphClass: 2
Flags: W
LayerCount: 2
Fore
SplineSet
56 67 m 1,0,-1
 242 91 l 1,1,-1
 335 1433 l 1,2,-1
 132 1448 l 1,3,-1
 132 1531 l 1,4,-1
 549 1531 l 1,5,-1
 958 373 l 1,6,-1
 999 236 l 1,7,-1
 1048 378 l 1,8,-1
 1430 1530 l 1,9,-1
 1823 1530 l 1,10,-1
 1823 1448 l 1,11,-1
 1629 1433 l 1,12,-1
 1734 91 l 1,13,-1
 1927 67 l 1,14,-1
 1927 0 l 1,15,-1
 1391 0 l 1,16,-1
 1391 67 l 1,17,-1
 1584 91 l 1,18,-1
 1509 1097 l 1,19,-1
 1495 1436 l 1,20,-1
 1443 1246 l 1,21,-1
 1009 -15 l 1,22,-1
 959 -15 l 1,23,-1
 527 1138 l 1,24,-1
 425 1438 l 1,25,-1
 410 1042 l 1,26,-1
 361 91 l 1,27,-1
 574 67 l 1,28,-1
 574 0 l 1,29,-1
 56 0 l 1,30,-1
 56 67 l 1,0,-1
EndSplineSet
EndChar

StartChar: N
Encoding: 78 78 49
Width: 1670
GlyphClass: 2
Flags: W
LayerCount: 2
Fore
SplineSet
100 67 m 1,0,-1
 276 90 l 1,1,-1
 276 1433 l 1,2,-1
 106 1448 l 1,3,-1
 106 1531 l 1,4,-1
 431 1531 l 1,5,-1
 1179 368 l 1,6,-1
 1299 138 l 1,7,-1
 1299 1433 l 1,8,-1
 1128 1448 l 1,9,-1
 1128 1530 l 1,10,-1
 1581 1530 l 1,11,-1
 1581 1448 l 1,12,-1
 1408 1432 l 1,13,-1
 1408 0 l 1,14,-1
 1258 0 l 1,15,-1
 535 1106 l 1,16,-1
 386 1374 l 1,17,-1
 386 91 l 1,18,-1
 591 67 l 1,19,-1
 591 0 l 1,20,-1
 100 0 l 1,21,-1
 100 67 l 1,0,-1
EndSplineSet
EndChar

StartChar: O
Encoding: 79 79 50
Width: 1554
GlyphClass: 2
Flags: W
LayerCount: 2
Fore
SplineSet
89 742 m 0,0,1
 93 931 93 931 151 1080 c 128,-1,2
 209 1229 209 1229 306 1333 c 128,-1,3
 403 1437 403 1437 530.5 1493 c 128,-1,4
 658 1549 658 1549 800 1552 c 0,5,6
 953 1555 953 1555 1077 1497 c 128,-1,7
 1201 1439 1201 1439 1287.5 1335 c 128,-1,8
 1374 1231 1374 1231 1419.5 1088.5 c 128,-1,9
 1465 946 1465 946 1462 778 c 0,10,11
 1458 589 1458 589 1402 440.5 c 128,-1,12
 1346 292 1346 292 1252 189 c 128,-1,13
 1158 86 1158 86 1034 30.5 c 128,-1,14
 910 -25 910 -25 770 -28 c 0,15,16
 615 -31 615 -31 488 25.5 c 128,-1,17
 361 82 361 82 271 185.5 c 128,-1,18
 181 289 181 289 133.5 431.5 c 128,-1,19
 86 574 86 574 89 742 c 0,0,1
251 743 m 0,20,21
 251 600 251 600 288 475 c 128,-1,22
 325 350 325 350 394.5 256 c 128,-1,23
 464 162 464 162 563 108 c 128,-1,24
 662 54 662 54 787 54 c 0,25,26
 903 54 903 54 998 105 c 128,-1,27
 1093 156 1093 156 1160 250.5 c 128,-1,28
 1227 345 1227 345 1263.5 478.5 c 128,-1,29
 1300 612 1300 612 1300 777 c 0,30,31
 1300 916 1300 916 1266.5 1041.5 c 128,-1,32
 1233 1167 1233 1167 1168 1262 c 128,-1,33
 1103 1357 1103 1357 1007 1413 c 128,-1,34
 911 1469 911 1469 787 1469 c 0,35,36
 668 1469 668 1469 569.5 1418.5 c 128,-1,37
 471 1368 471 1368 400 1273.5 c 128,-1,38
 329 1179 329 1179 290 1044.5 c 128,-1,39
 251 910 251 910 251 743 c 0,20,21
EndSplineSet
EndChar

StartChar: P
Encoding: 80 80 51
Width: 1304
GlyphClass: 2
Flags: W
LayerCount: 2
Fore
SplineSet
97 67 m 1,0,-1
 298 92 l 1,1,-1
 298 1433 l 1,2,-1
 119 1448 l 1,3,-1
 119 1531 l 1,4,-1
 369 1531 l 2,5,6
 399 1531 399 1531 439.5 1534.5 c 128,-1,7
 480 1538 480 1538 527 1541.5 c 128,-1,8
 574 1545 574 1545 624.5 1548.5 c 128,-1,9
 675 1552 675 1552 725 1552 c 0,10,11
 840 1552 840 1552 936 1532 c 128,-1,12
 1032 1512 1032 1512 1101 1461 c 128,-1,13
 1170 1410 1170 1410 1208.5 1322.5 c 128,-1,14
 1247 1235 1247 1235 1247 1100 c 0,15,16
 1247 978 1247 978 1198 883 c 128,-1,17
 1149 788 1149 788 1068 723.5 c 128,-1,18
 987 659 987 659 882.5 626 c 128,-1,19
 778 593 778 593 668 594 c 0,20,21
 584 594 584 594 531 594.5 c 128,-1,22
 478 595 478 595 446 592 c 1,23,-1
 446 92 l 1,24,-1
 722 67 l 1,25,-1
 722 0 l 1,26,-1
 97 0 l 1,27,-1
 97 67 l 1,0,-1
446 684 m 1,28,29
 502 675 502 675 559.5 674 c 128,-1,30
 617 673 617 673 665 673 c 0,31,32
 756 674 756 674 835 696.5 c 128,-1,33
 914 719 914 719 972.5 769 c 128,-1,34
 1031 819 1031 819 1064.5 900 c 128,-1,35
 1098 981 1098 981 1098 1098 c 0,36,37
 1098 1294 1098 1294 991 1384 c 128,-1,38
 884 1474 884 1474 664 1466 c 0,39,40
 640 1465 640 1465 611 1463.5 c 128,-1,41
 582 1462 582 1462 553 1460 c 128,-1,42
 524 1458 524 1458 496 1454.5 c 128,-1,43
 468 1451 468 1451 446 1445 c 1,44,-1
 446 684 l 1,28,29
EndSplineSet
EndChar

StartChar: Q
Encoding: 81 81 52
Width: 1565
GlyphClass: 2
Flags: W
LayerCount: 2
Fore
SplineSet
89 742 m 0,0,1
 93 931 93 931 151 1080 c 128,-1,2
 209 1229 209 1229 306 1333 c 128,-1,3
 403 1437 403 1437 530.5 1493 c 128,-1,4
 658 1549 658 1549 800 1552 c 0,5,6
 953 1555 953 1555 1077 1497 c 128,-1,7
 1201 1439 1201 1439 1287.5 1335 c 128,-1,8
 1374 1231 1374 1231 1419.5 1088.5 c 128,-1,9
 1465 946 1465 946 1462 778 c 0,10,11
 1459 620 1459 620 1418.5 490.5 c 128,-1,12
 1378 361 1378 361 1310 262 c 128,-1,13
 1242 163 1242 163 1149 96.5 c 128,-1,14
 1056 30 1056 30 948 -1 c 1,15,16
 969 -63 969 -63 1011 -106 c 128,-1,17
 1053 -149 1053 -149 1108 -176 c 128,-1,18
 1163 -203 1163 -203 1227 -215.5 c 128,-1,19
 1291 -228 1291 -228 1356 -228 c 0,20,21
 1413 -228 1413 -228 1464 -217.5 c 128,-1,22
 1515 -207 1515 -207 1544 -187 c 1,23,-1
 1559 -285 l 1,24,25
 1549 -299 1549 -299 1526 -311.5 c 128,-1,26
 1503 -324 1503 -324 1470 -333 c 128,-1,27
 1437 -342 1437 -342 1396 -347.5 c 128,-1,28
 1355 -353 1355 -353 1309 -353 c 0,29,30
 1232 -353 1232 -353 1161.5 -335 c 128,-1,31
 1091 -317 1091 -317 1032 -277.5 c 128,-1,32
 973 -238 973 -238 929.5 -174.5 c 128,-1,33
 886 -111 886 -111 863 -19 c 1,34,35
 818 -27 818 -27 770 -28 c 0,36,37
 615 -31 615 -31 488 25.5 c 128,-1,38
 361 82 361 82 271 185.5 c 128,-1,39
 181 289 181 289 133.5 431.5 c 128,-1,40
 86 574 86 574 89 742 c 0,0,1
251 743 m 0,41,42
 251 600 251 600 288 475 c 128,-1,43
 325 350 325 350 394.5 256 c 128,-1,44
 464 162 464 162 563 108 c 128,-1,45
 662 54 662 54 787 54 c 0,46,47
 903 54 903 54 998 105 c 128,-1,48
 1093 156 1093 156 1160 250.5 c 128,-1,49
 1227 345 1227 345 1263.5 478.5 c 128,-1,50
 1300 612 1300 612 1300 777 c 0,51,52
 1300 916 1300 916 1266.5 1041.5 c 128,-1,53
 1233 1167 1233 1167 1168 1262 c 128,-1,54
 1103 1357 1103 1357 1007 1413 c 128,-1,55
 911 1469 911 1469 787 1469 c 0,56,57
 668 1469 668 1469 569.5 1418.5 c 128,-1,58
 471 1368 471 1368 400 1273.5 c 128,-1,59
 329 1179 329 1179 290 1044.5 c 128,-1,60
 251 910 251 910 251 743 c 0,41,42
EndSplineSet
EndChar

StartChar: R
Encoding: 82 82 53
Width: 1441
GlyphClass: 2
Flags: W
LayerCount: 2
Fore
SplineSet
97 67 m 1,0,-1
 298 92 l 1,1,-1
 298 1433 l 1,2,-1
 119 1448 l 1,3,-1
 119 1531 l 1,4,-1
 369 1531 l 2,5,6
 391 1531 391 1531 424 1533 c 128,-1,7
 457 1535 457 1535 497 1537 c 128,-1,8
 537 1539 537 1539 583.5 1541 c 128,-1,9
 630 1543 630 1543 680 1543 c 0,10,11
 794 1543 794 1543 889 1526.5 c 128,-1,12
 984 1510 984 1510 1052.5 1466 c 128,-1,13
 1121 1422 1121 1422 1159 1344.5 c 128,-1,14
 1197 1267 1197 1267 1197 1146 c 0,15,16
 1197 1068 1197 1068 1172.5 999 c 128,-1,17
 1148 930 1148 930 1103 874 c 128,-1,18
 1058 818 1058 818 994.5 776.5 c 128,-1,19
 931 735 931 735 853 712 c 1,20,21
 889 697 889 697 925.5 663.5 c 128,-1,22
 962 630 962 630 997.5 584.5 c 128,-1,23
 1033 539 1033 539 1067.5 486 c 128,-1,24
 1102 433 1102 433 1134.5 379 c 128,-1,25
 1167 325 1167 325 1196.5 274.5 c 128,-1,26
 1226 224 1226 224 1252 184.5 c 128,-1,27
 1278 145 1278 145 1300.5 119.5 c 128,-1,28
 1323 94 1323 94 1340 91 c 2,29,-1
 1459 67 l 1,30,-1
 1459 0 l 1,31,-1
 1207 0 l 2,32,33
 1190 0 1190 0 1167 30 c 128,-1,34
 1144 60 1144 60 1115.5 109 c 128,-1,35
 1087 158 1087 158 1054.5 220.5 c 128,-1,36
 1022 283 1022 283 986.5 347.5 c 128,-1,37
 951 412 951 412 912 474 c 128,-1,38
 873 536 873 536 832.5 584 c 128,-1,39
 792 632 792 632 750.5 660 c 128,-1,40
 709 688 709 688 667 686 c 1,41,42
 641 686 641 686 608 686 c 128,-1,43
 575 686 575 686 543 686.5 c 128,-1,44
 511 687 511 687 484.5 687.5 c 128,-1,45
 458 688 458 688 446 688 c 1,46,-1
 446 91 l 1,47,-1
 662 67 l 1,48,-1
 662 0 l 1,49,-1
 97 0 l 1,50,-1
 97 67 l 1,0,-1
446 776 m 1,51,52
 463 774 463 774 494 772.5 c 128,-1,53
 525 771 525 771 559.5 770 c 128,-1,54
 594 769 594 769 626 769 c 128,-1,55
 658 769 658 769 677 769 c 0,56,57
 768 770 768 770 836.5 795 c 128,-1,58
 905 820 905 820 951 866.5 c 128,-1,59
 997 913 997 913 1020.5 979 c 128,-1,60
 1044 1045 1044 1045 1044 1128 c 0,61,62
 1044 1214 1044 1214 1023 1278.5 c 128,-1,63
 1002 1343 1002 1343 955.5 1384.5 c 128,-1,64
 909 1426 909 1426 834.5 1445.5 c 128,-1,65
 760 1465 760 1465 652 1461 c 0,66,67
 628 1460 628 1460 600 1459.5 c 128,-1,68
 572 1459 572 1459 544.5 1457.5 c 128,-1,69
 517 1456 517 1456 491.5 1453.5 c 128,-1,70
 466 1451 466 1451 446 1445 c 1,71,-1
 446 776 l 1,51,52
EndSplineSet
EndChar

StartChar: S
Encoding: 83 83 54
Width: 1221
GlyphClass: 2
Flags: W
LayerCount: 2
Fore
SplineSet
124 362 m 1,0,-1
 196 362 l 1,1,-1
 244 158 l 1,2,3
 275 128 275 128 318 108.5 c 128,-1,4
 361 89 361 89 408.5 77.5 c 128,-1,5
 456 66 456 66 505.5 61.5 c 128,-1,6
 555 57 555 57 599 57 c 0,7,8
 663 57 663 57 727 73 c 128,-1,9
 791 89 791 89 842 124.5 c 128,-1,10
 893 160 893 160 925 216.5 c 128,-1,11
 957 273 957 273 957 354 c 0,12,13
 957 424 957 424 923 477.5 c 128,-1,14
 889 531 889 531 833.5 575 c 128,-1,15
 778 619 778 619 706.5 656.5 c 128,-1,16
 635 694 635 694 560 730 c 0,17,18
 483 768 483 768 408.5 808.5 c 128,-1,19
 334 849 334 849 275.5 899 c 128,-1,20
 217 949 217 949 181 1012.5 c 128,-1,21
 145 1076 145 1076 145 1160 c 0,22,23
 145 1230 145 1230 168 1286 c 128,-1,24
 191 1342 191 1342 229.5 1385 c 128,-1,25
 268 1428 268 1428 318.5 1459 c 128,-1,26
 369 1490 369 1490 424 1509.5 c 128,-1,27
 479 1529 479 1529 534 1538 c 128,-1,28
 589 1547 589 1547 637 1547 c 0,29,30
 714 1547 714 1547 775.5 1539.5 c 128,-1,31
 837 1532 837 1532 884.5 1520 c 128,-1,32
 932 1508 932 1508 966 1494 c 128,-1,33
 1000 1480 1000 1480 1022 1467 c 1,34,-1
 1022 1200 l 1,35,-1
 953 1200 l 1,36,-1
 895 1400 l 1,37,38
 873 1419 873 1419 843 1432 c 128,-1,39
 813 1445 813 1445 778 1453.5 c 128,-1,40
 743 1462 743 1462 704 1465.5 c 128,-1,41
 665 1469 665 1469 625 1469 c 0,42,43
 592 1469 592 1469 554 1462.5 c 128,-1,44
 516 1456 516 1456 478 1442 c 128,-1,45
 440 1428 440 1428 404.5 1406 c 128,-1,46
 369 1384 369 1384 342 1352.5 c 128,-1,47
 315 1321 315 1321 299 1279.5 c 128,-1,48
 283 1238 283 1238 283 1185 c 0,49,50
 283 1119 283 1119 315.5 1068 c 128,-1,51
 348 1017 348 1017 402 975.5 c 128,-1,52
 456 934 456 934 525 899 c 128,-1,53
 594 864 594 864 667 829 c 0,54,55
 746 792 746 792 822.5 751.5 c 128,-1,56
 899 711 899 711 960 660.5 c 128,-1,57
 1021 610 1021 610 1058.5 545.5 c 128,-1,58
 1096 481 1096 481 1096 396 c 0,59,60
 1096 286 1096 286 1054 207 c 128,-1,61
 1012 128 1012 128 941 77 c 128,-1,62
 870 26 870 26 776.5 1.5 c 128,-1,63
 683 -23 683 -23 580 -23 c 0,64,65
 505 -23 505 -23 432.5 -14.5 c 128,-1,66
 360 -6 360 -6 298.5 7 c 128,-1,67
 237 20 237 20 191 35 c 128,-1,68
 145 50 145 50 124 63 c 1,69,-1
 124 362 l 1,0,-1
EndSplineSet
EndChar

StartChar: T
Encoding: 84 84 55
Width: 1270
GlyphClass: 2
Flags: W
LayerCount: 2
Fore
SplineSet
312 67 m 1,0,-1
 573 92 l 1,1,-1
 573 1447 l 1,2,-1
 162 1430 l 1,3,-1
 101 1229 l 1,4,-1
 30 1227 l 1,5,-1
 55 1531 l 1,6,-1
 1246 1531 l 1,7,-1
 1244 1224 l 1,8,-1
 1178 1215 l 1,9,-1
 1138 1431 l 1,10,-1
 721 1448 l 1,11,-1
 721 92 l 1,12,-1
 998 67 l 1,13,-1
 998 0 l 1,14,-1
 312 0 l 1,15,-1
 312 67 l 1,0,-1
EndSplineSet
EndChar

StartChar: U
Encoding: 85 85 56
Width: 1640
GlyphClass: 2
Flags: W
LayerCount: 2
Fore
SplineSet
233 1440 m 1,0,-1
 79 1455 l 1,1,-1
 79 1531 l 1,2,-1
 554 1531 l 1,3,-1
 554 1455 l 1,4,-1
 381 1439 l 1,5,-1
 381 638 l 2,6,7
 381 465 381 465 416 351.5 c 128,-1,8
 451 238 451 238 514 171.5 c 128,-1,9
 577 105 577 105 665 78.5 c 128,-1,10
 753 52 753 52 859 52 c 0,11,12
 973 52 973 52 1054.5 92.5 c 128,-1,13
 1136 133 1136 133 1188.5 211 c 128,-1,14
 1241 289 1241 289 1265.5 402 c 128,-1,15
 1290 515 1290 515 1290 659 c 2,16,-1
 1289 1438 l 1,17,-1
 1115 1455 l 1,18,-1
 1115 1531 l 1,19,-1
 1559 1531 l 1,20,-1
 1559 1455 l 1,21,-1
 1403 1439 l 1,22,-1
 1402 660 l 2,23,24
 1402 474 1402 474 1362 343.5 c 128,-1,25
 1322 213 1322 213 1248 130.5 c 128,-1,26
 1174 48 1174 48 1069 10 c 128,-1,27
 964 -28 964 -28 833 -28 c 0,28,29
 671 -28 671 -28 557 13 c 128,-1,30
 443 54 443 54 371 137.5 c 128,-1,31
 299 221 299 221 266 347 c 128,-1,32
 233 473 233 473 233 643 c 2,33,-1
 233 1440 l 1,0,-1
EndSplineSet
EndChar

StartChar: V
Encoding: 86 86 57
Width: 1456
GlyphClass: 2
Flags: W
LayerCount: 2
Fore
SplineSet
145 1441 m 1,0,-1
 6 1455 l 1,1,-1
 6 1531 l 1,2,-1
 512 1531 l 1,3,-1
 512 1454 l 1,4,-1
 314 1440 l 1,5,-1
 706 337 l 1,6,-1
 765 149 l 1,7,-1
 821 343 l 1,8,-1
 1158 1440 l 1,9,-1
 994 1455 l 1,10,-1
 994 1530 l 1,11,-1
 1449 1530 l 1,12,-1
 1449 1455 l 1,13,-1
 1286 1439 l 1,14,-1
 798 -20 l 1,15,-1
 690 -20 l 1,16,-1
 145 1441 l 1,0,-1
EndSplineSet
EndChar

StartChar: W
Encoding: 87 87 58
Width: 2123
GlyphClass: 2
Flags: W
LayerCount: 2
Fore
SplineSet
153 1440 m 1,0,-1
 16 1454 l 1,1,-1
 16 1531 l 1,2,-1
 514 1531 l 1,3,-1
 514 1454 l 1,4,-1
 316 1440 l 1,5,-1
 669 341 l 1,6,-1
 727 155 l 1,7,-1
 783 333 l 1,8,-1
 1022 1268 l 1,9,-1
 969 1441 l 1,10,-1
 805 1454 l 1,11,-1
 805 1531 l 1,12,-1
 1316 1531 l 1,13,-1
 1316 1454 l 1,14,-1
 1127 1441 l 1,15,-1
 1429 328 l 1,16,-1
 1475 150 l 1,17,-1
 1521 353 l 1,18,-1
 1816 1440 l 1,19,-1
 1634 1454 l 1,20,-1
 1634 1531 l 1,21,-1
 2100 1531 l 1,22,-1
 2100 1454 l 1,23,-1
 1941 1440 l 1,24,-1
 1511 -20 l 1,25,-1
 1392 -20 l 1,26,-1
 1079 1070 l 1,27,-1
 779 -20 l 1,28,-1
 653 -20 l 1,29,-1
 153 1440 l 1,0,-1
EndSplineSet
EndChar

StartChar: X
Encoding: 88 88 59
Width: 1468
GlyphClass: 2
Flags: W
LayerCount: 2
Fore
SplineSet
49 67 m 1,0,-1
 227 90 l 1,1,-1
 667 774 l 1,2,-1
 257 1441 l 1,3,-1
 99 1455 l 1,4,-1
 99 1531 l 1,5,-1
 628 1531 l 1,6,-1
 628 1454 l 1,7,-1
 436 1440 l 1,8,-1
 764 862 l 1,9,-1
 1116 1441 l 1,10,-1
 945 1455 l 1,11,-1
 945 1531 l 1,12,-1
 1401 1531 l 1,13,-1
 1401 1455 l 1,14,-1
 1253 1441 l 1,15,-1
 819 804 l 1,16,-1
 1249 91 l 1,17,-1
 1428 67 l 1,18,-1
 1428 0 l 1,19,-1
 880 0 l 1,20,-1
 880 68 l 1,21,-1
 1081 91 l 1,22,-1
 720 703 l 1,23,-1
 368 90 l 1,24,-1
 569 67 l 1,25,-1
 569 0 l 1,26,-1
 49 0 l 1,27,-1
 49 67 l 1,0,-1
EndSplineSet
EndChar

StartChar: Y
Encoding: 89 89 60
Width: 1312
GlyphClass: 2
Flags: W
LayerCount: 2
Fore
SplineSet
386 67 m 1,0,-1
 589 91 l 1,1,-1
 589 642 l 1,2,-1
 118 1439 l 1,3,-1
 -11 1455 l 1,4,-1
 -11 1531 l 1,5,-1
 455 1531 l 1,6,-1
 455 1454 l 1,7,-1
 288 1440 l 1,8,-1
 632 828 l 1,9,-1
 679 702 l 1,10,-1
 731 821 l 1,11,-1
 1057 1440 l 1,12,-1
 896 1455 l 1,13,-1
 896 1531 l 1,14,-1
 1323 1531 l 1,15,-1
 1323 1455 l 1,16,-1
 1185 1432 l 1,17,-1
 736 635 l 1,18,-1
 736 91 l 1,19,-1
 947 67 l 1,20,-1
 947 0 l 1,21,-1
 386 0 l 1,22,-1
 386 67 l 1,0,-1
EndSplineSet
EndChar

StartChar: Z
Encoding: 90 90 61
Width: 1427
GlyphClass: 2
Flags: W
LayerCount: 2
Fore
SplineSet
992 1302 m 1,0,-1
 1121 1445 l 1,1,-1
 316 1426 l 1,2,-1
 240 1205 l 1,3,-1
 158 1219 l 1,4,-1
 186 1531 l 1,5,-1
 1263 1531 l 1,6,-1
 1286 1464 l 1,7,-1
 393 215 l 1,8,-1
 292 88 l 1,9,-1
 1104 113 l 1,10,-1
 1238 353 l 1,11,-1
 1316 334 l 1,12,-1
 1231 0 l 1,13,-1
 128 0 l 1,14,-1
 104 69 l 1,15,-1
 992 1302 l 1,0,-1
EndSplineSet
EndChar

StartChar: bracketleft
Encoding: 91 91 62
Width: 889
GlyphClass: 2
Flags: W
LayerCount: 2
Fore
SplineSet
203 1486 m 2,0,1
 203 1555 203 1555 209 1598 c 128,-1,2
 215 1641 215 1641 233 1665 c 128,-1,3
 251 1689 251 1689 283 1697.5 c 128,-1,4
 315 1706 315 1706 367 1706 c 0,5,6
 434 1706 434 1706 497.5 1696 c 128,-1,7
 561 1686 561 1686 619 1673 c 1,8,-1
 618 1607 l 1,9,-1
 327 1607 l 1,10,-1
 327 -59 l 1,11,-1
 618 -60 l 1,12,-1
 619 -127 l 1,13,14
 553 -141 553 -141 486.5 -151 c 128,-1,15
 420 -161 420 -161 348 -161 c 0,16,17
 303 -161 303 -161 275 -152 c 128,-1,18
 247 -143 247 -143 231 -120 c 128,-1,19
 215 -97 215 -97 209 -57.5 c 128,-1,20
 203 -18 203 -18 203 43 c 2,21,-1
 203 1486 l 2,0,1
EndSplineSet
EndChar

StartChar: backslash
Encoding: 92 92 63
Width: 715
GlyphClass: 2
Flags: W
LayerCount: 2
Fore
SplineSet
-20 1599 m 1,0,-1
 115 1599 l 1,1,-1
 736 -363 l 1,2,-1
 601 -363 l 1,3,-1
 -20 1599 l 1,0,-1
EndSplineSet
EndChar

StartChar: bracketright
Encoding: 93 93 64
Width: 889
GlyphClass: 2
Flags: W
LayerCount: 2
Fore
SplineSet
562 -59 m 1,0,-1
 562 1607 l 1,1,-1
 272 1607 l 1,2,-1
 271 1675 l 1,3,4
 337 1689 337 1689 403 1699 c 128,-1,5
 469 1709 469 1709 541 1709 c 0,6,7
 586 1709 586 1709 614.5 1700 c 128,-1,8
 643 1691 643 1691 659 1668 c 128,-1,9
 675 1645 675 1645 681 1605.5 c 128,-1,10
 687 1566 687 1566 687 1505 c 2,11,-1
 687 59 l 2,12,13
 687 -10 687 -10 681 -52.5 c 128,-1,14
 675 -95 675 -95 657 -118.5 c 128,-1,15
 639 -142 639 -142 606.5 -150.5 c 128,-1,16
 574 -159 574 -159 522 -159 c 0,17,18
 455 -159 455 -159 391.5 -148.5 c 128,-1,19
 328 -138 328 -138 270 -125 c 1,20,-1
 271 -59 l 1,21,-1
 562 -59 l 1,0,-1
EndSplineSet
EndChar

StartChar: asciicircum
Encoding: 94 94 65
Width: 1247
GlyphClass: 2
Flags: W
LayerCount: 2
Fore
SplineSet
544 1531 m 1,0,-1
 692 1531 l 1,1,-1
 1092 564 l 1,2,-1
 957 563 l 1,3,-1
 612 1380 l 1,4,-1
 269 563 l 1,5,-1
 148 564 l 1,6,-1
 544 1531 l 1,0,-1
EndSplineSet
EndChar

StartChar: underscore
Encoding: 95 95 66
Width: 1063
GlyphClass: 2
Flags: W
LayerCount: 2
Fore
SplineSet
1083 -192 m 1,0,-1
 1083 -304 l 1,1,-1
 -20 -304 l 1,2,-1
 -20 -192 l 1,3,-1
 1083 -192 l 1,0,-1
EndSplineSet
EndChar

StartChar: grave
Encoding: 96 96 67
Width: 740
GlyphClass: 2
Flags: W
LayerCount: 2
Fore
SplineSet
481 1343 m 1,0,1
 435 1374 435 1374 376.5 1417 c 128,-1,2
 318 1460 318 1460 261.5 1507 c 128,-1,3
 205 1554 205 1554 157 1600.5 c 128,-1,4
 109 1647 109 1647 84 1685 c 1,5,-1
 190 1793 l 1,6,-1
 523 1386 l 1,7,-1
 481 1343 l 1,8,-1
 481 1343 l 1,0,1
EndSplineSet
EndChar

StartChar: a
Encoding: 97 97 68
Width: 1107
GlyphClass: 2
Flags: W
LayerCount: 2
Fore
SplineSet
97 312 m 1,0,1
 103 381 103 381 139 434 c 128,-1,2
 175 487 175 487 231 526 c 128,-1,3
 287 565 287 565 357 592 c 128,-1,4
 427 619 427 619 501.5 635 c 128,-1,5
 576 651 576 651 649.5 658 c 128,-1,6
 723 665 723 665 786 665 c 1,7,-1
 786 753 l 2,8,9
 786 837 786 837 766 892 c 128,-1,10
 746 947 746 947 708 979.5 c 128,-1,11
 670 1012 670 1012 615.5 1025 c 128,-1,12
 561 1038 561 1038 492 1038 c 0,13,14
 454 1038 454 1038 411.5 1030.5 c 128,-1,15
 369 1023 369 1023 328 1011 c 128,-1,16
 287 999 287 999 249.5 983.5 c 128,-1,17
 212 968 212 968 184 951 c 1,18,-1
 154 1023 l 1,19,20
 191 1053 191 1053 242.5 1075 c 128,-1,21
 294 1097 294 1097 348 1111.5 c 128,-1,22
 402 1126 402 1126 453 1132.5 c 128,-1,23
 504 1139 504 1139 542 1139 c 0,24,25
 621 1139 621 1139 692 1123 c 128,-1,26
 763 1107 763 1107 816 1066 c 128,-1,27
 869 1025 869 1025 899.5 954 c 128,-1,28
 930 883 930 883 930 773 c 2,29,-1
 929 71 l 1,30,-1
 1061 71 l 1,31,-1
 1061 16 l 1,32,33
 1032 2 1032 2 986 -7.5 c 128,-1,34
 940 -17 940 -17 888 -17 c 0,35,36
 871 -17 871 -17 854 -14.5 c 128,-1,37
 837 -12 837 -12 823.5 -2.5 c 128,-1,38
 810 7 810 7 802 26.5 c 128,-1,39
 794 46 794 46 794 80 c 2,40,-1
 795 122 l 1,41,42
 766 90 766 90 729 63.5 c 128,-1,43
 692 37 692 37 646 18 c 128,-1,44
 600 -1 600 -1 544.5 -11.5 c 128,-1,45
 489 -22 489 -22 422 -22 c 0,46,47
 351 -22 351 -22 289.5 0.5 c 128,-1,48
 228 23 228 23 183.5 66 c 128,-1,49
 139 109 139 109 115.5 171 c 128,-1,50
 92 233 92 233 97 312 c 1,0,1
243 309 m 0,51,52
 242 247 242 247 262.5 203 c 128,-1,53
 283 159 283 159 319 130.5 c 128,-1,54
 355 102 355 102 403.5 88.5 c 128,-1,55
 452 75 452 75 506 75 c 256,56,57
 560 75 560 75 605.5 87 c 128,-1,58
 651 99 651 99 686.5 116 c 128,-1,59
 722 133 722 133 746.5 151 c 128,-1,60
 771 169 771 169 785 181 c 1,61,-1
 786 584 l 1,62,63
 731 584 731 584 670 579 c 128,-1,64
 609 574 609 574 549 561.5 c 128,-1,65
 489 549 489 549 433.5 528.5 c 128,-1,66
 378 508 378 508 336 477.5 c 128,-1,67
 294 447 294 447 268.5 405 c 128,-1,68
 243 363 243 363 243 309 c 0,51,52
EndSplineSet
EndChar

StartChar: b
Encoding: 98 98 69
Width: 1272
GlyphClass: 2
Flags: W
LayerCount: 2
Fore
SplineSet
221 1501 m 1,0,-1
 50 1525 l 1,1,-1
 50 1593 l 1,2,-1
 330 1623 l 1,3,-1
 364 1606 l 1,4,-1
 364 1021 l 1,5,6
 391 1046 391 1046 429 1070 c 128,-1,7
 467 1094 467 1094 512.5 1112.5 c 128,-1,8
 558 1131 558 1131 610.5 1142 c 128,-1,9
 663 1153 663 1153 718 1153 c 0,10,11
 803 1153 803 1153 883.5 1123.5 c 128,-1,12
 964 1094 964 1094 1026 1028.5 c 128,-1,13
 1088 963 1088 963 1126 859 c 128,-1,14
 1164 755 1164 755 1164 605 c 0,15,16
 1164 473 1164 473 1123 358 c 128,-1,17
 1082 243 1082 243 1007.5 157 c 128,-1,18
 933 71 933 71 828.5 21.5 c 128,-1,19
 724 -28 724 -28 598 -28 c 0,20,21
 527 -28 527 -28 463.5 -20 c 128,-1,22
 400 -12 400 -12 349.5 0 c 128,-1,23
 299 12 299 12 265 25.5 c 128,-1,24
 231 39 231 39 221 50 c 1,25,-1
 221 1501 l 1,0,-1
364 134 m 1,26,27
 372 113 372 113 396 98 c 128,-1,28
 420 83 420 83 454.5 73.5 c 128,-1,29
 489 64 489 64 531 59.5 c 128,-1,30
 573 55 573 55 616 55 c 0,31,32
 692 55 692 55 764.5 86.5 c 128,-1,33
 837 118 837 118 893.5 182 c 128,-1,34
 950 246 950 246 984.5 342.5 c 128,-1,35
 1019 439 1019 439 1021 570 c 1,36,37
 1022 702 1022 702 992 793 c 128,-1,38
 962 884 962 884 911.5 940.5 c 128,-1,39
 861 997 861 997 795.5 1022 c 128,-1,40
 730 1047 730 1047 660 1047 c 0,41,42
 617 1047 617 1047 574.5 1038.5 c 128,-1,43
 532 1030 532 1030 493.5 1015.5 c 128,-1,44
 455 1001 455 1001 421.5 981 c 128,-1,45
 388 961 388 961 364 938 c 1,46,-1
 364 134 l 1,26,27
EndSplineSet
EndChar

StartChar: c
Encoding: 99 99 70
Width: 1041
GlyphClass: 2
Flags: W
LayerCount: 2
Fore
SplineSet
84 538 m 0,0,1
 83 676 83 676 125.5 787 c 128,-1,2
 168 898 168 898 242 977 c 128,-1,3
 316 1056 316 1056 416 1100 c 128,-1,4
 516 1144 516 1144 631 1149 c 0,5,6
 672 1150 672 1150 715 1147.5 c 128,-1,7
 758 1145 758 1145 796.5 1138.5 c 128,-1,8
 835 1132 835 1132 866.5 1122 c 128,-1,9
 898 1112 898 1112 918 1099 c 1,10,-1
 918 885 l 1,11,-1
 844 885 l 1,12,-1
 803 1014 l 1,13,14
 769 1040 769 1040 720 1050 c 128,-1,15
 671 1060 671 1060 620 1060 c 0,16,17
 542 1060 542 1060 470.5 1030.5 c 128,-1,18
 399 1001 399 1001 344 943.5 c 128,-1,19
 289 886 289 886 256.5 801.5 c 128,-1,20
 224 717 224 717 223 607 c 0,21,22
 222 464 222 464 256.5 364.5 c 128,-1,23
 291 265 291 265 348 203 c 128,-1,24
 405 141 405 141 476.5 112.5 c 128,-1,25
 548 84 548 84 621 84 c 0,26,27
 655 84 655 84 695 89 c 128,-1,28
 735 94 735 94 775 104 c 128,-1,29
 815 114 815 114 850 128 c 128,-1,30
 885 142 885 142 909 160 c 1,31,-1
 936 88 l 1,32,33
 907 62 907 62 865 42 c 128,-1,34
 823 22 823 22 773.5 8 c 128,-1,35
 724 -6 724 -6 668.5 -13.5 c 128,-1,36
 613 -21 613 -21 556 -21 c 0,37,38
 444 -21 444 -21 356.5 21 c 128,-1,39
 269 63 269 63 209 138 c 128,-1,40
 149 213 149 213 117 315.5 c 128,-1,41
 85 418 85 418 84 538 c 0,0,1
EndSplineSet
EndChar

StartChar: d
Encoding: 100 100 71
Width: 1272
GlyphClass: 2
Flags: W
LayerCount: 2
Fore
SplineSet
550 -24 m 0,0,1
 462 -24 462 -24 382 9 c 128,-1,2
 302 42 302 42 241 111.5 c 128,-1,3
 180 181 180 181 144 287.5 c 128,-1,4
 108 394 108 394 108 541 c 0,5,6
 108 675 108 675 153 787.5 c 128,-1,7
 198 900 198 900 275.5 981 c 128,-1,8
 353 1062 353 1062 457.5 1107.5 c 128,-1,9
 562 1153 562 1153 681 1153 c 0,10,11
 726 1153 726 1153 761 1148.5 c 128,-1,12
 796 1144 796 1144 823.5 1137 c 128,-1,13
 851 1130 851 1130 871.5 1122.5 c 128,-1,14
 892 1115 892 1115 908 1109 c 1,15,-1
 908 1497 l 1,16,-1
 703 1521 l 1,17,-1
 703 1590 l 1,18,-1
 1013 1622 l 1,19,-1
 1051 1602 l 1,20,-1
 1051 71 l 1,21,-1
 1187 71 l 1,22,-1
 1187 10 l 1,23,24
 1171 3 1171 3 1148 -3 c 128,-1,25
 1125 -9 1125 -9 1100 -13.5 c 128,-1,26
 1075 -18 1075 -18 1050 -20.5 c 128,-1,27
 1025 -23 1025 -23 1005 -23 c 0,28,29
 986 -23 986 -23 969.5 -20.5 c 128,-1,30
 953 -18 953 -18 940.5 -9 c 128,-1,31
 928 0 928 0 920.5 17.5 c 128,-1,32
 913 35 913 35 913 66 c 2,33,-1
 913 95 l 1,34,35
 893 77 893 77 860.5 56.5 c 128,-1,36
 828 36 828 36 782.5 18 c 128,-1,37
 737 0 737 0 678.5 -12 c 128,-1,38
 620 -24 620 -24 550 -24 c 0,0,1
605 80 m 0,39,40
 666 80 666 80 714.5 90 c 128,-1,41
 763 100 763 100 800.5 115 c 128,-1,42
 838 130 838 130 864.5 148 c 128,-1,43
 891 166 891 166 908 183 c 1,44,-1
 908 983 l 1,45,46
 898 994 898 994 881.5 1008.5 c 128,-1,47
 865 1023 865 1023 837.5 1036 c 128,-1,48
 810 1049 810 1049 768 1058 c 128,-1,49
 726 1067 726 1067 665 1067 c 0,50,51
 591 1067 591 1067 518 1039 c 128,-1,52
 445 1011 445 1011 386.5 951 c 128,-1,53
 328 891 328 891 291 798 c 128,-1,54
 254 705 254 705 252 575 c 0,55,56
 250 450 250 450 277.5 357.5 c 128,-1,57
 305 265 305 265 353 203 c 128,-1,58
 401 141 401 141 466 110.5 c 128,-1,59
 531 80 531 80 605 80 c 0,39,40
EndSplineSet
EndChar

StartChar: e
Encoding: 101 101 72
Width: 1155
GlyphClass: 2
Flags: W
LayerCount: 2
Fore
SplineSet
111 556 m 0,0,1
 111 684 111 684 152 792.5 c 128,-1,2
 193 901 193 901 266.5 980.5 c 128,-1,3
 340 1060 340 1060 441 1105 c 128,-1,4
 542 1150 542 1150 662 1152 c 0,5,6
 748 1153 748 1153 818 1126 c 128,-1,7
 888 1099 888 1099 938 1046 c 128,-1,8
 988 993 988 993 1016.5 914.5 c 128,-1,9
 1045 836 1045 836 1047 736 c 0,10,11
 1049 685 1049 685 1045.5 645.5 c 128,-1,12
 1042 606 1042 606 1038 574 c 1,13,-1
 257 574 l 1,14,-1
 257 564 l 1,15,16
 255 439 255 439 287 347.5 c 128,-1,17
 319 256 319 256 374.5 196.5 c 128,-1,18
 430 137 430 137 505 108 c 128,-1,19
 580 79 580 79 664 79 c 0,20,21
 712 79 712 79 761 86 c 128,-1,22
 810 93 810 93 854 104 c 128,-1,23
 898 115 898 115 933.5 128.5 c 128,-1,24
 969 142 969 142 990 156 c 1,25,-1
 1021 88 l 1,26,27
 992 62 992 62 945.5 41 c 128,-1,28
 899 20 899 20 844 5.5 c 128,-1,29
 789 -9 789 -9 729 -16.5 c 128,-1,30
 669 -24 669 -24 612 -24 c 0,31,32
 491 -24 491 -24 397.5 17.5 c 128,-1,33
 304 59 304 59 240.5 134.5 c 128,-1,34
 177 210 177 210 144 317 c 128,-1,35
 111 424 111 424 111 556 c 0,0,1
895 664 m 1,36,37
 901 748 901 748 890.5 821.5 c 128,-1,38
 880 895 880 895 848.5 950 c 128,-1,39
 817 1005 817 1005 762.5 1037 c 128,-1,40
 708 1069 708 1069 624 1069 c 0,41,42
 555 1069 555 1069 493.5 1043.5 c 128,-1,43
 432 1018 432 1018 383 967.5 c 128,-1,44
 334 917 334 917 302 841 c 128,-1,45
 270 765 270 765 260 664 c 1,46,-1
 895 664 l 1,36,37
EndSplineSet
EndChar

StartChar: f
Encoding: 102 102 73
Width: 842
GlyphClass: 2
Flags: W
LayerCount: 2
Fore
SplineSet
123 68 m 1,0,-1
 327 85 l 1,1,-1
 327 1010 l 1,2,-1
 101 1010 l 1,3,-1
 101 1070 l 1,4,-1
 327 1114 l 1,5,-1
 327 1205 l 2,6,7
 327 1317 327 1317 364.5 1405.5 c 128,-1,8
 402 1494 402 1494 460 1555.5 c 128,-1,9
 518 1617 518 1617 588.5 1649.5 c 128,-1,10
 659 1682 659 1682 725 1682 c 0,11,12
 785 1682 785 1682 816.5 1677.5 c 128,-1,13
 848 1673 848 1673 868 1665 c 1,14,-1
 868 1536 l 1,15,16
 850 1547 850 1547 806.5 1556 c 128,-1,17
 763 1565 763 1565 696 1565 c 0,18,19
 654 1565 654 1565 613.5 1553.5 c 128,-1,20
 573 1542 573 1542 541.5 1509 c 128,-1,21
 510 1476 510 1476 490.5 1416.5 c 128,-1,22
 471 1357 471 1357 471 1260 c 2,23,-1
 471 1114 l 1,24,-1
 799 1114 l 1,25,-1
 799 1010 l 1,26,-1
 471 1010 l 1,27,-1
 471 84 l 1,28,-1
 713 68 l 1,29,-1
 713 0 l 1,30,-1
 123 0 l 1,31,-1
 123 68 l 1,0,-1
EndSplineSet
EndChar

StartChar: g
Encoding: 103 103 74
Width: 1211
GlyphClass: 2
Flags: W
LayerCount: 2
Fore
SplineSet
126 -248 m 0,0,1
 126 -194 126 -194 143.5 -147.5 c 128,-1,2
 161 -101 161 -101 187.5 -64.5 c 128,-1,3
 214 -28 214 -28 245 -1 c 128,-1,4
 276 26 276 26 303 41 c 1,5,6
 266 56 266 56 247 76.5 c 128,-1,7
 228 97 228 97 220 119 c 128,-1,8
 212 141 212 141 211.5 164 c 128,-1,9
 211 187 211 187 211 207 c 0,10,11
 211 226 211 226 219 253.5 c 128,-1,12
 227 281 227 281 242 311.5 c 128,-1,13
 257 342 257 342 278.5 373.5 c 128,-1,14
 300 405 300 405 327 432 c 1,15,16
 241 475 241 475 188.5 555 c 128,-1,17
 136 635 136 635 136 754 c 0,18,19
 136 856 136 856 174.5 932 c 128,-1,20
 213 1008 213 1008 277 1058 c 128,-1,21
 341 1108 341 1108 423 1133.5 c 128,-1,22
 505 1159 505 1159 592 1161 c 0,23,24
 675 1163 675 1163 749 1144.5 c 128,-1,25
 823 1126 823 1126 880 1084 c 1,26,27
 906 1104 906 1104 951 1118.5 c 128,-1,28
 996 1133 996 1133 1063 1133 c 2,29,-1
 1177 1133 l 1,30,-1
 1177 1019 l 1,31,32
 1172 1019 1172 1019 1148 1019 c 128,-1,33
 1124 1019 1124 1019 1091 1019 c 128,-1,34
 1058 1019 1058 1019 1019 1019.5 c 128,-1,35
 980 1020 980 1020 945 1020 c 1,36,37
 977 977 977 977 995 920 c 128,-1,38
 1013 863 1013 863 1013 791 c 0,39,40
 1013 693 1013 693 977 616.5 c 128,-1,41
 941 540 941 540 879.5 487.5 c 128,-1,42
 818 435 818 435 737.5 408 c 128,-1,43
 657 381 657 381 568 381 c 0,44,45
 465 381 465 381 378 410 c 1,46,47
 367 393 367 393 360 373 c 128,-1,48
 353 353 353 353 349 333 c 128,-1,49
 345 313 345 313 343 294.5 c 128,-1,50
 341 276 341 276 341 261 c 0,51,52
 341 220 341 220 348 194.5 c 128,-1,53
 355 169 355 169 375.5 154 c 128,-1,54
 396 139 396 139 433 133 c 128,-1,55
 470 127 470 127 530 126 c 1,56,-1
 699 126 l 2,57,58
 793 126 793 126 860.5 112.5 c 128,-1,59
 928 99 928 99 975.5 76.5 c 128,-1,60
 1023 54 1023 54 1052 24.5 c 128,-1,61
 1081 -5 1081 -5 1097.5 -37 c 128,-1,62
 1114 -69 1114 -69 1119.5 -101.5 c 128,-1,63
 1125 -134 1125 -134 1125 -163 c 0,64,65
 1125 -249 1125 -249 1089 -317 c 128,-1,66
 1053 -385 1053 -385 987 -432.5 c 128,-1,67
 921 -480 921 -480 827.5 -505.5 c 128,-1,68
 734 -531 734 -531 619 -531 c 0,69,70
 517 -531 517 -531 427 -515 c 128,-1,71
 337 -499 337 -499 270 -464.5 c 128,-1,72
 203 -430 203 -430 164.5 -376.5 c 128,-1,73
 126 -323 126 -323 126 -248 c 0,0,1
594 465 m 0,74,75
 723 465 723 465 797 539 c 128,-1,76
 871 613 871 613 871 765 c 0,77,78
 871 927 871 927 794 1003 c 128,-1,79
 717 1079 717 1079 568 1079 c 0,80,81
 510 1079 510 1079 457.5 1063 c 128,-1,82
 405 1047 405 1047 365 1011 c 128,-1,83
 325 975 325 975 301 918 c 128,-1,84
 277 861 277 861 277 779 c 0,85,86
 277 711 277 711 296 653.5 c 128,-1,87
 315 596 315 596 354 554 c 128,-1,88
 393 512 393 512 452.5 488.5 c 128,-1,89
 512 465 512 465 594 465 c 0,74,75
266 -206 m 0,90,91
 266 -257 266 -257 283.5 -294 c 128,-1,92
 301 -331 301 -331 330.5 -357.5 c 128,-1,93
 360 -384 360 -384 398.5 -400.5 c 128,-1,94
 437 -417 437 -417 478.5 -426.5 c 128,-1,95
 520 -436 520 -436 562 -439.5 c 128,-1,96
 604 -443 604 -443 640 -443 c 0,97,98
 719 -443 719 -443 786 -429 c 128,-1,99
 853 -415 853 -415 902 -385.5 c 128,-1,100
 951 -356 951 -356 978.5 -310.5 c 128,-1,101
 1006 -265 1006 -265 1006 -201 c 0,102,103
 1006 -165 1006 -165 996.5 -131 c 128,-1,104
 987 -97 987 -97 955.5 -69 c 128,-1,105
 924 -41 924 -41 865 -21.5 c 128,-1,106
 806 -2 806 -2 708 4 c 1,107,-1
 540 7 l 1,108,109
 478 7 478 7 431.5 12 c 128,-1,110
 385 17 385 17 350 25 c 1,111,112
 317 -10 317 -10 291.5 -66 c 128,-1,113
 266 -122 266 -122 266 -206 c 0,90,91
EndSplineSet
EndChar

StartChar: h
Encoding: 104 104 75
Width: 1386
GlyphClass: 2
Flags: W
LayerCount: 2
Fore
SplineSet
123 68 m 1,0,-1
 275 85 l 1,1,-1
 275 1497 l 1,2,-1
 104 1521 l 1,3,-1
 104 1589 l 1,4,-1
 379 1623 l 1,5,-1
 418 1602 l 1,6,-1
 418 1188 l 1,7,-1
 414 983 l 1,8,9
 458 1017 458 1017 512.5 1046.5 c 128,-1,10
 567 1076 567 1076 623.5 1097 c 128,-1,11
 680 1118 680 1118 733 1130 c 128,-1,12
 786 1142 786 1142 827 1142 c 0,13,14
 929 1142 929 1142 995 1113 c 128,-1,15
 1061 1084 1061 1084 1100 1020 c 128,-1,16
 1139 956 1139 956 1154 854 c 128,-1,17
 1169 752 1169 752 1168 607 c 1,18,-1
 1168 85 l 1,19,-1
 1324 68 l 1,20,-1
 1324 0 l 1,21,-1
 859 -1 l 1,22,-1
 859 68 l 1,23,-1
 1025 85 l 1,24,-1
 1025 549 l 2,25,26
 1025 678 1025 678 1015.5 769.5 c 128,-1,27
 1006 861 1006 861 977.5 919 c 128,-1,28
 949 977 949 977 898 1004 c 128,-1,29
 847 1031 847 1031 764 1031 c 0,30,31
 727 1031 727 1031 681.5 1023 c 128,-1,32
 636 1015 636 1015 589 1001 c 128,-1,33
 542 987 542 987 497.5 966.5 c 128,-1,34
 453 946 453 946 418 921 c 1,35,-1
 418 85 l 1,36,-1
 575 68 l 1,37,-1
 575 0 l 1,38,-1
 123 0 l 1,39,-1
 123 68 l 1,0,-1
EndSplineSet
EndChar

StartChar: i
Encoding: 105 105 76
Width: 665
GlyphClass: 2
Flags: W
LayerCount: 2
Fore
SplineSet
322 1435 m 0,0,1
 303 1435 303 1435 285 1441.5 c 128,-1,2
 267 1448 267 1448 253.5 1460.5 c 128,-1,3
 240 1473 240 1473 231.5 1491 c 128,-1,4
 223 1509 223 1509 223 1532 c 0,5,6
 223 1556 223 1556 233.5 1577 c 128,-1,7
 244 1598 244 1598 261 1613.5 c 128,-1,8
 278 1629 278 1629 298.5 1638 c 128,-1,9
 319 1647 319 1647 340 1647 c 0,10,11
 392 1647 392 1647 416 1618 c 128,-1,12
 440 1589 440 1589 440 1549 c 0,13,14
 440 1523 440 1523 430 1502 c 128,-1,15
 420 1481 420 1481 403.5 1466 c 128,-1,16
 387 1451 387 1451 365.5 1443 c 128,-1,17
 344 1435 344 1435 322 1435 c 0,0,1
123 68 m 1,18,-1
 288 84 l 1,19,-1
 288 972 l 1,20,-1
 144 1021 l 1,21,-1
 144 1073 l 1,22,-1
 388 1133 l 1,23,-1
 426 1114 l 1,24,-1
 426 85 l 1,25,-1
 593 68 l 1,26,-1
 593 0 l 1,27,-1
 123 0 l 1,28,-1
 123 68 l 1,18,-1
EndSplineSet
EndChar

StartChar: j
Encoding: 106 106 77
Width: 656
GlyphClass: 2
Flags: W
LayerCount: 2
Fore
SplineSet
332 1408 m 0,0,1
 313 1408 313 1408 295 1414.5 c 128,-1,2
 277 1421 277 1421 263.5 1433.5 c 128,-1,3
 250 1446 250 1446 241.5 1464 c 128,-1,4
 233 1482 233 1482 233 1505 c 0,5,6
 233 1529 233 1529 243.5 1550 c 128,-1,7
 254 1571 254 1571 270.5 1586.5 c 128,-1,8
 287 1602 287 1602 308 1611 c 128,-1,9
 329 1620 329 1620 350 1620 c 0,10,11
 402 1620 402 1620 426 1591 c 128,-1,12
 450 1562 450 1562 450 1522 c 0,13,14
 450 1496 450 1496 440 1475 c 128,-1,15
 430 1454 430 1454 413.5 1439 c 128,-1,16
 397 1424 397 1424 375.5 1416 c 128,-1,17
 354 1408 354 1408 332 1408 c 0,0,1
298 972 m 1,18,-1
 147 1021 l 1,19,-1
 147 1072 l 1,20,-1
 400 1132 l 1,21,-1
 439 1114 l 1,22,-1
 439 -16 l 2,23,24
 439 -133 439 -133 416 -225.5 c 128,-1,25
 393 -318 393 -318 349 -382.5 c 128,-1,26
 305 -447 305 -447 241 -481 c 128,-1,27
 177 -515 177 -515 94 -515 c 0,28,29
 84 -515 84 -515 67 -514 c 128,-1,30
 50 -513 50 -513 33.5 -511 c 128,-1,31
 17 -509 17 -509 3 -506 c 128,-1,32
 -11 -503 -11 -503 -15 -500 c 1,33,-1
 -15 -382 l 1,34,35
 -7 -385 -7 -385 8 -387 c 128,-1,36
 23 -389 23 -389 39.5 -390.5 c 128,-1,37
 56 -392 56 -392 71 -392.5 c 128,-1,38
 86 -393 86 -393 95 -393 c 0,39,40
 143 -393 143 -393 181 -379.5 c 128,-1,41
 219 -366 219 -366 245 -324.5 c 128,-1,42
 271 -283 271 -283 284.5 -206 c 128,-1,43
 298 -129 298 -129 298 -2 c 2,44,-1
 298 972 l 1,18,-1
EndSplineSet
EndChar

StartChar: k
Encoding: 107 107 78
Width: 1275
GlyphClass: 2
Flags: W
LayerCount: 2
Fore
SplineSet
115 68 m 1,0,-1
 278 86 l 1,1,-1
 278 1497 l 1,2,-1
 101 1521 l 1,3,-1
 101 1589 l 1,4,-1
 387 1623 l 1,5,-1
 421 1602 l 1,6,-1
 421 834 l 1,7,-1
 417 525 l 1,8,-1
 924 1035 l 1,9,-1
 773 1048 l 1,10,-1
 773 1129 l 1,11,-1
 1209 1129 l 1,12,-1
 1209 1048 l 1,13,-1
 1056 1034 l 1,14,-1
 687 678 l 1,15,-1
 1124 85 l 1,16,-1
 1272 67 l 1,17,-1
 1272 0 l 1,18,-1
 817 0 l 1,19,-1
 817 67 l 1,20,-1
 964 86 l 1,21,-1
 600 605 l 1,22,-1
 417 432 l 1,23,-1
 421 196 l 1,24,-1
 421 85 l 1,25,-1
 576 68 l 1,26,-1
 576 0 l 1,27,-1
 115 0 l 1,28,-1
 115 68 l 1,0,-1
EndSplineSet
EndChar

StartChar: l
Encoding: 108 108 79
Width: 665
GlyphClass: 2
Flags: W
LayerCount: 2
Fore
SplineSet
128 68 m 1,0,-1
 295 85 l 1,1,-1
 295 1497 l 1,2,-1
 132 1521 l 1,3,-1
 132 1589 l 1,4,-1
 404 1623 l 1,5,-1
 439 1602 l 1,6,-1
 439 84 l 1,7,-1
 614 68 l 1,8,-1
 614 0 l 1,9,-1
 128 0 l 1,10,-1
 128 68 l 1,0,-1
EndSplineSet
EndChar

StartChar: m
Encoding: 109 109 80
Width: 2070
GlyphClass: 2
Flags: W
LayerCount: 2
Fore
SplineSet
136 67 m 1,0,-1
 278 85 l 1,1,-1
 278 969 l 1,2,-1
 131 1021 l 1,3,-1
 131 1073 l 1,4,-1
 369 1133 l 1,5,-1
 405 1114 l 1,6,-1
 405 976 l 1,7,8
 440 1004 440 1004 490.5 1032.5 c 128,-1,9
 541 1061 541 1061 598 1084.5 c 128,-1,10
 655 1108 655 1108 714 1123 c 128,-1,11
 773 1138 773 1138 825 1139 c 0,12,13
 933 1141 933 1141 998 1108 c 128,-1,14
 1063 1075 1063 1075 1098 999 c 1,15,16
 1131 1024 1131 1024 1181 1048.5 c 128,-1,17
 1231 1073 1231 1073 1287 1092.5 c 128,-1,18
 1343 1112 1343 1112 1400.5 1124.5 c 128,-1,19
 1458 1137 1458 1137 1507 1139 c 0,20,21
 1600 1142 1600 1142 1664 1118 c 128,-1,22
 1728 1094 1728 1094 1767.5 1037 c 128,-1,23
 1807 980 1807 980 1824 887.5 c 128,-1,24
 1841 795 1841 795 1841 661 c 2,25,-1
 1841 85 l 1,26,-1
 2009 67 l 1,27,-1
 2009 0 l 1,28,-1
 1553 0 l 1,29,-1
 1553 67 l 1,30,-1
 1697 85 l 1,31,-1
 1697 636 l 2,32,33
 1697 739 1697 739 1687.5 814.5 c 128,-1,34
 1678 890 1678 890 1650.5 938.5 c 128,-1,35
 1623 987 1623 987 1572.5 1010 c 128,-1,36
 1522 1033 1522 1033 1440 1031 c 0,37,38
 1402 1030 1402 1030 1360 1021.5 c 128,-1,39
 1318 1013 1318 1013 1276 999.5 c 128,-1,40
 1234 986 1234 986 1195 968 c 128,-1,41
 1156 950 1156 950 1124 931 c 1,42,43
 1135 883 1135 883 1141.5 814.5 c 128,-1,44
 1148 746 1148 746 1148 671 c 2,45,-1
 1148 85 l 1,46,-1
 1306 67 l 1,47,-1
 1306 0 l 1,48,-1
 852 0 l 1,49,-1
 852 67 l 1,50,-1
 1005 85 l 1,51,-1
 1005 655 l 2,52,53
 1005 755 1005 755 996 827 c 128,-1,54
 987 899 987 899 960.5 945 c 128,-1,55
 934 991 934 991 885.5 1011.5 c 128,-1,56
 837 1032 837 1032 757 1030 c 0,57,58
 720 1029 720 1029 677.5 1019.5 c 128,-1,59
 635 1010 635 1010 591 994 c 128,-1,60
 547 978 547 978 504 955.5 c 128,-1,61
 461 933 461 933 423 907 c 1,62,-1
 423 533 l 1,63,-1
 424 85 l 1,64,-1
 581 67 l 1,65,-1
 581 0 l 1,66,-1
 136 0 l 1,67,-1
 136 67 l 1,0,-1
EndSplineSet
EndChar

StartChar: n
Encoding: 110 110 81
Width: 1386
GlyphClass: 2
Flags: W
LayerCount: 2
Fore
SplineSet
132 68 m 1,0,-1
 275 85 l 1,1,-1
 275 969 l 1,2,-1
 128 1021 l 1,3,-1
 128 1073 l 1,4,-1
 365 1133 l 1,5,-1
 401 1114 l 1,6,-1
 401 976 l 1,7,8
 435 1003 435 1003 485 1032 c 128,-1,9
 535 1061 535 1061 592 1084.5 c 128,-1,10
 649 1108 649 1108 708.5 1124 c 128,-1,11
 768 1140 768 1140 819 1142 c 0,12,13
 913 1145 913 1145 978 1120.5 c 128,-1,14
 1043 1096 1043 1096 1083.5 1039 c 128,-1,15
 1124 982 1124 982 1141.5 889.5 c 128,-1,16
 1159 797 1159 797 1159 663 c 2,17,-1
 1159 85 l 1,18,-1
 1323 68 l 1,19,-1
 1323 0 l 1,20,-1
 862 0 l 1,21,-1
 862 68 l 1,22,-1
 1016 85 l 1,23,-1
 1016 645 l 2,24,25
 1016 752 1016 752 1004 826.5 c 128,-1,26
 992 901 992 901 962.5 947 c 128,-1,27
 933 993 933 993 883 1013 c 128,-1,28
 833 1033 833 1033 757 1031 c 0,29,30
 719 1030 719 1030 676 1020.5 c 128,-1,31
 633 1011 633 1011 588.5 994.5 c 128,-1,32
 544 978 544 978 500.5 955.5 c 128,-1,33
 457 933 457 933 419 907 c 1,34,-1
 419 85 l 1,35,-1
 577 68 l 1,36,-1
 577 0 l 1,37,-1
 132 0 l 1,38,-1
 132 68 l 1,0,-1
EndSplineSet
EndChar

StartChar: o
Encoding: 111 111 82
Width: 1237
GlyphClass: 2
Flags: W
LayerCount: 2
Fore
SplineSet
104 582 m 0,0,1
 106 714 106 714 150 819.5 c 128,-1,2
 194 925 194 925 267 998.5 c 128,-1,3
 340 1072 340 1072 435.5 1111.5 c 128,-1,4
 531 1151 531 1151 636 1152 c 0,5,6
 723 1153 723 1153 794.5 1131 c 128,-1,7
 866 1109 866 1109 921.5 1069.5 c 128,-1,8
 977 1030 977 1030 1017 975.5 c 128,-1,9
 1057 921 1057 921 1083 856 c 128,-1,10
 1109 791 1109 791 1121.5 719 c 128,-1,11
 1134 647 1134 647 1133 573 c 0,12,13
 1132 442 1132 442 1091.5 332 c 128,-1,14
 1051 222 1051 222 981 143 c 128,-1,15
 911 64 911 64 816 19.5 c 128,-1,16
 721 -25 721 -25 611 -25 c 0,17,18
 473 -25 473 -25 376 25.5 c 128,-1,19
 279 76 279 76 218 160.5 c 128,-1,20
 157 245 157 245 129.5 354.5 c 128,-1,21
 102 464 102 464 104 582 c 0,0,1
618 61 m 0,22,23
 702 59 702 59 769 91 c 128,-1,24
 836 123 836 123 882.5 187 c 128,-1,25
 929 251 929 251 954 345.5 c 128,-1,26
 979 440 979 440 979 564 c 0,27,28
 979 664 979 664 959.5 755.5 c 128,-1,29
 940 847 940 847 897.5 916 c 128,-1,30
 855 985 855 985 788 1026.5 c 128,-1,31
 721 1068 721 1068 626 1070 c 0,32,33
 539 1071 539 1071 471 1039 c 128,-1,34
 403 1007 403 1007 356 945 c 128,-1,35
 309 883 309 883 284 793.5 c 128,-1,36
 259 704 259 704 259 591 c 0,37,38
 259 487 259 487 279.5 392 c 128,-1,39
 300 297 300 297 343.5 224.5 c 128,-1,40
 387 152 387 152 455 107.5 c 128,-1,41
 523 63 523 63 618 61 c 0,22,23
EndSplineSet
EndChar

StartChar: p
Encoding: 112 112 83
Width: 1272
GlyphClass: 2
Flags: W
LayerCount: 2
Fore
SplineSet
412 -260 m 1,0,-1
 412 -426 l 1,1,-1
 643 -444 l 1,2,-1
 643 -511 l 1,3,-1
 115 -511 l 1,4,-1
 115 -444 l 1,5,-1
 269 -424 l 1,6,-1
 269 969 l 1,7,-1
 124 1021 l 1,8,-1
 124 1073 l 1,9,-1
 359 1133 l 1,10,-1
 397 1113 l 1,11,-1
 397 1001 l 1,12,13
 424 1028 424 1028 462.5 1054.5 c 128,-1,14
 501 1081 501 1081 549 1103 c 128,-1,15
 597 1125 597 1125 653 1138.5 c 128,-1,16
 709 1152 709 1152 771 1152 c 0,17,18
 855 1152 855 1152 934.5 1122 c 128,-1,19
 1014 1092 1014 1092 1076 1025.5 c 128,-1,20
 1138 959 1138 959 1175.5 853 c 128,-1,21
 1213 747 1213 747 1213 595 c 0,22,23
 1213 466 1213 466 1171.5 352.5 c 128,-1,24
 1130 239 1130 239 1055 154.5 c 128,-1,25
 980 70 980 70 875.5 21 c 128,-1,26
 771 -28 771 -28 645 -28 c 0,27,28
 581 -28 581 -28 521.5 -17 c 128,-1,29
 462 -6 462 -6 408 19 c 1,30,-1
 412 -260 l 1,0,-1
412 145 m 1,31,32
 435 105 435 105 499 80.5 c 128,-1,33
 563 56 563 56 655 55 c 0,34,35
 733 55 733 55 807 85 c 128,-1,36
 881 115 881 115 939 179 c 128,-1,37
 997 243 997 243 1033 342.5 c 128,-1,38
 1069 442 1069 442 1070 579 c 0,39,40
 1071 703 1071 703 1042.5 791.5 c 128,-1,41
 1014 880 1014 880 964.5 936 c 128,-1,42
 915 992 915 992 849.5 1018.5 c 128,-1,43
 784 1045 784 1045 712 1045 c 0,44,45
 650 1045 650 1045 602 1033 c 128,-1,46
 554 1021 554 1021 517.5 1003.5 c 128,-1,47
 481 986 481 986 455 966 c 128,-1,48
 429 946 429 946 412 931 c 1,49,-1
 412 145 l 1,31,32
EndSplineSet
EndChar

StartChar: q
Encoding: 113 113 84
Width: 1272
GlyphClass: 2
Flags: W
LayerCount: 2
Fore
SplineSet
545 -28 m 0,0,1
 506 -28 506 -28 458.5 -19.5 c 128,-1,2
 411 -11 411 -11 362 12 c 128,-1,3
 313 35 313 35 267 75.5 c 128,-1,4
 221 116 221 116 185 179 c 128,-1,5
 149 242 149 242 127 331.5 c 128,-1,6
 105 421 105 421 105 543 c 0,7,8
 105 672 105 672 148.5 783 c 128,-1,9
 192 894 192 894 270 976.5 c 128,-1,10
 348 1059 348 1059 455 1106 c 128,-1,11
 562 1153 562 1153 689 1153 c 0,12,13
 756 1153 756 1153 818.5 1140 c 128,-1,14
 881 1127 881 1127 926 1103 c 1,15,-1
 1011 1136 l 1,16,-1
 1048 1121 l 1,17,-1
 1048 -419 l 1,18,-1
 1195 -437 l 1,19,-1
 1195 -511 l 1,20,-1
 680 -511 l 1,21,-1
 680 -437 l 1,22,-1
 905 -418 l 1,23,-1
 905 -47 l 1,24,-1
 909 103 l 1,25,26
 889 86 889 86 857.5 63 c 128,-1,27
 826 40 826 40 781 20 c 128,-1,28
 736 0 736 0 677 -14 c 128,-1,29
 618 -28 618 -28 545 -28 c 0,0,1
596 78 m 0,30,31
 658 78 658 78 708 88.5 c 128,-1,32
 758 99 758 99 796 115 c 128,-1,33
 834 131 834 131 861 149.5 c 128,-1,34
 888 168 888 168 905 185 c 1,35,-1
 905 987 l 1,36,37
 881 1013 881 1013 852.5 1029 c 128,-1,38
 824 1045 824 1045 793.5 1054 c 128,-1,39
 763 1063 763 1063 730 1066.5 c 128,-1,40
 697 1070 697 1070 664 1070 c 0,41,42
 587 1070 587 1070 513 1040 c 128,-1,43
 439 1010 439 1010 381 948 c 128,-1,44
 323 886 323 886 286.5 790.5 c 128,-1,45
 250 695 250 695 248 565 c 0,46,47
 246 446 246 446 270.5 355 c 128,-1,48
 295 264 295 264 341 202.5 c 128,-1,49
 387 141 387 141 452 109.5 c 128,-1,50
 517 78 517 78 596 78 c 0,30,31
EndSplineSet
EndChar

StartChar: r
Encoding: 114 114 85
Width: 905
GlyphClass: 2
Flags: W
LayerCount: 2
Fore
SplineSet
90 68 m 1,0,-1
 275 86 l 1,1,-1
 275 969 l 1,2,-1
 128 1021 l 1,3,-1
 128 1073 l 1,4,-1
 364 1133 l 1,5,-1
 401 1114 l 1,6,-1
 401 975 l 1,7,8
 423 1000 423 1000 465 1029 c 128,-1,9
 507 1058 507 1058 559 1082.5 c 128,-1,10
 611 1107 611 1107 668 1123 c 128,-1,11
 725 1139 725 1139 776 1139 c 0,12,13
 809 1139 809 1139 838.5 1137.5 c 128,-1,14
 868 1136 868 1136 879 1132 c 1,15,-1
 879 978 l 1,16,17
 851 989 851 989 814 997.5 c 128,-1,18
 777 1006 777 1006 716 1006 c 0,19,20
 668 1006 668 1006 624 996.5 c 128,-1,21
 580 987 580 987 542 973.5 c 128,-1,22
 504 960 504 960 473 944 c 128,-1,23
 442 928 442 928 419 913 c 1,24,-1
 419 87 l 1,25,-1
 714 68 l 1,26,-1
 714 0 l 1,27,-1
 90 0 l 1,28,-1
 90 68 l 1,0,-1
EndSplineSet
EndChar

StartChar: s
Encoding: 115 115 86
Width: 1032
GlyphClass: 2
Flags: W
LayerCount: 2
Fore
SplineSet
169 279 m 1,0,-1
 238 279 l 1,1,-1
 270 143 l 1,2,3
 321 101 321 101 380.5 81.5 c 128,-1,4
 440 62 440 62 510 60 c 0,5,6
 571 58 571 58 624 69.5 c 128,-1,7
 677 81 677 81 716 107 c 128,-1,8
 755 133 755 133 777.5 174 c 128,-1,9
 800 215 800 215 800 272 c 0,10,11
 800 325 800 325 772.5 362 c 128,-1,12
 745 399 745 399 701 427 c 128,-1,13
 657 455 657 455 601.5 477.5 c 128,-1,14
 546 500 546 500 491 525 c 0,15,16
 431 552 431 552 374.5 582 c 128,-1,17
 318 612 318 612 274.5 650.5 c 128,-1,18
 231 689 231 689 205 738.5 c 128,-1,19
 179 788 179 788 180 853 c 0,20,21
 181 929 181 929 217.5 985 c 128,-1,22
 254 1041 254 1041 310 1077.5 c 128,-1,23
 366 1114 366 1114 435 1132 c 128,-1,24
 504 1150 504 1150 571 1152 c 0,25,26
 620 1153 620 1153 667.5 1147 c 128,-1,27
 715 1141 715 1141 756.5 1130.5 c 128,-1,28
 798 1120 798 1120 831 1106.5 c 128,-1,29
 864 1093 864 1093 884 1080 c 1,30,-1
 884 874 l 1,31,-1
 819 874 l 1,32,-1
 785 1004 l 1,33,34
 754 1033 754 1033 701.5 1053.5 c 128,-1,35
 649 1074 649 1074 578 1074 c 0,36,37
 517 1074 517 1074 469.5 1059.5 c 128,-1,38
 422 1045 422 1045 389 1019 c 128,-1,39
 356 993 356 993 338.5 956 c 128,-1,40
 321 919 321 919 320 876 c 0,41,42
 319 828 319 828 341 793 c 128,-1,43
 363 758 363 758 401.5 730 c 128,-1,44
 440 702 440 702 491 678.5 c 128,-1,45
 542 655 542 655 599 629 c 0,46,47
 655 604 655 604 715 577.5 c 128,-1,48
 775 551 775 551 824.5 514 c 128,-1,49
 874 477 874 477 906 426 c 128,-1,50
 938 375 938 375 938 301 c 0,51,52
 938 221 938 221 906 160.5 c 128,-1,53
 874 100 874 100 817 59 c 128,-1,54
 760 18 760 18 682 -3 c 128,-1,55
 604 -24 604 -24 513 -24 c 256,56,57
 422 -24 422 -24 333.5 -1.5 c 128,-1,58
 245 21 245 21 169 61 c 1,59,-1
 169 279 l 1,0,-1
EndSplineSet
EndChar

StartChar: t
Encoding: 116 116 87
Width: 858
GlyphClass: 2
Flags: W
LayerCount: 2
Fore
SplineSet
288 1019 m 1,0,-1
 128 1019 l 1,1,-1
 128 1080 l 1,2,3
 170 1087 170 1087 199 1091.5 c 128,-1,4
 228 1096 228 1096 248 1102 c 128,-1,5
 268 1108 268 1108 280.5 1118 c 128,-1,6
 293 1128 293 1128 304 1147 c 1,7,8
 310 1161 310 1161 318 1192.5 c 128,-1,9
 326 1224 326 1224 333.5 1260 c 128,-1,10
 341 1296 341 1296 346.5 1330.5 c 128,-1,11
 352 1365 352 1365 353 1386 c 1,12,-1
 429 1386 l 1,13,-1
 429 1116 l 1,14,-1
 805 1116 l 1,15,-1
 805 1019 l 1,16,-1
 429 1019 l 1,17,-1
 429 416 l 2,18,19
 429 315 429 315 433.5 250.5 c 128,-1,20
 438 186 438 186 452 148 c 128,-1,21
 466 110 466 110 492 95.5 c 128,-1,22
 518 81 518 81 562 81 c 0,23,24
 594 81 594 81 627 87 c 128,-1,25
 660 93 660 93 689.5 102.5 c 128,-1,26
 719 112 719 112 743 123 c 128,-1,27
 767 134 767 134 780 144 c 1,28,-1
 805 73 l 1,29,30
 782 48 782 48 746 30 c 128,-1,31
 710 12 710 12 669 0 c 128,-1,32
 628 -12 628 -12 585.5 -18 c 128,-1,33
 543 -24 543 -24 509 -24 c 0,34,35
 455 -24 455 -24 413.5 -9 c 128,-1,36
 372 6 372 6 344 39.5 c 128,-1,37
 316 73 316 73 301.5 126 c 128,-1,38
 287 179 287 179 287 255 c 2,39,-1
 288 1019 l 1,0,-1
EndSplineSet
EndChar

StartChar: u
Encoding: 117 117 88
Width: 1271
GlyphClass: 2
Flags: W
LayerCount: 2
Fore
SplineSet
208 1017 m 1,0,-1
 105 1037 l 1,1,-1
 105 1097 l 1,2,-1
 319 1139 l 1,3,-1
 349 1121 l 1,4,-1
 349 432 l 2,5,6
 349 340 349 340 358 274.5 c 128,-1,7
 367 209 367 209 393 166 c 128,-1,8
 419 123 419 123 466 103 c 128,-1,9
 513 83 513 83 589 83 c 0,10,11
 647 83 647 83 701 99 c 128,-1,12
 755 115 755 115 799.5 137.5 c 128,-1,13
 844 160 844 160 875.5 182.5 c 128,-1,14
 907 205 907 205 922 219 c 1,15,-1
 922 1008 l 1,16,-1
 797 1030 l 1,17,-1
 797 1093 l 1,18,-1
 1036 1138 l 1,19,-1
 1064 1121 l 1,20,-1
 1064 71 l 1,21,-1
 1191 71 l 1,22,-1
 1191 10 l 1,23,24
 1177 4 1177 4 1156.5 -2 c 128,-1,25
 1136 -8 1136 -8 1113.5 -12.5 c 128,-1,26
 1091 -17 1091 -17 1068.5 -20 c 128,-1,27
 1046 -23 1046 -23 1028 -23 c 0,28,29
 983 -23 983 -23 959.5 -5 c 128,-1,30
 936 13 936 13 936 52 c 2,31,-1
 936 142 l 1,32,33
 838 60 838 60 736.5 19.5 c 128,-1,34
 635 -21 635 -21 532 -21 c 0,35,36
 453 -21 453 -21 399 -4.5 c 128,-1,37
 345 12 345 12 309 42.5 c 128,-1,38
 273 73 273 73 253 116 c 128,-1,39
 233 159 233 159 223 212.5 c 128,-1,40
 213 266 213 266 210.5 329 c 128,-1,41
 208 392 208 392 208 461 c 2,42,-1
 208 1017 l 1,0,-1
EndSplineSet
EndChar

StartChar: v
Encoding: 118 118 89
Width: 1240
GlyphClass: 2
Flags: W
LayerCount: 2
Fore
SplineSet
141 1021 m 1,0,-1
 27 1038 l 1,1,-1
 27 1119 l 1,2,-1
 450 1119 l 1,3,-1
 450 1038 l 1,4,-1
 302 1020 l 1,5,-1
 552 395 l 1,6,-1
 643 111 l 1,7,-1
 739 387 l 1,8,-1
 983 1021 l 1,9,-1
 833 1037 l 1,10,-1
 833 1119 l 1,11,-1
 1218 1119 l 1,12,-1
 1218 1038 l 1,13,-1
 1101 1020 l 1,14,-1
 678 -24 l 1,15,-1
 577 -24 l 1,16,-1
 141 1021 l 1,0,-1
EndSplineSet
EndChar

StartChar: w
Encoding: 119 119 90
Width: 1753
GlyphClass: 2
Flags: W
LayerCount: 2
Fore
SplineSet
146 1022 m 1,0,-1
 31 1037 l 1,1,-1
 31 1119 l 1,2,-1
 454 1119 l 1,3,-1
 454 1038 l 1,4,-1
 294 1020 l 1,5,-1
 511 278 l 1,6,-1
 544 115 l 1,7,-1
 591 283 l 1,8,-1
 842 1119 l 1,9,-1
 959 1119 l 1,10,-1
 1203 275 l 1,11,-1
 1243 106 l 1,12,-1
 1293 279 l 1,13,-1
 1495 1021 l 1,14,-1
 1348 1037 l 1,15,-1
 1348 1119 l 1,16,-1
 1729 1119 l 1,17,-1
 1729 1038 l 1,18,-1
 1612 1020 l 1,19,-1
 1298 -25 l 1,20,-1
 1166 -25 l 1,21,-1
 907 820 l 1,22,-1
 881 951 l 1,23,-1
 855 820 l 1,24,-1
 599 -25 l 1,25,-1
 478 -25 l 1,26,-1
 146 1022 l 1,0,-1
EndSplineSet
EndChar

StartChar: x
Encoding: 120 120 91
Width: 1253
GlyphClass: 2
Flags: W
LayerCount: 2
Fore
SplineSet
63 68 m 1,0,-1
 215 85 l 1,1,-1
 559 546 l 1,2,-1
 206 1022 l 1,3,-1
 49 1037 l 1,4,-1
 49 1119 l 1,5,-1
 532 1119 l 1,6,-1
 532 1038 l 1,7,-1
 375 1023 l 1,8,-1
 542 771 l 1,9,-1
 649 613 l 1,10,-1
 701 696 l 1,11,-1
 929 1025 l 1,12,-1
 782 1037 l 1,13,-1
 782 1119 l 1,14,-1
 1181 1119 l 1,15,-1
 1181 1038 l 1,16,-1
 1048 1023 l 1,17,-1
 700 559 l 1,18,-1
 1049 85 l 1,19,-1
 1206 68 l 1,20,-1
 1206 0 l 1,21,-1
 729 0 l 1,22,-1
 729 68 l 1,23,-1
 879 83 l 1,24,-1
 694 360 l 1,25,-1
 607 484 l 1,26,-1
 561 407 l 1,27,-1
 340 84 l 1,28,-1
 523 68 l 1,29,-1
 523 0 l 1,30,-1
 63 0 l 1,31,-1
 63 68 l 1,0,-1
EndSplineSet
EndChar

StartChar: y
Encoding: 121 121 92
Width: 1209
GlyphClass: 2
Flags: W
LayerCount: 2
Fore
SplineSet
164 -379 m 1,0,1
 181 -384 181 -384 203.5 -388 c 128,-1,2
 226 -392 226 -392 244 -392 c 0,3,4
 280 -394 280 -394 325 -379 c 128,-1,5
 370 -364 370 -364 416.5 -322.5 c 128,-1,6
 463 -281 463 -281 507.5 -209.5 c 128,-1,7
 552 -138 552 -138 588 -25 c 1,8,-1
 561 -25 l 1,9,-1
 140 1022 l 1,10,-1
 16 1037 l 1,11,-1
 16 1119 l 1,12,-1
 466 1119 l 1,13,-1
 466 1038 l 1,14,-1
 301 1021 l 1,15,-1
 555 322 l 1,16,-1
 647 66 l 1,17,-1
 715 305 l 1,18,-1
 933 1024 l 1,19,-1
 769 1037 l 1,20,-1
 769 1119 l 1,21,-1
 1183 1119 l 1,22,-1
 1183 1038 l 1,23,-1
 1059 1023 l 1,24,25
 994 827 994 827 944 678.5 c 128,-1,26
 894 530 894 530 857 419.5 c 128,-1,27
 820 309 820 309 794 232 c 128,-1,28
 768 155 768 155 750 103 c 128,-1,29
 732 51 732 51 721 19.5 c 128,-1,30
 710 -12 710 -12 702 -32 c 0,31,32
 656 -149 656 -149 610 -239 c 128,-1,33
 564 -329 564 -329 510 -390.5 c 128,-1,34
 456 -452 456 -452 391 -483.5 c 128,-1,35
 326 -515 326 -515 243 -515 c 0,36,37
 233 -515 233 -515 221 -514 c 128,-1,38
 209 -513 209 -513 197.5 -511 c 128,-1,39
 186 -509 186 -509 177 -506 c 128,-1,40
 168 -503 168 -503 164 -500 c 1,41,-1
 164 -379 l 1,42,-1
 164 -379 l 1,0,1
EndSplineSet
EndChar

StartChar: z
Encoding: 122 122 93
Width: 1098
GlyphClass: 2
Flags: W
LayerCount: 2
Fore
SplineSet
183 172 m 1,0,-1
 748 943 l 1,1,-1
 836 1047 l 1,2,-1
 287 1031 l 1,3,-1
 239 841 l 1,4,-1
 167 841 l 1,5,-1
 169 1119 l 1,6,-1
 986 1119 l 1,7,-1
 1008 1073 l 1,8,-1
 926 949 l 1,9,-1
 378 203 l 1,10,-1
 278 77 l 1,11,-1
 876 95 l 1,12,-1
 933 276 l 1,13,-1
 1011 275 l 1,14,-1
 994 0 l 1,15,-1
 134 0 l 1,16,-1
 107 52 l 1,17,-1
 183 172 l 1,0,-1
EndSplineSet
EndChar

StartChar: braceleft
Encoding: 123 123 94
Width: 1066
GlyphClass: 2
Flags: W
LayerCount: 2
Fore
SplineSet
400 572 m 2,0,1
 400 588 400 588 391.5 600 c 128,-1,2
 383 612 383 612 369 622 c 0,3,4
 347 637 347 637 315.5 652 c 128,-1,5
 284 667 284 667 249 680.5 c 128,-1,6
 214 694 214 694 178 705.5 c 128,-1,7
 142 717 142 717 111 725 c 1,8,-1
 111 828 l 1,9,10
 142 835 142 835 178 846 c 128,-1,11
 214 857 214 857 249 869.5 c 128,-1,12
 284 882 284 882 315 895.5 c 128,-1,13
 346 909 346 909 369 923 c 0,14,15
 383 932 383 932 391.5 943 c 128,-1,16
 400 954 400 954 400 965 c 2,17,-1
 400 1486 l 2,18,19
 400 1554 400 1554 406 1597 c 128,-1,20
 412 1640 412 1640 429.5 1664 c 128,-1,21
 447 1688 447 1688 479 1697 c 128,-1,22
 511 1706 511 1706 564 1706 c 0,23,24
 605 1706 605 1706 638 1703 c 128,-1,25
 671 1700 671 1700 700.5 1695.5 c 128,-1,26
 730 1691 730 1691 758 1685 c 128,-1,27
 786 1679 786 1679 816 1673 c 1,28,-1
 815 1607 l 1,29,-1
 524 1607 l 1,30,-1
 524 971 l 2,31,32
 524 936 524 936 509 915 c 128,-1,33
 494 894 494 894 468 876 c 0,34,35
 447 861 447 861 421 848 c 128,-1,36
 395 835 395 835 366.5 823 c 128,-1,37
 338 811 338 811 308.5 799.5 c 128,-1,38
 279 788 279 788 252 776 c 1,39,40
 307 755 307 755 365.5 728.5 c 128,-1,41
 424 702 424 702 467 671 c 0,42,43
 493 652 493 652 508.5 629.5 c 128,-1,44
 524 607 524 607 524 572 c 2,45,-1
 524 -59 l 1,46,-1
 815 -59 l 1,47,-1
 816 -127 l 1,48,49
 784 -134 784 -134 754 -140 c 128,-1,50
 724 -146 724 -146 692.5 -150.5 c 128,-1,51
 661 -155 661 -155 626.5 -158 c 128,-1,52
 592 -161 592 -161 551 -161 c 0,53,54
 504 -161 504 -161 474.5 -152.5 c 128,-1,55
 445 -144 445 -144 428.5 -119.5 c 128,-1,56
 412 -95 412 -95 406 -52 c 128,-1,57
 400 -9 400 -9 400 60 c 2,58,-1
 400 572 l 2,0,1
EndSplineSet
EndChar

StartChar: bar
Encoding: 124 124 95
Width: 873
GlyphClass: 2
Flags: W
LayerCount: 2
Fore
SplineSet
358 1780 m 1,0,-1
 491 1780 l 1,1,-1
 491 -186 l 1,2,-1
 358 -186 l 1,3,-1
 358 1780 l 1,0,-1
EndSplineSet
EndChar

StartChar: braceright
Encoding: 125 125 96
Width: 1066
GlyphClass: 2
Flags: W
LayerCount: 2
Fore
SplineSet
543 -59 m 1,0,-1
 543 577 l 2,1,2
 543 612 543 612 558 633 c 128,-1,3
 573 654 573 654 599 672 c 0,4,5
 620 687 620 687 646 699.5 c 128,-1,6
 672 712 672 712 700.5 724 c 128,-1,7
 729 736 729 736 758 747.5 c 128,-1,8
 787 759 787 759 814 771 c 1,9,10
 760 793 760 793 701 819.5 c 128,-1,11
 642 846 642 846 600 877 c 0,12,13
 574 896 574 896 558.5 918.5 c 128,-1,14
 543 941 543 941 543 976 c 2,15,-1
 543 1607 l 1,16,-1
 252 1607 l 1,17,-1
 251 1675 l 1,18,19
 283 1682 283 1682 313 1688 c 128,-1,20
 343 1694 343 1694 374.5 1698.5 c 128,-1,21
 406 1703 406 1703 440.5 1706 c 128,-1,22
 475 1709 475 1709 516 1709 c 0,23,24
 563 1709 563 1709 592.5 1700.5 c 128,-1,25
 622 1692 622 1692 638.5 1667.5 c 128,-1,26
 655 1643 655 1643 661 1600 c 128,-1,27
 667 1557 667 1557 667 1488 c 2,28,-1
 667 976 l 2,29,30
 667 960 667 960 675.5 948 c 128,-1,31
 684 936 684 936 698 926 c 0,32,33
 720 911 720 911 751.5 896 c 128,-1,34
 783 881 783 881 818 867.5 c 128,-1,35
 853 854 853 854 888.5 842 c 128,-1,36
 924 830 924 830 956 823 c 1,37,-1
 956 720 l 1,38,39
 925 712 925 712 889 701.5 c 128,-1,40
 853 691 853 691 818 678.5 c 128,-1,41
 783 666 783 666 751.5 652 c 128,-1,42
 720 638 720 638 698 625 c 0,43,44
 684 616 684 616 675.5 605 c 128,-1,45
 667 594 667 594 667 583 c 2,46,-1
 667 62 l 2,47,48
 667 -6 667 -6 661 -49 c 128,-1,49
 655 -92 655 -92 637.5 -116 c 128,-1,50
 620 -140 620 -140 587.5 -149 c 128,-1,51
 555 -158 555 -158 503 -158 c 0,52,53
 462 -158 462 -158 429 -155 c 128,-1,54
 396 -152 396 -152 366.5 -147.5 c 128,-1,55
 337 -143 337 -143 309 -137 c 128,-1,56
 281 -131 281 -131 251 -125 c 1,57,-1
 252 -59 l 1,58,-1
 543 -59 l 1,0,-1
EndSplineSet
EndChar

StartChar: asciitilde
Encoding: 126 126 97
Width: 1257
GlyphClass: 2
Flags: W
LayerCount: 2
Fore
SplineSet
159 859 m 1,0,1
 182 895 182 895 216 927.5 c 128,-1,2
 250 960 250 960 291 985 c 128,-1,3
 332 1010 332 1010 379 1024.5 c 128,-1,4
 426 1039 426 1039 476 1039 c 0,5,6
 515 1039 515 1039 546 1026.5 c 128,-1,7
 577 1014 577 1014 604 994.5 c 128,-1,8
 631 975 631 975 655 953 c 128,-1,9
 679 931 679 931 703.5 911.5 c 128,-1,10
 728 892 728 892 754 879.5 c 128,-1,11
 780 867 780 867 811 867 c 0,12,13
 849 867 849 867 882 877.5 c 128,-1,14
 915 888 915 888 943.5 905.5 c 128,-1,15
 972 923 972 923 996 944 c 128,-1,16
 1020 965 1020 965 1040 986 c 1,17,-1
 1089 924 l 1,18,19
 1065 888 1065 888 1031.5 855 c 128,-1,20
 998 822 998 822 957 797 c 128,-1,21
 916 772 916 772 869.5 757.5 c 128,-1,22
 823 743 823 743 773 743 c 0,23,24
 734 743 734 743 703 756 c 128,-1,25
 672 769 672 769 645 788 c 128,-1,26
 618 807 618 807 594 829.5 c 128,-1,27
 570 852 570 852 546 871 c 128,-1,28
 522 890 522 890 495.5 903 c 128,-1,29
 469 916 469 916 438 916 c 0,30,31
 399 916 399 916 366 905.5 c 128,-1,32
 333 895 333 895 304.5 877.5 c 128,-1,33
 276 860 276 860 252 839 c 128,-1,34
 228 818 228 818 208 797 c 1,35,-1
 159 859 l 1,0,1
EndSplineSet
EndChar

StartChar: exclamdown
Encoding: 161 161 99
Width: 703
GlyphClass: 2
Flags: W
LayerCount: 2
Fore
SplineSet
356 1230 m 0,0,1
 337 1230 337 1230 319 1236.5 c 128,-1,2
 301 1243 301 1243 287.5 1255.5 c 128,-1,3
 274 1268 274 1268 265.5 1285.5 c 128,-1,4
 257 1303 257 1303 257 1325 c 0,5,6
 257 1348 257 1348 267.5 1368.5 c 128,-1,7
 278 1389 278 1389 294.5 1404 c 128,-1,8
 311 1419 311 1419 332 1428 c 128,-1,9
 353 1437 353 1437 374 1437 c 0,10,11
 426 1437 426 1437 449.5 1408.5 c 128,-1,12
 473 1380 473 1380 473 1341 c 0,13,14
 473 1316 473 1316 463 1295.5 c 128,-1,15
 453 1275 453 1275 436.5 1260.5 c 128,-1,16
 420 1246 420 1246 399 1238 c 128,-1,17
 378 1230 378 1230 356 1230 c 0,0,1
310 992 m 1,18,-1
 401 992 l 1,19,-1
 446 -361 l 1,20,-1
 257 -361 l 1,21,-1
 310 992 l 1,18,-1
EndSplineSet
EndChar

StartChar: cent
Encoding: 162 162 100
Width: 1041
GlyphClass: 2
Flags: W
LayerCount: 2
Fore
SplineSet
482 -15 m 1,0,1
 387 -2 387 -2 313.5 45 c 128,-1,2
 240 92 240 92 189 164.5 c 128,-1,3
 138 237 138 237 111.5 332.5 c 128,-1,4
 85 428 85 428 84 538 c 0,5,6
 83 668 83 668 121 774.5 c 128,-1,7
 159 881 159 881 226.5 959 c 128,-1,8
 294 1037 294 1037 385.5 1085 c 128,-1,9
 477 1133 477 1133 583 1145 c 1,10,-1
 603 1362 l 1,11,-1
 699 1362 l 1,12,-1
 682 1149 l 1,13,14
 718 1148 718 1148 753 1144.5 c 128,-1,15
 788 1141 788 1141 819 1134.5 c 128,-1,16
 850 1128 850 1128 875.5 1119 c 128,-1,17
 901 1110 901 1110 918 1099 c 1,18,-1
 918 885 l 1,19,-1
 844 885 l 1,20,-1
 803 1014 l 1,21,22
 769 1040 769 1040 720 1050 c 128,-1,23
 671 1060 671 1060 620 1060 c 0,24,25
 542 1060 542 1060 470.5 1030.5 c 128,-1,26
 399 1001 399 1001 344 943.5 c 128,-1,27
 289 886 289 886 256.5 801.5 c 128,-1,28
 224 717 224 717 223 607 c 0,29,30
 222 464 222 464 256.5 364.5 c 128,-1,31
 291 265 291 265 348 203 c 128,-1,32
 405 141 405 141 476.5 112.5 c 128,-1,33
 548 84 548 84 621 84 c 0,34,35
 655 84 655 84 695 89 c 128,-1,36
 735 94 735 94 775 104 c 128,-1,37
 815 114 815 114 850 128 c 128,-1,38
 885 142 885 142 909 160 c 1,39,-1
 936 88 l 1,40,41
 908 63 908 63 869 43.5 c 128,-1,42
 830 24 830 24 783.5 10.5 c 128,-1,43
 737 -3 737 -3 685 -11 c 128,-1,44
 633 -19 633 -19 579 -20 c 1,45,-1
 566 -216 l 1,46,-1
 469 -216 l 1,47,-1
 482 -15 l 1,48,-1
 482 -15 l 1,0,1
EndSplineSet
EndChar

StartChar: sterling
Encoding: 163 163 101
Width: 1428
GlyphClass: 2
Flags: W
LayerCount: 2
Fore
SplineSet
87 43 m 256,0,1
 87 67 87 67 105.5 90 c 128,-1,2
 124 113 124 113 156.5 131 c 128,-1,3
 189 149 189 149 232.5 159 c 128,-1,4
 276 169 276 169 327 166 c 1,5,6
 348 188 348 188 367.5 227 c 128,-1,7
 387 266 387 266 401.5 313.5 c 128,-1,8
 416 361 416 361 425 413 c 128,-1,9
 434 465 434 465 434 513 c 2,10,-1
 434 766 l 1,11,-1
 234 766 l 1,12,-1
 234 868 l 1,13,-1
 434 868 l 1,14,-1
 434 973 l 2,15,16
 434 1100 434 1100 467.5 1204.5 c 128,-1,17
 501 1309 501 1309 563.5 1384 c 128,-1,18
 626 1459 626 1459 715.5 1501.5 c 128,-1,19
 805 1544 805 1544 918 1547 c 0,20,21
 969 1548 969 1548 1009 1541.5 c 128,-1,22
 1049 1535 1049 1535 1081 1523.5 c 128,-1,23
 1113 1512 1113 1512 1137 1496.5 c 128,-1,24
 1161 1481 1161 1481 1180 1465 c 1,25,-1
 1107 1326 l 1,26,27
 1103 1333 1103 1333 1083 1354 c 128,-1,28
 1063 1375 1063 1375 1029.5 1397 c 128,-1,29
 996 1419 996 1419 949 1436 c 128,-1,30
 902 1453 902 1453 844 1452 c 1,31,32
 795 1450 795 1450 747.5 1429.5 c 128,-1,33
 700 1409 700 1409 662.5 1356 c 128,-1,34
 625 1303 625 1303 602 1211 c 128,-1,35
 579 1119 579 1119 579 975 c 2,36,-1
 579 868 l 1,37,-1
 928 868 l 1,38,-1
 928 766 l 1,39,-1
 580 766 l 1,40,-1
 580 682 l 2,41,42
 580 574 580 574 567 491.5 c 128,-1,43
 554 409 554 409 532.5 345.5 c 128,-1,44
 511 282 511 282 482 233.5 c 128,-1,45
 453 185 453 185 420 144 c 1,46,47
 454 143 454 143 501 131.5 c 128,-1,48
 548 120 548 120 600 106 c 128,-1,49
 652 92 652 92 706 77.5 c 128,-1,50
 760 63 760 63 807 56 c 0,51,52
 928 39 928 39 1004.5 56.5 c 128,-1,53
 1081 74 1081 74 1124.5 112 c 128,-1,54
 1168 150 1168 150 1184.5 201 c 128,-1,55
 1201 252 1201 252 1201 301 c 0,56,57
 1201 354 1201 354 1178 402.5 c 128,-1,58
 1155 451 1155 451 1108 482 c 1,59,-1
 1176 610 l 1,60,61
 1245 581 1245 581 1286.5 518.5 c 128,-1,62
 1328 456 1328 456 1339 372 c 0,63,64
 1344 336 1344 336 1341.5 287.5 c 128,-1,65
 1339 239 1339 239 1321 189 c 128,-1,66
 1303 139 1303 139 1266 93 c 128,-1,67
 1229 47 1229 47 1165.5 14.5 c 128,-1,68
 1102 -18 1102 -18 1008 -32 c 128,-1,69
 914 -46 914 -46 782 -30 c 0,70,71
 699 -20 699 -20 630.5 -1 c 128,-1,72
 562 18 562 18 507.5 36.5 c 128,-1,73
 453 55 453 55 411.5 66.5 c 128,-1,74
 370 78 370 78 340 73 c 1,75,76
 309 29 309 29 264 -1 c 128,-1,77
 219 -31 219 -31 170 -31 c 0,78,79
 158 -31 158 -31 144 -28.5 c 128,-1,80
 130 -26 130 -26 117 -18 c 128,-1,81
 104 -10 104 -10 95.5 4.5 c 128,-1,82
 87 19 87 19 87 43 c 256,0,1
EndSplineSet
EndChar

StartChar: currency
Encoding: 164 164 102
Width: 1427
GlyphClass: 2
Flags: W
LayerCount: 2
Fore
SplineSet
408 449 m 1,0,1
 367 499 367 499 344.5 560 c 128,-1,2
 322 621 322 621 322 690 c 0,3,4
 322 757 322 757 343.5 816.5 c 128,-1,5
 365 876 365 876 404 925 c 1,6,-1
 227 1102 l 1,7,-1
 293 1169 l 1,8,-1
 470 990 l 1,9,10
 518 1027 518 1027 577 1048 c 128,-1,11
 636 1069 636 1069 702 1069 c 0,12,13
 772 1069 772 1069 834.5 1045 c 128,-1,14
 897 1021 897 1021 947 979 c 1,15,-1
 1125 1157 l 1,16,-1
 1191 1090 l 1,17,-1
 1011 909 l 1,18,19
 1044 862 1044 862 1063 807 c 128,-1,20
 1082 752 1082 752 1082 690 c 0,21,22
 1082 624 1082 624 1061 564.5 c 128,-1,23
 1040 505 1040 505 1002 457 c 1,24,-1
 1179 281 l 1,25,-1
 1112 214 l 1,26,-1
 935 391 l 1,27,28
 887 353 887 353 827.5 332 c 128,-1,29
 768 311 768 311 702 311 c 0,30,31
 638 311 638 311 581 330 c 128,-1,32
 524 349 524 349 476 384 c 1,33,-1
 299 208 l 1,34,-1
 232 274 l 1,35,-1
 408 449 l 1,0,1
702 409 m 0,36,37
 757 409 757 409 806 431 c 128,-1,38
 855 453 855 453 892 491.5 c 128,-1,39
 929 530 929 530 950 581 c 128,-1,40
 971 632 971 632 971 690 c 256,41,42
 971 748 971 748 950 799 c 128,-1,43
 929 850 929 850 892 888 c 128,-1,44
 855 926 855 926 806 948.5 c 128,-1,45
 757 971 757 971 702 971 c 0,46,47
 646 971 646 971 597 948.5 c 128,-1,48
 548 926 548 926 511.5 888 c 128,-1,49
 475 850 475 850 454 799 c 128,-1,50
 433 748 433 748 433 690 c 256,51,52
 433 632 433 632 454 581 c 128,-1,53
 475 530 475 530 511.5 491.5 c 128,-1,54
 548 453 548 453 597 431 c 128,-1,55
 646 409 646 409 702 409 c 0,36,37
EndSplineSet
EndChar

StartChar: yen
Encoding: 165 165 103
Width: 1312
GlyphClass: 2
Flags: W
LayerCount: 2
Fore
SplineSet
383 67 m 1,0,-1
 589 91 l 1,1,-1
 589 405 l 1,2,-1
 135 405 l 1,3,-1
 135 504 l 1,4,-1
 589 504 l 1,5,-1
 589 762 l 1,6,-1
 135 762 l 1,7,-1
 135 861 l 1,8,-1
 530 861 l 1,9,-1
 131 1439 l 1,10,-1
 -5 1455 l 1,11,-1
 -5 1531 l 1,12,-1
 462 1531 l 1,13,-1
 462 1454 l 1,14,-1
 301 1440 l 1,15,-1
 613 971 l 1,16,-1
 667 861 l 1,17,-1
 692 861 l 1,18,-1
 744 957 l 1,19,-1
 1044 1441 l 1,20,-1
 889 1455 l 1,21,-1
 889 1531 l 1,22,-1
 1317 1531 l 1,23,-1
 1317 1455 l 1,24,-1
 1172 1430 l 1,25,-1
 797 861 l 1,26,-1
 1163 861 l 1,27,-1
 1163 762 l 1,28,-1
 736 762 l 1,29,-1
 736 504 l 1,30,-1
 1163 504 l 1,31,-1
 1163 405 l 1,32,-1
 736 405 l 1,33,-1
 736 91 l 1,34,-1
 950 67 l 1,35,-1
 950 0 l 1,36,-1
 383 0 l 1,37,-1
 383 67 l 1,0,-1
EndSplineSet
EndChar

StartChar: brokenbar
Encoding: 166 166 104
Width: 873
GlyphClass: 2
Flags: W
LayerCount: 2
Fore
SplineSet
357 1780 m 1,0,-1
 490 1780 l 1,1,-1
 490 886 l 1,2,-1
 357 886 l 1,3,-1
 357 1780 l 1,0,-1
357 708 m 1,4,-1
 490 708 l 1,5,-1
 490 -186 l 1,6,-1
 357 -186 l 1,7,-1
 357 708 l 1,4,-1
EndSplineSet
EndChar

StartChar: section
Encoding: 167 167 105
Width: 1229
GlyphClass: 2
Flags: W
LayerCount: 2
Fore
SplineSet
167 69 m 1,0,-1
 216 -131 l 1,1,2
 251 -165 251 -165 294 -185.5 c 128,-1,3
 337 -206 337 -206 383.5 -216.5 c 128,-1,4
 430 -227 430 -227 477.5 -230 c 128,-1,5
 525 -233 525 -233 569 -233 c 0,6,7
 630 -233 630 -233 694 -217.5 c 128,-1,8
 758 -202 758 -202 809.5 -167 c 128,-1,9
 861 -132 861 -132 894 -76 c 128,-1,10
 927 -20 927 -20 927 61 c 0,11,12
 927 130 927 130 892 181.5 c 128,-1,13
 857 233 857 233 800 273.5 c 128,-1,14
 743 314 743 314 670 347.5 c 128,-1,15
 597 381 597 381 521 414 c 128,-1,16
 445 447 445 447 372 483 c 128,-1,17
 299 519 299 519 242 565 c 128,-1,18
 185 611 185 611 150 670 c 128,-1,19
 115 729 115 729 115 808 c 0,20,21
 115 901 115 901 146 983.5 c 128,-1,22
 177 1066 177 1066 228 1120 c 1,23,24
 183 1163 183 1163 156.5 1216 c 128,-1,25
 130 1269 130 1269 130 1338 c 0,26,27
 130 1408 130 1408 153 1464 c 128,-1,28
 176 1520 176 1520 214 1562.5 c 128,-1,29
 252 1605 252 1605 302 1635.5 c 128,-1,30
 352 1666 352 1666 406 1685.5 c 128,-1,31
 460 1705 460 1705 515 1714 c 128,-1,32
 570 1723 570 1723 618 1723 c 0,33,34
 695 1723 695 1723 757 1715.5 c 128,-1,35
 819 1708 819 1708 867.5 1696.5 c 128,-1,36
 916 1685 916 1685 951 1671 c 128,-1,37
 986 1657 986 1657 1008 1644 c 1,38,-1
 1008 1377 l 1,39,-1
 939 1377 l 1,40,-1
 881 1576 l 1,41,42
 862 1594 862 1594 832.5 1606.5 c 128,-1,43
 803 1619 803 1619 767 1627.5 c 128,-1,44
 731 1636 731 1636 690 1639.5 c 128,-1,45
 649 1643 649 1643 607 1643 c 0,46,47
 558 1643 558 1643 499 1629.5 c 128,-1,48
 440 1616 440 1616 388.5 1584 c 128,-1,49
 337 1552 337 1552 302.5 1498.5 c 128,-1,50
 268 1445 268 1445 268 1366 c 0,51,52
 268 1300 268 1300 303 1251 c 128,-1,53
 338 1202 338 1202 395 1163 c 128,-1,54
 452 1124 452 1124 525 1091.5 c 128,-1,55
 598 1059 598 1059 674.5 1026.5 c 128,-1,56
 751 994 751 994 824 958.5 c 128,-1,57
 897 923 897 923 954 877.5 c 128,-1,58
 1011 832 1011 832 1046 772.5 c 128,-1,59
 1081 713 1081 713 1081 634 c 0,60,61
 1081 587 1081 587 1074.5 541 c 128,-1,62
 1068 495 1068 495 1055 452.5 c 128,-1,63
 1042 410 1042 410 1024 372.5 c 128,-1,64
 1006 335 1006 335 983 306 c 1,65,66
 1021 265 1021 265 1043 216 c 128,-1,67
 1065 167 1065 167 1065 104 c 0,68,69
 1065 -6 1065 -6 1023.5 -85.5 c 128,-1,70
 982 -165 982 -165 911 -216 c 128,-1,71
 840 -267 840 -267 746.5 -291.5 c 128,-1,72
 653 -316 653 -316 550 -316 c 0,73,74
 475 -316 475 -316 402.5 -307.5 c 128,-1,75
 330 -299 330 -299 268.5 -286 c 128,-1,76
 207 -273 207 -273 161 -258 c 128,-1,77
 115 -243 115 -243 94 -230 c 1,78,-1
 94 69 l 1,79,-1
 167 69 l 1,0,-1
252 836 m 256,80,81
 252 774 252 774 283 727 c 128,-1,82
 314 680 314 680 365.5 642 c 128,-1,83
 417 604 417 604 483.5 573 c 128,-1,84
 550 542 550 542 621.5 512 c 128,-1,85
 693 482 693 482 763.5 450 c 128,-1,86
 834 418 834 418 894 379 c 1,87,88
 917 422 917 422 930 478 c 128,-1,89
 943 534 943 534 943 590 c 0,90,91
 943 654 943 654 912.5 702.5 c 128,-1,92
 882 751 882 751 832 790 c 128,-1,93
 782 829 782 829 717 861 c 128,-1,94
 652 893 652 893 582 923.5 c 128,-1,95
 512 954 512 954 442.5 985.5 c 128,-1,96
 373 1017 373 1017 313 1055 c 1,97,98
 285 1013 285 1013 268.5 955.5 c 128,-1,99
 252 898 252 898 252 836 c 256,80,81
EndSplineSet
EndChar

StartChar: dieresis
Encoding: 168 168 106
Width: 982
GlyphClass: 2
Flags: W
LayerCount: 2
Fore
SplineSet
663 1424 m 0,0,1
 644 1424 644 1424 626 1430.5 c 128,-1,2
 608 1437 608 1437 594.5 1449 c 128,-1,3
 581 1461 581 1461 572.5 1478.5 c 128,-1,4
 564 1496 564 1496 564 1518 c 0,5,6
 564 1542 564 1542 574.5 1562.5 c 128,-1,7
 585 1583 585 1583 601.5 1598 c 128,-1,8
 618 1613 618 1613 639 1621.5 c 128,-1,9
 660 1630 660 1630 681 1630 c 0,10,11
 732 1630 732 1630 756 1601.5 c 128,-1,12
 780 1573 780 1573 780 1535 c 0,13,14
 780 1510 780 1510 770 1489.5 c 128,-1,15
 760 1469 760 1469 743.5 1454.5 c 128,-1,16
 727 1440 727 1440 706 1432 c 128,-1,17
 685 1424 685 1424 663 1424 c 0,0,1
204 1424 m 0,18,19
 185 1424 185 1424 167 1430.5 c 128,-1,20
 149 1437 149 1437 135.5 1449 c 128,-1,21
 122 1461 122 1461 113.5 1478.5 c 128,-1,22
 105 1496 105 1496 105 1518 c 0,23,24
 105 1542 105 1542 115.5 1562.5 c 128,-1,25
 126 1583 126 1583 142.5 1598 c 128,-1,26
 159 1613 159 1613 180 1621.5 c 128,-1,27
 201 1630 201 1630 222 1630 c 0,28,29
 273 1630 273 1630 297 1601.5 c 128,-1,30
 321 1573 321 1573 321 1535 c 0,31,32
 321 1510 321 1510 311 1489.5 c 128,-1,33
 301 1469 301 1469 284.5 1454.5 c 128,-1,34
 268 1440 268 1440 247 1432 c 128,-1,35
 226 1424 226 1424 204 1424 c 0,18,19
EndSplineSet
EndChar

StartChar: copyright
Encoding: 169 169 107
Width: 1940
GlyphClass: 2
Flags: W
LayerCount: 2
Fore
SplineSet
974 316 m 256,0,1
 859 316 859 316 751.5 347 c 128,-1,2
 644 378 644 378 550 434.5 c 128,-1,3
 456 491 456 491 379 569 c 128,-1,4
 302 647 302 647 247 741.5 c 128,-1,5
 192 836 192 836 161.5 943.5 c 128,-1,6
 131 1051 131 1051 131 1166 c 256,7,8
 131 1281 131 1281 161.5 1389 c 128,-1,9
 192 1497 192 1497 247 1592 c 128,-1,10
 302 1687 302 1687 379 1765 c 128,-1,11
 456 1843 456 1843 550 1899 c 128,-1,12
 644 1955 644 1955 751 1986 c 128,-1,13
 858 2017 858 2017 974 2017 c 0,14,15
 1089 2017 1089 2017 1196 1986 c 128,-1,16
 1303 1955 1303 1955 1396.5 1899 c 128,-1,17
 1490 1843 1490 1843 1567 1765 c 128,-1,18
 1644 1687 1644 1687 1699 1592.5 c 128,-1,19
 1754 1498 1754 1498 1784.5 1390 c 128,-1,20
 1815 1282 1815 1282 1815 1166 c 0,21,22
 1815 1051 1815 1051 1784.5 943.5 c 128,-1,23
 1754 836 1754 836 1699 741.5 c 128,-1,24
 1644 647 1644 647 1567 569 c 128,-1,25
 1490 491 1490 491 1396.5 434.5 c 128,-1,26
 1303 378 1303 378 1196 347 c 128,-1,27
 1089 316 1089 316 974 316 c 256,0,1
974 411 m 0,28,29
 1076 411 1076 411 1171 438.5 c 128,-1,30
 1266 466 1266 466 1348 516 c 128,-1,31
 1430 566 1430 566 1497 635.5 c 128,-1,32
 1564 705 1564 705 1612 788.5 c 128,-1,33
 1660 872 1660 872 1686 968 c 128,-1,34
 1712 1064 1712 1064 1712 1166 c 256,35,36
 1712 1268 1712 1268 1686 1364 c 128,-1,37
 1660 1460 1660 1460 1612 1544 c 128,-1,38
 1564 1628 1564 1628 1497 1697.5 c 128,-1,39
 1430 1767 1430 1767 1348 1817 c 128,-1,40
 1266 1867 1266 1867 1171 1894.5 c 128,-1,41
 1076 1922 1076 1922 974 1922 c 0,42,43
 871 1922 871 1922 776 1894.5 c 128,-1,44
 681 1867 681 1867 599 1817 c 128,-1,45
 517 1767 517 1767 450 1697.5 c 128,-1,46
 383 1628 383 1628 335 1544 c 128,-1,47
 287 1460 287 1460 261 1364 c 128,-1,48
 235 1268 235 1268 235 1166 c 256,49,50
 235 1064 235 1064 261 968 c 128,-1,51
 287 872 287 872 335 788.5 c 128,-1,52
 383 705 383 705 450 635.5 c 128,-1,53
 517 566 517 566 599 516 c 128,-1,54
 681 466 681 466 776 438.5 c 128,-1,55
 871 411 871 411 974 411 c 0,28,29
983 681 m 0,56,57
 872 681 872 681 788.5 716.5 c 128,-1,58
 705 752 705 752 649 815.5 c 128,-1,59
 593 879 593 879 564.5 966.5 c 128,-1,60
 536 1054 536 1054 536 1158 c 0,61,62
 536 1228 536 1228 554.5 1292.5 c 128,-1,63
 573 1357 573 1357 605 1412.5 c 128,-1,64
 637 1468 637 1468 680 1514 c 128,-1,65
 723 1560 723 1560 772.5 1593.5 c 128,-1,66
 822 1627 822 1627 875 1646.5 c 128,-1,67
 928 1666 928 1666 980 1670 c 0,68,69
 1052 1675 1052 1675 1107.5 1670 c 128,-1,70
 1163 1665 1163 1665 1203 1655 c 128,-1,71
 1243 1645 1243 1645 1266 1632.5 c 128,-1,72
 1289 1620 1289 1620 1297 1611 c 1,73,-1
 1297 1418 l 1,74,-1
 1207 1418 l 1,75,-1
 1167 1547 l 1,76,77
 1156 1554 1156 1554 1141.5 1561.5 c 128,-1,78
 1127 1569 1127 1569 1105 1574 c 128,-1,79
 1083 1579 1083 1579 1052.5 1582 c 128,-1,80
 1022 1585 1022 1585 979 1585 c 0,81,82
 911 1584 911 1584 855.5 1553.5 c 128,-1,83
 800 1523 800 1523 759.5 1470.5 c 128,-1,84
 719 1418 719 1418 697 1346.5 c 128,-1,85
 675 1275 675 1275 675 1193 c 0,86,87
 675 1107 675 1107 699.5 1032.5 c 128,-1,88
 724 958 724 958 770.5 903 c 128,-1,89
 817 848 817 848 885 816 c 128,-1,90
 953 784 953 784 1040 784 c 0,91,92
 1079 784 1079 784 1117 792.5 c 128,-1,93
 1155 801 1155 801 1188 813 c 128,-1,94
 1221 825 1221 825 1246 839 c 128,-1,95
 1271 853 1271 853 1283 864 c 1,96,-1
 1307 803 l 1,97,98
 1286 779 1286 779 1252.5 756.5 c 128,-1,99
 1219 734 1219 734 1177 717.5 c 128,-1,100
 1135 701 1135 701 1085.5 691 c 128,-1,101
 1036 681 1036 681 983 681 c 0,56,57
EndSplineSet
EndChar

StartChar: ordfeminine
Encoding: 170 170 108
Width: 1063
GlyphClass: 2
Flags: W
LayerCount: 2
Fore
SplineSet
382 687 m 0,0,1
 346 687 346 687 302 700.5 c 128,-1,2
 258 714 258 714 220.5 742.5 c 128,-1,3
 183 771 183 771 157.5 815.5 c 128,-1,4
 132 860 132 860 132 923 c 0,5,6
 132 983 132 983 161.5 1027.5 c 128,-1,7
 191 1072 191 1072 239.5 1103.5 c 128,-1,8
 288 1135 288 1135 350 1154.5 c 128,-1,9
 412 1174 412 1174 477 1185 c 128,-1,10
 542 1196 542 1196 605 1199.5 c 128,-1,11
 668 1203 668 1203 718 1203 c 1,12,-1
 718 1257 l 2,13,14
 718 1319 718 1319 700 1357 c 128,-1,15
 682 1395 682 1395 650 1416 c 128,-1,16
 618 1437 618 1437 573.5 1444 c 128,-1,17
 529 1451 529 1451 476 1451 c 0,18,19
 436 1451 436 1451 396.5 1446 c 128,-1,20
 357 1441 357 1441 321.5 1431 c 128,-1,21
 286 1421 286 1421 256.5 1407.5 c 128,-1,22
 227 1394 227 1394 207 1378 c 1,23,-1
 177 1448 l 1,24,25
 199 1468 199 1468 237 1485.5 c 128,-1,26
 275 1503 275 1503 321.5 1516 c 128,-1,27
 368 1529 368 1529 419 1536.5 c 128,-1,28
 470 1544 470 1544 518 1544 c 0,29,30
 590 1544 590 1544 651.5 1533 c 128,-1,31
 713 1522 713 1522 758 1490 c 128,-1,32
 803 1458 803 1458 828.5 1398 c 128,-1,33
 854 1338 854 1338 854 1241 c 2,34,-1
 852 767 l 1,35,-1
 939 767 l 1,36,-1
 939 709 l 1,37,38
 929 704 929 704 910.5 699 c 128,-1,39
 892 694 892 694 871.5 690 c 128,-1,40
 851 686 851 686 830.5 683.5 c 128,-1,41
 810 681 810 681 795 681 c 0,42,43
 761 681 761 681 741.5 694.5 c 128,-1,44
 722 708 722 708 722 756 c 2,45,-1
 722 794 l 1,46,47
 703 780 703 780 675 761.5 c 128,-1,48
 647 743 647 743 606 726.5 c 128,-1,49
 565 710 565 710 509.5 698.5 c 128,-1,50
 454 687 454 687 382 687 c 0,0,1
437 777 m 0,51,52
 482 777 482 777 525 784 c 128,-1,53
 568 791 568 791 604.5 803 c 128,-1,54
 641 815 641 815 669.5 830.5 c 128,-1,55
 698 846 698 846 716 863 c 1,56,-1
 717 1132 l 1,57,58
 675 1132 675 1132 626 1129 c 128,-1,59
 577 1126 577 1126 527.5 1118.5 c 128,-1,60
 478 1111 478 1111 432 1098 c 128,-1,61
 386 1085 386 1085 351 1064 c 128,-1,62
 316 1043 316 1043 294.5 1014 c 128,-1,63
 273 985 273 985 273 946 c 0,64,65
 273 911 273 911 283.5 880.5 c 128,-1,66
 294 850 294 850 315 827 c 128,-1,67
 336 804 336 804 366.5 790.5 c 128,-1,68
 397 777 397 777 437 777 c 0,51,52
EndSplineSet
EndChar

StartChar: guillemotleft
Encoding: 171 171 109
Width: 1896
GlyphClass: 2
Flags: W
LayerCount: 2
Fore
SplineSet
958 702 m 1,0,-1
 1606 1075 l 1,1,-1
 1646 1010 l 1,2,-1
 1094 622 l 1,3,-1
 1646 233 l 1,4,-1
 1606 163 l 1,5,-1
 958 524 l 1,6,-1
 958 702 l 1,0,-1
250 702 m 1,7,-1
 898 1075 l 1,8,-1
 938 1010 l 1,9,-1
 386 622 l 1,10,-1
 938 233 l 1,11,-1
 898 163 l 1,12,-1
 250 524 l 1,13,-1
 250 702 l 1,7,-1
EndSplineSet
EndChar

StartChar: logicalnot
Encoding: 172 172 110
Width: 1256
GlyphClass: 2
Flags: W
LayerCount: 2
Fore
SplineSet
180 700 m 1,0,-1
 1056 700 l 1,1,-1
 1056 171 l 1,2,-1
 931 171 l 1,3,-1
 931 602 l 1,4,-1
 180 602 l 1,5,-1
 180 700 l 1,0,-1
EndSplineSet
EndChar

StartChar: uni00AD
Encoding: 173 173 111
Width: 892
GlyphClass: 2
Flags: W
LayerCount: 2
Fore
SplineSet
79 705 m 1,0,-1
 811 705 l 1,1,-1
 811 576 l 1,2,-1
 79 576 l 1,3,-1
 79 705 l 1,0,-1
EndSplineSet
EndChar

StartChar: registered
Encoding: 174 174 112
Width: 1940
GlyphClass: 2
Flags: W
LayerCount: 2
Fore
SplineSet
974 316 m 256,0,1
 859 316 859 316 751.5 347 c 128,-1,2
 644 378 644 378 550 434.5 c 128,-1,3
 456 491 456 491 379 569 c 128,-1,4
 302 647 302 647 247 741.5 c 128,-1,5
 192 836 192 836 161.5 943.5 c 128,-1,6
 131 1051 131 1051 131 1166 c 256,7,8
 131 1281 131 1281 161.5 1389 c 128,-1,9
 192 1497 192 1497 247 1592 c 128,-1,10
 302 1687 302 1687 379 1765 c 128,-1,11
 456 1843 456 1843 550 1899 c 128,-1,12
 644 1955 644 1955 751 1986 c 128,-1,13
 858 2017 858 2017 974 2017 c 0,14,15
 1089 2017 1089 2017 1196 1986 c 128,-1,16
 1303 1955 1303 1955 1396.5 1899 c 128,-1,17
 1490 1843 1490 1843 1567 1765 c 128,-1,18
 1644 1687 1644 1687 1699 1592.5 c 128,-1,19
 1754 1498 1754 1498 1784.5 1390 c 128,-1,20
 1815 1282 1815 1282 1815 1166 c 0,21,22
 1815 1051 1815 1051 1784.5 943.5 c 128,-1,23
 1754 836 1754 836 1699 741.5 c 128,-1,24
 1644 647 1644 647 1567 569 c 128,-1,25
 1490 491 1490 491 1396.5 434.5 c 128,-1,26
 1303 378 1303 378 1196 347 c 128,-1,27
 1089 316 1089 316 974 316 c 256,0,1
974 411 m 0,28,29
 1076 411 1076 411 1171 438.5 c 128,-1,30
 1266 466 1266 466 1348 516 c 128,-1,31
 1430 566 1430 566 1497 635.5 c 128,-1,32
 1564 705 1564 705 1612 788.5 c 128,-1,33
 1660 872 1660 872 1686 968 c 128,-1,34
 1712 1064 1712 1064 1712 1166 c 256,35,36
 1712 1268 1712 1268 1686 1364 c 128,-1,37
 1660 1460 1660 1460 1612 1544 c 128,-1,38
 1564 1628 1564 1628 1497 1697.5 c 128,-1,39
 1430 1767 1430 1767 1348 1817 c 128,-1,40
 1266 1867 1266 1867 1171 1894.5 c 128,-1,41
 1076 1922 1076 1922 974 1922 c 0,42,43
 871 1922 871 1922 776 1894.5 c 128,-1,44
 681 1867 681 1867 599 1817 c 128,-1,45
 517 1767 517 1767 450 1697.5 c 128,-1,46
 383 1628 383 1628 335 1544 c 128,-1,47
 287 1460 287 1460 261 1364 c 128,-1,48
 235 1268 235 1268 235 1166 c 256,49,50
 235 1064 235 1064 261 968 c 128,-1,51
 287 872 287 872 335 788.5 c 128,-1,52
 383 705 383 705 450 635.5 c 128,-1,53
 517 566 517 566 599 516 c 128,-1,54
 681 466 681 466 776 438.5 c 128,-1,55
 871 411 871 411 974 411 c 0,28,29
592 754 m 1,56,-1
 694 779 l 1,57,-1
 694 1553 l 1,58,-1
 592 1576 l 1,59,-1
 592 1650 l 1,60,-1
 739 1650 l 1,61,62
 769 1649 769 1649 790.5 1649.5 c 128,-1,63
 812 1650 812 1650 838.5 1651.5 c 128,-1,64
 865 1653 865 1653 902.5 1654.5 c 128,-1,65
 940 1656 940 1656 1003 1657 c 1,66,67
 1088 1657 1088 1657 1151.5 1640 c 128,-1,68
 1215 1623 1215 1623 1257.5 1591.5 c 128,-1,69
 1300 1560 1300 1560 1321 1516.5 c 128,-1,70
 1342 1473 1342 1473 1344 1419 c 1,71,72
 1344 1374 1344 1374 1333.5 1327.5 c 128,-1,73
 1323 1281 1323 1281 1293.5 1239.5 c 128,-1,74
 1264 1198 1264 1198 1213 1166.5 c 128,-1,75
 1162 1135 1162 1135 1081 1121 c 1,76,77
 1126 1096 1126 1096 1158 1059.5 c 128,-1,78
 1190 1023 1190 1023 1215 983 c 128,-1,79
 1240 943 1240 943 1261.5 903.5 c 128,-1,80
 1283 864 1283 864 1307 832 c 128,-1,81
 1331 800 1331 800 1360 780.5 c 128,-1,82
 1389 761 1389 761 1430 761 c 1,83,-1
 1430 687 l 1,84,-1
 1312 687 l 2,85,86
 1265 687 1265 687 1234 712 c 128,-1,87
 1203 737 1203 737 1179.5 776.5 c 128,-1,88
 1156 816 1156 816 1135.5 864 c 128,-1,89
 1115 912 1115 912 1090.5 958.5 c 128,-1,90
 1066 1005 1066 1005 1033 1044 c 128,-1,91
 1000 1083 1000 1083 950 1104 c 1,92,93
 921 1104 921 1104 891.5 1103.5 c 128,-1,94
 862 1103 862 1103 830 1104 c 1,95,-1
 830 776 l 1,96,-1
 941 754 l 1,97,-1
 941 688 l 1,98,-1
 592 688 l 1,99,-1
 592 754 l 1,56,-1
830 1185 m 1,100,101
 865 1180 865 1180 901 1178.5 c 128,-1,102
 937 1177 937 1177 988 1178 c 0,103,104
 1039 1178 1039 1178 1079.5 1195 c 128,-1,105
 1120 1212 1120 1212 1148.5 1240.5 c 128,-1,106
 1177 1269 1177 1269 1192 1305.5 c 128,-1,107
 1207 1342 1207 1342 1207 1382 c 0,108,109
 1207 1433 1207 1433 1189.5 1470 c 128,-1,110
 1172 1507 1172 1507 1141.5 1530 c 128,-1,111
 1111 1553 1111 1553 1070 1564 c 128,-1,112
 1029 1575 1029 1575 983 1575 c 0,113,114
 963 1575 963 1575 946 1575 c 128,-1,115
 929 1575 929 1575 911.5 1574.5 c 128,-1,116
 894 1574 894 1574 874.5 1571.5 c 128,-1,117
 855 1569 855 1569 830 1564 c 1,118,-1
 830 1185 l 1,100,101
EndSplineSet
EndChar

StartChar: macron
Encoding: 175 175 113
Width: 959
GlyphClass: 2
Flags: W
LayerCount: 2
Fore
SplineSet
214 1584 m 1,0,-1
 745 1584 l 1,1,-1
 745 1467 l 1,2,-1
 214 1467 l 1,3,-1
 214 1584 l 1,0,-1
EndSplineSet
EndChar

StartChar: degree
Encoding: 176 176 114
Width: 708
GlyphClass: 2
Flags: W
LayerCount: 2
Fore
SplineSet
353 1052 m 0,0,1
 288 1052 288 1052 230 1077 c 128,-1,2
 172 1102 172 1102 128.5 1145 c 128,-1,3
 85 1188 85 1188 60 1245.5 c 128,-1,4
 35 1303 35 1303 35 1368 c 256,5,6
 35 1433 35 1433 60 1490.5 c 128,-1,7
 85 1548 85 1548 128.5 1591 c 128,-1,8
 172 1634 172 1634 230 1659 c 128,-1,9
 288 1684 288 1684 353 1684 c 0,10,11
 419 1684 419 1684 477 1659 c 128,-1,12
 535 1634 535 1634 578.5 1591.5 c 128,-1,13
 622 1549 622 1549 647 1491.5 c 128,-1,14
 672 1434 672 1434 672 1368 c 0,15,16
 672 1303 672 1303 647 1245.5 c 128,-1,17
 622 1188 622 1188 578.5 1145 c 128,-1,18
 535 1102 535 1102 477 1077 c 128,-1,19
 419 1052 419 1052 353 1052 c 0,0,1
354 1140 m 256,20,21
 401 1140 401 1140 442 1158.5 c 128,-1,22
 483 1177 483 1177 513.5 1208 c 128,-1,23
 544 1239 544 1239 561.5 1280.5 c 128,-1,24
 579 1322 579 1322 579 1369 c 256,25,26
 579 1416 579 1416 561.5 1457.5 c 128,-1,27
 544 1499 544 1499 513.5 1529.5 c 128,-1,28
 483 1560 483 1560 442 1578 c 128,-1,29
 401 1596 401 1596 354 1596 c 256,30,31
 307 1596 307 1596 265.5 1578 c 128,-1,32
 224 1560 224 1560 193.5 1529 c 128,-1,33
 163 1498 163 1498 145.5 1456.5 c 128,-1,34
 128 1415 128 1415 128 1369 c 0,35,36
 128 1322 128 1322 145.5 1280.5 c 128,-1,37
 163 1239 163 1239 193.5 1208 c 128,-1,38
 224 1177 224 1177 265.5 1158.5 c 128,-1,39
 307 1140 307 1140 354 1140 c 256,20,21
EndSplineSet
EndChar

StartChar: plusminus
Encoding: 177 177 115
Width: 1233
GlyphClass: 2
Flags: W
LayerCount: 2
Fore
SplineSet
552 579 m 1,0,-1
 558 739 l 1,1,-1
 401 731 l 1,2,-1
 160 731 l 1,3,-1
 160 862 l 1,4,-1
 401 862 l 1,5,-1
 558 851 l 1,6,-1
 552 1012 l 1,7,-1
 552 1260 l 1,8,-1
 679 1260 l 1,9,-1
 679 1012 l 1,10,-1
 672 851 l 1,11,-1
 811 862 l 1,12,-1
 1073 862 l 1,13,-1
 1073 731 l 1,14,-1
 811 731 l 1,15,-1
 672 739 l 1,16,-1
 679 579 l 1,17,-1
 679 321 l 1,18,-1
 552 321 l 1,19,-1
 552 579 l 1,0,-1
173 177 m 1,20,-1
 1058 177 l 1,21,-1
 1058 66 l 1,22,-1
 173 66 l 1,23,-1
 173 177 l 1,20,-1
EndSplineSet
EndChar

StartChar: twosuperior
Encoding: 178 178 116
Width: 1256
GlyphClass: 2
Flags: W
LayerCount: 2
Fore
SplineSet
186 794 m 1,0,1
 324 875 324 875 444 951.5 c 128,-1,2
 564 1028 564 1028 653 1103.5 c 128,-1,3
 742 1179 742 1179 793 1256 c 128,-1,4
 844 1333 844 1333 844 1415 c 0,5,6
 844 1456 844 1456 830 1492 c 128,-1,7
 816 1528 816 1528 786 1554.5 c 128,-1,8
 756 1581 756 1581 708.5 1595.5 c 128,-1,9
 661 1610 661 1610 593 1608 c 0,10,11
 539 1606 539 1606 486.5 1591 c 128,-1,12
 434 1576 434 1576 387 1552.5 c 128,-1,13
 340 1529 340 1529 299.5 1500 c 128,-1,14
 259 1471 259 1471 229 1441 c 1,15,-1
 187 1520 l 1,16,17
 215 1555 215 1555 260.5 1589.5 c 128,-1,18
 306 1624 306 1624 363.5 1651 c 128,-1,19
 421 1678 421 1678 488 1695 c 128,-1,20
 555 1712 555 1712 626 1712 c 0,21,22
 720 1712 720 1712 789 1690 c 128,-1,23
 858 1668 858 1668 903 1630.5 c 128,-1,24
 948 1593 948 1593 969.5 1542 c 128,-1,25
 991 1491 991 1491 991 1434 c 0,26,27
 990 1339 990 1339 943.5 1257 c 128,-1,28
 897 1175 897 1175 814.5 1099.5 c 128,-1,29
 732 1024 732 1024 619.5 951 c 128,-1,30
 507 878 507 878 374 800 c 1,31,-1
 963 839 l 1,32,-1
 1048 1016 l 1,33,-1
 1115 995 l 1,34,-1
 1047 720 l 1,35,-1
 221 720 l 1,36,-1
 186 794 l 1,0,1
EndSplineSet
EndChar

StartChar: threesuperior
Encoding: 179 179 117
Width: 1063
GlyphClass: 2
Flags: W
LayerCount: 2
Fore
SplineSet
218 788 m 1,0,1
 251 780 251 780 287 774 c 128,-1,2
 323 768 323 768 358.5 764 c 128,-1,3
 394 760 394 760 426.5 758.5 c 128,-1,4
 459 757 459 757 485 757 c 0,5,6
 650 759 650 759 735.5 825 c 128,-1,7
 821 891 821 891 821 1003 c 0,8,9
 821 1030 821 1030 809.5 1061 c 128,-1,10
 798 1092 798 1092 767.5 1118 c 128,-1,11
 737 1144 737 1144 683.5 1161 c 128,-1,12
 630 1178 630 1178 545 1177 c 1,13,-1
 368 1143 l 1,14,-1
 368 1237 l 1,15,16
 570 1266 570 1266 661.5 1329.5 c 128,-1,17
 753 1393 753 1393 753 1488 c 0,18,19
 753 1518 753 1518 739 1543.5 c 128,-1,20
 725 1569 725 1569 697.5 1587 c 128,-1,21
 670 1605 670 1605 628.5 1614.5 c 128,-1,22
 587 1624 587 1624 532 1622 c 0,23,24
 493 1620 493 1620 448 1611 c 128,-1,25
 403 1602 403 1602 360.5 1588 c 128,-1,26
 318 1574 318 1574 281 1556 c 128,-1,27
 244 1538 244 1538 221 1519 c 1,28,-1
 182 1573 l 1,29,30
 206 1592 206 1592 245 1615 c 128,-1,31
 284 1638 284 1638 333 1658 c 128,-1,32
 382 1678 382 1678 437 1693 c 128,-1,33
 492 1708 492 1708 548 1712 c 0,34,35
 638 1719 638 1719 704.5 1707.5 c 128,-1,36
 771 1696 771 1696 814.5 1669 c 128,-1,37
 858 1642 858 1642 879.5 1601 c 128,-1,38
 901 1560 901 1560 901 1508 c 0,39,40
 901 1466 901 1466 885 1426.5 c 128,-1,41
 869 1387 869 1387 838 1352.5 c 128,-1,42
 807 1318 807 1318 761 1289.5 c 128,-1,43
 715 1261 715 1261 654 1243 c 1,44,45
 756 1244 756 1244 818.5 1222 c 128,-1,46
 881 1200 881 1200 915.5 1164.5 c 128,-1,47
 950 1129 950 1129 961.5 1086.5 c 128,-1,48
 973 1044 973 1044 973 1004 c 0,49,50
 973 932 973 932 940.5 871.5 c 128,-1,51
 908 811 908 811 847 767 c 128,-1,52
 786 723 786 723 699 698.5 c 128,-1,53
 612 674 612 674 504 675 c 0,54,55
 474 675 474 675 439 678 c 128,-1,56
 404 681 404 681 366.5 685.5 c 128,-1,57
 329 690 329 690 291 696.5 c 128,-1,58
 253 703 253 703 218 712 c 1,59,-1
 218 788 l 1,0,1
EndSplineSet
EndChar

StartChar: acute
Encoding: 180 180 118
Width: 828
GlyphClass: 2
Flags: W
LayerCount: 2
Fore
SplineSet
372 1389 m 1,0,-1
 705 1796 l 1,1,-1
 811 1688 l 1,2,3
 787 1652 787 1652 739.5 1605.5 c 128,-1,4
 692 1559 692 1559 635 1511.5 c 128,-1,5
 578 1464 578 1464 519.5 1420 c 128,-1,6
 461 1376 461 1376 415 1345 c 1,7,-1
 372 1389 l 1,0,-1
EndSplineSet
EndChar

StartChar: mu
Encoding: 181 181 119
AltUni2: 0003bc.ffffffff.0
Width: 1229
GlyphClass: 2
Flags: W
LayerCount: 2
Fore
SplineSet
341 -462 m 1,0,-1
 208 -462 l 1,1,-1
 208 1017 l 1,2,-1
 105 1037 l 1,3,-1
 105 1097 l 1,4,-1
 311 1139 l 1,5,-1
 341 1121 l 1,6,-1
 341 424 l 1,7,8
 342 337 342 337 353 272.5 c 128,-1,9
 364 208 364 208 392 166 c 128,-1,10
 420 124 420 124 467.5 103.5 c 128,-1,11
 515 83 515 83 589 83 c 0,12,13
 647 83 647 83 701 99 c 128,-1,14
 755 115 755 115 799.5 137.5 c 128,-1,15
 844 160 844 160 875.5 182.5 c 128,-1,16
 907 205 907 205 922 219 c 1,17,-1
 922 1008 l 1,18,-1
 797 1030 l 1,19,-1
 797 1093 l 1,20,-1
 1036 1138 l 1,21,-1
 1064 1121 l 1,22,-1
 1064 71 l 1,23,-1
 1191 71 l 1,24,-1
 1191 10 l 1,25,26
 1177 4 1177 4 1156.5 -2 c 128,-1,27
 1136 -8 1136 -8 1113.5 -12.5 c 128,-1,28
 1091 -17 1091 -17 1068.5 -20 c 128,-1,29
 1046 -23 1046 -23 1028 -23 c 0,30,31
 983 -23 983 -23 959.5 -5 c 128,-1,32
 936 13 936 13 936 52 c 2,33,-1
 936 142 l 1,34,35
 857 67 857 67 762.5 23 c 128,-1,36
 668 -21 668 -21 565 -21 c 0,37,38
 473 -21 473 -21 421.5 2 c 128,-1,39
 370 25 370 25 341 67 c 1,40,-1
 341 -462 l 1,0,-1
EndSplineSet
EndChar

StartChar: paragraph
Encoding: 182 182 120
Width: 1259
GlyphClass: 2
Flags: W
LayerCount: 2
Fore
SplineSet
376 66 m 1,0,-1
 575 89 l 1,1,-1
 575 676 l 1,2,3
 468 676 468 676 382.5 702.5 c 128,-1,4
 297 729 297 729 236.5 784.5 c 128,-1,5
 176 840 176 840 143.5 925 c 128,-1,6
 111 1010 111 1010 111 1127 c 0,7,8
 111 1225 111 1225 141.5 1303.5 c 128,-1,9
 172 1382 172 1382 235.5 1437 c 128,-1,10
 299 1492 299 1492 396.5 1521.5 c 128,-1,11
 494 1551 494 1551 627 1551 c 0,12,13
 661 1551 661 1551 712.5 1548.5 c 128,-1,14
 764 1546 764 1546 820 1542.5 c 128,-1,15
 876 1539 876 1539 931.5 1535.5 c 128,-1,16
 987 1532 987 1532 1029 1531 c 1,17,-1
 1200 1531 l 1,18,-1
 1200 1453 l 1,19,-1
 1028 1429 l 1,20,-1
 1028 89 l 1,21,-1
 1176 66 l 1,22,-1
 1176 0 l 1,23,-1
 929 0 l 1,24,-1
 927 1429 l 1,25,26
 902 1429 902 1429 870.5 1430 c 128,-1,27
 839 1431 839 1431 804.5 1432.5 c 128,-1,28
 770 1434 770 1434 736 1434.5 c 128,-1,29
 702 1435 702 1435 672 1435 c 1,30,-1
 672 0 l 1,31,-1
 376 0 l 1,32,-1
 376 66 l 1,0,-1
EndSplineSet
EndChar

StartChar: periodcentered
Encoding: 183 183 121
Width: 706
GlyphClass: 2
Flags: W
LayerCount: 2
Fore
SplineSet
345 706 m 0,0,1
 326 706 326 706 308 712.5 c 128,-1,2
 290 719 290 719 276.5 731.5 c 128,-1,3
 263 744 263 744 254.5 761.5 c 128,-1,4
 246 779 246 779 246 801 c 0,5,6
 246 824 246 824 256.5 844.5 c 128,-1,7
 267 865 267 865 283.5 880 c 128,-1,8
 300 895 300 895 321 904 c 128,-1,9
 342 913 342 913 363 913 c 0,10,11
 415 913 415 913 438.5 884.5 c 128,-1,12
 462 856 462 856 462 817 c 0,13,14
 462 792 462 792 452 771.5 c 128,-1,15
 442 751 442 751 425.5 736.5 c 128,-1,16
 409 722 409 722 388 714 c 128,-1,17
 367 706 367 706 345 706 c 0,0,1
EndSplineSet
EndChar

StartChar: cedilla
Encoding: 184 184 122
Width: 615
GlyphClass: 2
Flags: W
LayerCount: 2
Fore
SplineSet
213 0 m 1,0,1
 209 -25 209 -25 207 -60.5 c 128,-1,2
 205 -96 205 -96 208 -127 c 1,3,4
 278 -125 278 -125 329.5 -141 c 128,-1,5
 381 -157 381 -157 415 -184.5 c 128,-1,6
 449 -212 449 -212 465.5 -248.5 c 128,-1,7
 482 -285 482 -285 482 -324 c 0,8,9
 482 -374 482 -374 463.5 -411 c 128,-1,10
 445 -448 445 -448 412 -472.5 c 128,-1,11
 379 -497 379 -497 333 -510.5 c 128,-1,12
 287 -524 287 -524 232 -527 c 0,13,14
 188 -529 188 -529 157 -527.5 c 128,-1,15
 126 -526 126 -526 103.5 -522.5 c 128,-1,16
 81 -519 81 -519 64 -514.5 c 128,-1,17
 47 -510 47 -510 31 -506 c 1,18,-1
 32 -424 l 1,19,20
 44 -427 44 -427 60 -430 c 128,-1,21
 76 -433 76 -433 93 -436 c 128,-1,22
 110 -439 110 -439 127.5 -440.5 c 128,-1,23
 145 -442 145 -442 160 -442 c 0,24,25
 188 -442 188 -442 219 -438 c 128,-1,26
 250 -434 250 -434 276.5 -421.5 c 128,-1,27
 303 -409 303 -409 320 -384.5 c 128,-1,28
 337 -360 337 -360 337 -318 c 0,29,30
 337 -285 337 -285 322 -261 c 128,-1,31
 307 -237 307 -237 280.5 -221.5 c 128,-1,32
 254 -206 254 -206 218.5 -199.5 c 128,-1,33
 183 -193 183 -193 142 -194 c 0,34,35
 131 -194 131 -194 114.5 -195.5 c 128,-1,36
 98 -197 98 -197 95 -198 c 1,37,38
 96 -149 96 -149 100 -101 c 128,-1,39
 104 -53 104 -53 119 0 c 1,40,-1
 213 0 l 1,0,1
EndSplineSet
EndChar

StartChar: onesuperior
Encoding: 185 185 123
Width: 1085
GlyphClass: 2
Flags: W
LayerCount: 2
Fore
SplineSet
267 786 m 1,0,-1
 565 807 l 1,1,-1
 565 1546 l 1,2,3
 487 1519 487 1519 417 1493.5 c 128,-1,4
 347 1468 347 1468 270 1448 c 1,5,-1
 255 1528 l 1,6,7
 285 1537 285 1537 323.5 1552 c 128,-1,8
 362 1567 362 1567 403 1585.5 c 128,-1,9
 444 1604 444 1604 484.5 1624.5 c 128,-1,10
 525 1645 525 1645 560 1663.5 c 128,-1,11
 595 1682 595 1682 621 1698 c 128,-1,12
 647 1714 647 1714 659 1724 c 1,13,-1
 711 1709 l 1,14,-1
 709 807 l 1,15,-1
 984 786 l 1,16,-1
 984 718 l 1,17,-1
 267 718 l 1,18,-1
 267 786 l 1,0,-1
EndSplineSet
EndChar

StartChar: ordmasculine
Encoding: 186 186 124
Width: 1063
GlyphClass: 2
Flags: W
LayerCount: 2
Fore
SplineSet
519 684 m 0,0,1
 435 684 435 684 362 712.5 c 128,-1,2
 289 741 289 741 235.5 796 c 128,-1,3
 182 851 182 851 152 931 c 128,-1,4
 122 1011 122 1011 124 1114 c 0,5,6
 126 1227 126 1227 165 1307.5 c 128,-1,7
 204 1388 204 1388 264 1440 c 128,-1,8
 324 1492 324 1492 397.5 1516.5 c 128,-1,9
 471 1541 471 1541 543 1542 c 0,10,11
 636 1543 636 1543 709.5 1513 c 128,-1,12
 783 1483 783 1483 834 1426.5 c 128,-1,13
 885 1370 885 1370 912 1288.5 c 128,-1,14
 939 1207 939 1207 938 1104 c 0,15,16
 937 992 937 992 897.5 912.5 c 128,-1,17
 858 833 858 833 797 782.5 c 128,-1,18
 736 732 736 732 662 708 c 128,-1,19
 588 684 588 684 519 684 c 0,0,1
520 766 m 0,20,21
 654 762 654 762 721 841.5 c 128,-1,22
 788 921 788 921 788 1092 c 0,23,24
 788 1176 788 1176 772.5 1243.5 c 128,-1,25
 757 1311 757 1311 725.5 1358.5 c 128,-1,26
 694 1406 694 1406 646 1432 c 128,-1,27
 598 1458 598 1458 534 1459 c 256,28,29
 470 1460 470 1460 421.5 1436.5 c 128,-1,30
 373 1413 373 1413 340 1369 c 128,-1,31
 307 1325 307 1325 290.5 1262.5 c 128,-1,32
 274 1200 274 1200 274 1124 c 0,33,34
 274 1041 274 1041 292 975 c 128,-1,35
 310 909 310 909 342.5 863 c 128,-1,36
 375 817 375 817 420.5 792 c 128,-1,37
 466 767 466 767 520 766 c 0,20,21
EndSplineSet
EndChar

StartChar: guillemotright
Encoding: 187 187 125
Width: 1896
GlyphClass: 2
Flags: W
LayerCount: 2
Fore
SplineSet
1509 615 m 1,0,-1
 958 1005 l 1,1,-1
 998 1075 l 1,2,-1
 1646 714 l 1,3,-1
 1646 536 l 1,4,-1
 998 163 l 1,5,-1
 958 228 l 1,6,-1
 1509 615 l 1,0,-1
250 228 m 1,7,-1
 801 615 l 1,8,-1
 250 1005 l 1,9,-1
 290 1075 l 1,10,-1
 938 714 l 1,11,-1
 938 536 l 1,12,-1
 290 163 l 1,13,-1
 250 228 l 1,7,-1
EndSplineSet
EndChar

StartChar: onequarter
Encoding: 188 188 126
Width: 2626
GlyphClass: 2
Flags: W
LayerCount: 2
Fore
SplineSet
1526 1881 m 1,0,-1
 1634 1881 l 1,1,-1
 1008 -343 l 1,2,-1
 898 -342 l 1,3,-1
 1526 1881 l 1,0,-1
267 786 m 1,4,-1
 565 807 l 1,5,-1
 565 1546 l 1,6,7
 487 1519 487 1519 417 1493.5 c 128,-1,8
 347 1468 347 1468 270 1448 c 1,9,-1
 255 1528 l 1,10,11
 285 1537 285 1537 323.5 1552 c 128,-1,12
 362 1567 362 1567 403 1585.5 c 128,-1,13
 444 1604 444 1604 484.5 1624.5 c 128,-1,14
 525 1645 525 1645 560 1663.5 c 128,-1,15
 595 1682 595 1682 621 1698 c 128,-1,16
 647 1714 647 1714 659 1724 c 1,17,-1
 711 1709 l 1,18,-1
 709 807 l 1,19,-1
 984 786 l 1,20,-1
 984 718 l 1,21,-1
 267 718 l 1,22,-1
 267 786 l 1,4,-1
1996 1120 m 1,23,-1
 2046 1120 l 1,24,-1
 2119 1056 l 1,25,-1
 1616 342 l 1,26,-1
 1569 270 l 1,27,-1
 2069 292 l 1,28,-1
 2071 595 l 1,29,-1
 2202 613 l 1,30,-1
 2202 298 l 1,31,-1
 2478 310 l 1,32,-1
 2480 181 l 1,33,-1
 2202 181 l 1,34,-1
 2202 -184 l 1,35,-1
 2066 -184 l 1,36,-1
 2068 181 l 1,37,-1
 1461 181 l 1,38,-1
 1436 256 l 1,39,-1
 1996 1120 l 1,23,-1
EndSplineSet
EndChar

StartChar: onehalf
Encoding: 189 189 127
Width: 2626
GlyphClass: 2
Flags: W
LayerCount: 2
Fore
SplineSet
1526 1881 m 1,0,-1
 1634 1881 l 1,1,-1
 1008 -343 l 1,2,-1
 898 -342 l 1,3,-1
 1526 1881 l 1,0,-1
267 786 m 1,4,-1
 565 807 l 1,5,-1
 565 1546 l 1,6,7
 487 1519 487 1519 417 1493.5 c 128,-1,8
 347 1468 347 1468 270 1448 c 1,9,-1
 255 1528 l 1,10,11
 285 1537 285 1537 323.5 1552 c 128,-1,12
 362 1567 362 1567 403 1585.5 c 128,-1,13
 444 1604 444 1604 484.5 1624.5 c 128,-1,14
 525 1645 525 1645 560 1663.5 c 128,-1,15
 595 1682 595 1682 621 1698 c 128,-1,16
 647 1714 647 1714 659 1724 c 1,17,-1
 711 1709 l 1,18,-1
 709 807 l 1,19,-1
 984 786 l 1,20,-1
 984 718 l 1,21,-1
 267 718 l 1,22,-1
 267 786 l 1,4,-1
1585 74 m 1,23,24
 1723 155 1723 155 1845.5 227 c 128,-1,25
 1968 299 1968 299 2060 369.5 c 128,-1,26
 2152 440 2152 440 2206 513 c 128,-1,27
 2260 586 2260 586 2260 670 c 0,28,29
 2260 779 2260 779 2192.5 829 c 128,-1,30
 2125 879 2125 879 1994 879 c 0,31,32
 1947 879 1947 879 1897.5 865.5 c 128,-1,33
 1848 852 1848 852 1801.5 829.5 c 128,-1,34
 1755 807 1755 807 1714.5 779 c 128,-1,35
 1674 751 1674 751 1644 721 c 1,36,-1
 1602 787 l 1,37,38
 1630 823 1630 823 1678 857.5 c 128,-1,39
 1726 892 1726 892 1786 919 c 128,-1,40
 1846 946 1846 946 1913.5 962.5 c 128,-1,41
 1981 979 1981 979 2049 979 c 0,42,43
 2144 979 2144 979 2211.5 956.5 c 128,-1,44
 2279 934 2279 934 2322.5 897 c 128,-1,45
 2366 860 2366 860 2386.5 811.5 c 128,-1,46
 2407 763 2407 763 2407 711 c 0,47,48
 2407 644 2407 644 2383.5 585.5 c 128,-1,49
 2360 527 2360 527 2317 474 c 128,-1,50
 2274 421 2274 421 2213.5 372 c 128,-1,51
 2153 323 2153 323 2080 275 c 128,-1,52
 2007 227 2007 227 1923 179 c 128,-1,53
 1839 131 1839 131 1749 79 c 1,54,-1
 2365 111 l 1,55,-1
 2455 269 l 1,56,-1
 2522 248 l 1,57,-1
 2462 0 l 1,58,-1
 1613 0 l 1,59,-1
 1585 74 l 1,23,24
EndSplineSet
EndChar

StartChar: threequarters
Encoding: 190 190 128
Width: 2795
GlyphClass: 2
Flags: W
LayerCount: 2
Fore
SplineSet
1526 1881 m 1,0,-1
 1634 1881 l 1,1,-1
 1008 -343 l 1,2,-1
 898 -342 l 1,3,-1
 1526 1881 l 1,0,-1
218 788 m 1,4,5
 251 780 251 780 287 774 c 128,-1,6
 323 768 323 768 358.5 764 c 128,-1,7
 394 760 394 760 426.5 758.5 c 128,-1,8
 459 757 459 757 485 757 c 0,9,10
 650 759 650 759 735.5 825 c 128,-1,11
 821 891 821 891 821 1003 c 0,12,13
 821 1030 821 1030 809.5 1061 c 128,-1,14
 798 1092 798 1092 767.5 1118 c 128,-1,15
 737 1144 737 1144 683.5 1161 c 128,-1,16
 630 1178 630 1178 545 1177 c 1,17,-1
 368 1143 l 1,18,-1
 368 1237 l 1,19,20
 570 1266 570 1266 661.5 1329.5 c 128,-1,21
 753 1393 753 1393 753 1488 c 0,22,23
 753 1518 753 1518 739 1543.5 c 128,-1,24
 725 1569 725 1569 697.5 1587 c 128,-1,25
 670 1605 670 1605 628.5 1614.5 c 128,-1,26
 587 1624 587 1624 532 1622 c 0,27,28
 493 1620 493 1620 448 1611 c 128,-1,29
 403 1602 403 1602 360.5 1588 c 128,-1,30
 318 1574 318 1574 281 1556 c 128,-1,31
 244 1538 244 1538 221 1519 c 1,32,-1
 182 1573 l 1,33,34
 206 1592 206 1592 245 1615 c 128,-1,35
 284 1638 284 1638 333 1658 c 128,-1,36
 382 1678 382 1678 437 1693 c 128,-1,37
 492 1708 492 1708 548 1712 c 0,38,39
 638 1719 638 1719 704.5 1707.5 c 128,-1,40
 771 1696 771 1696 814.5 1669 c 128,-1,41
 858 1642 858 1642 879.5 1601 c 128,-1,42
 901 1560 901 1560 901 1508 c 0,43,44
 901 1466 901 1466 885 1426.5 c 128,-1,45
 869 1387 869 1387 838 1352.5 c 128,-1,46
 807 1318 807 1318 761 1289.5 c 128,-1,47
 715 1261 715 1261 654 1243 c 1,48,49
 756 1244 756 1244 818.5 1222 c 128,-1,50
 881 1200 881 1200 915.5 1164.5 c 128,-1,51
 950 1129 950 1129 961.5 1086.5 c 128,-1,52
 973 1044 973 1044 973 1004 c 0,53,54
 973 932 973 932 940.5 871.5 c 128,-1,55
 908 811 908 811 847 767 c 128,-1,56
 786 723 786 723 699 698.5 c 128,-1,57
 612 674 612 674 504 675 c 0,58,59
 474 675 474 675 439 678 c 128,-1,60
 404 681 404 681 366.5 685.5 c 128,-1,61
 329 690 329 690 291 696.5 c 128,-1,62
 253 703 253 703 218 712 c 1,63,-1
 218 788 l 1,4,5
1996 1120 m 1,64,-1
 2046 1120 l 1,65,-1
 2119 1056 l 1,66,-1
 1616 342 l 1,67,-1
 1569 270 l 1,68,-1
 2069 292 l 1,69,-1
 2071 595 l 1,70,-1
 2202 613 l 1,71,-1
 2202 298 l 1,72,-1
 2478 310 l 1,73,-1
 2480 181 l 1,74,-1
 2202 181 l 1,75,-1
 2202 -184 l 1,76,-1
 2066 -184 l 1,77,-1
 2068 181 l 1,78,-1
 1460 181 l 1,79,-1
 1436 256 l 1,80,-1
 1996 1120 l 1,64,-1
EndSplineSet
EndChar

StartChar: questiondown
Encoding: 191 191 129
Width: 1012
GlyphClass: 2
Flags: W
LayerCount: 2
Fore
SplineSet
413 1229 m 0,0,1
 394 1229 394 1229 376 1235.5 c 128,-1,2
 358 1242 358 1242 344.5 1254.5 c 128,-1,3
 331 1267 331 1267 322.5 1284.5 c 128,-1,4
 314 1302 314 1302 314 1324 c 0,5,6
 314 1347 314 1347 324.5 1367.5 c 128,-1,7
 335 1388 335 1388 351.5 1403 c 128,-1,8
 368 1418 368 1418 389 1427 c 128,-1,9
 410 1436 410 1436 431 1436 c 0,10,11
 483 1436 483 1436 506.5 1407.5 c 128,-1,12
 530 1379 530 1379 530 1340 c 0,13,14
 530 1315 530 1315 520 1294.5 c 128,-1,15
 510 1274 510 1274 493.5 1259.5 c 128,-1,16
 477 1245 477 1245 456 1237 c 128,-1,17
 435 1229 435 1229 413 1229 c 0,0,1
58 214 m 1,18,19
 58 257 58 257 91.5 292.5 c 128,-1,20
 125 328 125 328 175.5 358 c 128,-1,21
 226 388 226 388 286 415 c 128,-1,22
 346 442 346 442 399.5 468 c 128,-1,23
 453 494 453 494 492 521 c 128,-1,24
 531 548 531 548 540 579 c 1,25,26
 545 622 545 622 536 666.5 c 128,-1,27
 527 711 527 711 511 754.5 c 128,-1,28
 495 798 495 798 474.5 841 c 128,-1,29
 454 884 454 884 436 926 c 1,30,-1
 521 926 l 1,31,32
 535 913 535 913 552.5 890.5 c 128,-1,33
 570 868 570 868 588 839 c 128,-1,34
 606 810 606 810 623 776.5 c 128,-1,35
 640 743 640 743 653.5 709.5 c 128,-1,36
 667 676 667 676 674.5 643.5 c 128,-1,37
 682 611 682 611 682 584 c 0,38,39
 682 543 682 543 645 510 c 128,-1,40
 608 477 608 477 552.5 447.5 c 128,-1,41
 497 418 497 418 432 391.5 c 128,-1,42
 367 365 367 365 310 338.5 c 128,-1,43
 253 312 253 312 213 284 c 128,-1,44
 173 256 173 256 168 223 c 1,45,46
 164 118 164 118 203.5 25.5 c 128,-1,47
 243 -67 243 -67 313 -136.5 c 128,-1,48
 383 -206 383 -206 477.5 -246.5 c 128,-1,49
 572 -287 572 -287 679 -287 c 0,50,51
 700 -287 700 -287 723.5 -285.5 c 128,-1,52
 747 -284 747 -284 770.5 -280 c 128,-1,53
 794 -276 794 -276 814.5 -271 c 128,-1,54
 835 -266 835 -266 850 -258 c 1,55,-1
 850 -373 l 1,56,57
 843 -382 843 -382 823.5 -390 c 128,-1,58
 804 -398 804 -398 778 -404 c 128,-1,59
 752 -410 752 -410 721.5 -414 c 128,-1,60
 691 -418 691 -418 663 -418 c 0,61,62
 548 -418 548 -418 457 -390.5 c 128,-1,63
 366 -363 366 -363 296.5 -316 c 128,-1,64
 227 -269 227 -269 179 -206 c 128,-1,65
 131 -143 131 -143 102 -73 c 128,-1,66
 73 -3 73 -3 62.5 71 c 128,-1,67
 52 145 52 145 58 214 c 1,18,19
EndSplineSet
EndChar

StartChar: Agrave
Encoding: 192 192 130
Width: 1502
GlyphClass: 2
Flags: W
LayerCount: 2
Fore
SplineSet
809 1628 m 1,0,1
 759 1654 759 1654 705.5 1685 c 128,-1,2
 652 1716 652 1716 602 1751 c 128,-1,3
 552 1786 552 1786 509 1824.5 c 128,-1,4
 466 1863 466 1863 437 1905 c 1,5,-1
 543 2013 l 1,6,-1
 851 1671 l 1,7,-1
 809 1628 l 1,0,1
4 67 m 1,8,-1
 151 91 l 1,9,-1
 684 1541 l 1,10,-1
 814 1541 l 1,11,-1
 1322 92 l 1,12,-1
 1497 67 l 1,13,-1
 1497 0 l 1,14,-1
 983 0 l 1,15,-1
 983 67 l 1,16,-1
 1159 91 l 1,17,-1
 1036 456 l 1,18,-1
 406 456 l 1,19,-1
 280 90 l 1,20,-1
 467 67 l 1,21,-1
 467 0 l 1,22,-1
 4 0 l 1,23,-1
 4 67 l 1,8,-1
1005 546 m 1,24,-1
 775 1229 l 1,25,-1
 727 1380 l 1,26,-1
 437 546 l 1,27,-1
 1005 546 l 1,24,-1
EndSplineSet
EndChar

StartChar: Aacute
Encoding: 193 193 131
Width: 1502
GlyphClass: 2
Flags: W
LayerCount: 2
Fore
SplineSet
723 1671 m 1,0,-1
 1038 2008 l 1,1,-1
 1136 1905 l 1,2,3
 1113 1866 1113 1866 1071 1827.5 c 128,-1,4
 1029 1789 1029 1789 977 1753 c 128,-1,5
 925 1717 925 1717 869.5 1685 c 128,-1,6
 814 1653 814 1653 765 1628 c 1,7,-1
 723 1671 l 1,0,-1
4 67 m 1,8,-1
 151 91 l 1,9,-1
 684 1541 l 1,10,-1
 814 1541 l 1,11,-1
 1322 92 l 1,12,-1
 1497 67 l 1,13,-1
 1497 0 l 1,14,-1
 983 0 l 1,15,-1
 983 67 l 1,16,-1
 1159 91 l 1,17,-1
 1036 456 l 1,18,-1
 406 456 l 1,19,-1
 280 90 l 1,20,-1
 467 67 l 1,21,-1
 467 0 l 1,22,-1
 4 0 l 1,23,-1
 4 67 l 1,8,-1
1005 546 m 1,24,-1
 775 1229 l 1,25,-1
 727 1380 l 1,26,-1
 437 546 l 1,27,-1
 1005 546 l 1,24,-1
EndSplineSet
EndChar

StartChar: Acircumflex
Encoding: 194 194 132
Width: 1502
GlyphClass: 2
Flags: W
LayerCount: 2
Fore
SplineSet
388 1635 m 1,0,-1
 677 1956 l 1,1,-1
 823 1956 l 1,2,-1
 1109 1635 l 1,3,-1
 1039 1598 l 1,4,-1
 748 1853 l 1,5,-1
 450 1598 l 1,6,-1
 388 1635 l 1,0,-1
4 67 m 1,7,-1
 151 91 l 1,8,-1
 684 1541 l 1,9,-1
 814 1541 l 1,10,-1
 1322 92 l 1,11,-1
 1497 67 l 1,12,-1
 1497 0 l 1,13,-1
 983 0 l 1,14,-1
 983 67 l 1,15,-1
 1159 91 l 1,16,-1
 1036 456 l 1,17,-1
 406 456 l 1,18,-1
 280 90 l 1,19,-1
 467 67 l 1,20,-1
 467 0 l 1,21,-1
 4 0 l 1,22,-1
 4 67 l 1,7,-1
1005 546 m 1,23,-1
 775 1229 l 1,24,-1
 727 1380 l 1,25,-1
 437 546 l 1,26,-1
 1005 546 l 1,23,-1
EndSplineSet
EndChar

StartChar: Atilde
Encoding: 195 195 133
Width: 1502
GlyphClass: 2
Flags: W
LayerCount: 2
Fore
SplineSet
366 1731 m 1,0,1
 385 1764 385 1764 413.5 1793.5 c 128,-1,2
 442 1823 442 1823 476.5 1845.5 c 128,-1,3
 511 1868 511 1868 550.5 1881 c 128,-1,4
 590 1894 590 1894 632 1894 c 0,5,6
 664 1894 664 1894 690 1883 c 128,-1,7
 716 1872 716 1872 738 1855 c 128,-1,8
 760 1838 760 1838 779.5 1818.5 c 128,-1,9
 799 1799 799 1799 818.5 1782 c 128,-1,10
 838 1765 838 1765 859.5 1754 c 128,-1,11
 881 1743 881 1743 907 1743 c 0,12,13
 939 1743 939 1743 967 1752.5 c 128,-1,14
 995 1762 995 1762 1019 1777.5 c 128,-1,15
 1043 1793 1043 1793 1063.5 1812 c 128,-1,16
 1084 1831 1084 1831 1101 1850 c 1,17,-1
 1142 1792 l 1,18,19
 1122 1759 1122 1759 1093.5 1729.5 c 128,-1,20
 1065 1700 1065 1700 1030.5 1677.5 c 128,-1,21
 996 1655 996 1655 956.5 1641.5 c 128,-1,22
 917 1628 917 1628 876 1628 c 0,23,24
 844 1628 844 1628 818 1639.5 c 128,-1,25
 792 1651 792 1651 770.5 1667.5 c 128,-1,26
 749 1684 749 1684 729.5 1704 c 128,-1,27
 710 1724 710 1724 690 1740.5 c 128,-1,28
 670 1757 670 1757 648.5 1768.5 c 128,-1,29
 627 1780 627 1780 601 1780 c 0,30,31
 569 1780 569 1780 541 1770.5 c 128,-1,32
 513 1761 513 1761 489 1745.5 c 128,-1,33
 465 1730 465 1730 444.5 1711 c 128,-1,34
 424 1692 424 1692 407 1673 c 1,35,-1
 366 1731 l 1,0,1
4 67 m 1,36,-1
 151 91 l 1,37,-1
 684 1541 l 1,38,-1
 814 1541 l 1,39,-1
 1322 92 l 1,40,-1
 1497 67 l 1,41,-1
 1497 0 l 1,42,-1
 983 0 l 1,43,-1
 983 67 l 1,44,-1
 1159 91 l 1,45,-1
 1036 456 l 1,46,-1
 406 456 l 1,47,-1
 280 90 l 1,48,-1
 467 67 l 1,49,-1
 467 0 l 1,50,-1
 4 0 l 1,51,-1
 4 67 l 1,36,-1
1005 546 m 1,52,-1
 775 1229 l 1,53,-1
 727 1380 l 1,54,-1
 437 546 l 1,55,-1
 1005 546 l 1,52,-1
EndSplineSet
EndChar

StartChar: Adieresis
Encoding: 196 196 134
Width: 1502
GlyphClass: 2
Flags: W
LayerCount: 2
Fore
SplineSet
967 1723 m 0,0,1
 948 1723 948 1723 930.5 1729.5 c 128,-1,2
 913 1736 913 1736 899.5 1748.5 c 128,-1,3
 886 1761 886 1761 877.5 1778.5 c 128,-1,4
 869 1796 869 1796 869 1818 c 0,5,6
 869 1842 869 1842 879.5 1862.5 c 128,-1,7
 890 1883 890 1883 906.5 1898 c 128,-1,8
 923 1913 923 1913 944 1921.5 c 128,-1,9
 965 1930 965 1930 986 1930 c 0,10,11
 1037 1930 1037 1930 1061 1901.5 c 128,-1,12
 1085 1873 1085 1873 1085 1835 c 0,13,14
 1085 1810 1085 1810 1075 1789.5 c 128,-1,15
 1065 1769 1065 1769 1048.5 1754 c 128,-1,16
 1032 1739 1032 1739 1010.5 1731 c 128,-1,17
 989 1723 989 1723 967 1723 c 0,0,1
510 1724 m 0,18,19
 491 1724 491 1724 473 1730.5 c 128,-1,20
 455 1737 455 1737 441.5 1749 c 128,-1,21
 428 1761 428 1761 420 1778.5 c 128,-1,22
 412 1796 412 1796 412 1818 c 0,23,24
 412 1842 412 1842 422.5 1862.5 c 128,-1,25
 433 1883 433 1883 449.5 1898 c 128,-1,26
 466 1913 466 1913 487 1921.5 c 128,-1,27
 508 1930 508 1930 529 1930 c 0,28,29
 580 1930 580 1930 604 1901.5 c 128,-1,30
 628 1873 628 1873 628 1835 c 0,31,32
 628 1810 628 1810 618 1789.5 c 128,-1,33
 608 1769 608 1769 591.5 1754.5 c 128,-1,34
 575 1740 575 1740 553.5 1732 c 128,-1,35
 532 1724 532 1724 510 1724 c 0,18,19
4 67 m 1,36,-1
 151 91 l 1,37,-1
 684 1541 l 1,38,-1
 814 1541 l 1,39,-1
 1322 92 l 1,40,-1
 1497 67 l 1,41,-1
 1497 0 l 1,42,-1
 983 0 l 1,43,-1
 983 67 l 1,44,-1
 1159 91 l 1,45,-1
 1036 456 l 1,46,-1
 406 456 l 1,47,-1
 280 90 l 1,48,-1
 467 67 l 1,49,-1
 467 0 l 1,50,-1
 4 0 l 1,51,-1
 4 67 l 1,36,-1
1005 546 m 1,52,-1
 775 1229 l 1,53,-1
 727 1380 l 1,54,-1
 437 546 l 1,55,-1
 1005 546 l 1,52,-1
EndSplineSet
EndChar

StartChar: Aring
Encoding: 197 197 135
Width: 1502
GlyphClass: 2
Flags: W
LayerCount: 2
Fore
SplineSet
4 67 m 1,0,-1
 151 91 l 1,1,-1
 663 1485 l 1,2,3
 627 1497 627 1497 596.5 1519.5 c 128,-1,4
 566 1542 566 1542 544.5 1571 c 128,-1,5
 523 1600 523 1600 510.5 1636 c 128,-1,6
 498 1672 498 1672 498 1711 c 0,7,8
 498 1761 498 1761 518 1805 c 128,-1,9
 538 1849 538 1849 572.5 1881.5 c 128,-1,10
 607 1914 607 1914 652.5 1933 c 128,-1,11
 698 1952 698 1952 750 1952 c 256,12,13
 802 1952 802 1952 847.5 1933 c 128,-1,14
 893 1914 893 1914 927.5 1881.5 c 128,-1,15
 962 1849 962 1849 982 1805 c 128,-1,16
 1002 1761 1002 1761 1002 1711 c 0,17,18
 1002 1672 1002 1672 989.5 1636 c 128,-1,19
 977 1600 977 1600 954.5 1570.5 c 128,-1,20
 932 1541 932 1541 901 1518.5 c 128,-1,21
 870 1496 870 1496 834 1484 c 1,22,-1
 1322 92 l 1,23,-1
 1497 67 l 1,24,-1
 1497 0 l 1,25,-1
 983 0 l 1,26,-1
 983 67 l 1,27,-1
 1159 91 l 1,28,-1
 1036 456 l 1,29,-1
 406 456 l 1,30,-1
 280 90 l 1,31,-1
 467 67 l 1,32,-1
 467 0 l 1,33,-1
 4 0 l 1,34,-1
 4 67 l 1,0,-1
750 1555 m 256,35,36
 782 1555 782 1555 810 1567 c 128,-1,37
 838 1579 838 1579 859 1600 c 128,-1,38
 880 1621 880 1621 892.5 1649 c 128,-1,39
 905 1677 905 1677 905 1709 c 256,40,41
 905 1741 905 1741 892.5 1769 c 128,-1,42
 880 1797 880 1797 859 1818 c 128,-1,43
 838 1839 838 1839 810 1851 c 128,-1,44
 782 1863 782 1863 750 1863 c 256,45,46
 718 1863 718 1863 690 1851 c 128,-1,47
 662 1839 662 1839 641 1818 c 128,-1,48
 620 1797 620 1797 607.5 1769 c 128,-1,49
 595 1741 595 1741 595 1710 c 0,50,51
 595 1678 595 1678 607.5 1649.5 c 128,-1,52
 620 1621 620 1621 641 1600 c 128,-1,53
 662 1579 662 1579 690 1567 c 128,-1,54
 718 1555 718 1555 750 1555 c 256,35,36
1005 546 m 1,55,-1
 775 1229 l 1,56,-1
 727 1380 l 1,57,-1
 437 546 l 1,58,-1
 1005 546 l 1,55,-1
EndSplineSet
EndChar

StartChar: AE
Encoding: 198 198 136
Width: 2000
GlyphClass: 2
Flags: W
LayerCount: 2
Fore
SplineSet
4 67 m 1,0,-1
 163 92 l 1,1,-1
 747 1531 l 1,2,-1
 1718 1531 l 1,3,-1
 1747 1246 l 1,4,-1
 1669 1244 l 1,5,-1
 1623 1438 l 1,6,-1
 902 1450 l 1,7,-1
 1085 860 l 1,8,-1
 1572 867 l 1,9,-1
 1598 1031 l 1,10,-1
 1671 1031 l 1,11,-1
 1671 611 l 1,12,-1
 1598 611 l 1,13,-1
 1572 772 l 1,14,-1
 1111 777 l 1,15,-1
 1326 84 l 1,16,-1
 1739 98 l 1,17,-1
 1829 324 l 1,18,-1
 1896 291 l 1,19,-1
 1851 0 l 1,20,-1
 983 0 l 1,21,-1
 983 67 l 1,22,-1
 1161 91 l 1,23,-1
 1048 480 l 1,24,-1
 442 480 l 1,25,-1
 291 90 l 1,26,-1
 474 67 l 1,27,-1
 474 0 l 1,28,-1
 4 0 l 1,29,-1
 4 67 l 1,0,-1
1022 570 m 1,30,-1
 839 1204 l 1,31,-1
 794 1386 l 1,32,-1
 477 570 l 1,33,-1
 1022 570 l 1,30,-1
EndSplineSet
EndChar

StartChar: Ccedilla
Encoding: 199 199 137
Width: 1441
GlyphClass: 2
Flags: W
LayerCount: 2
Fore
SplineSet
727 -22 m 1,0,1
 591 -5 591 -5 477.5 56 c 128,-1,2
 364 117 364 117 282.5 214.5 c 128,-1,3
 201 312 201 312 155.5 441.5 c 128,-1,4
 110 571 110 571 110 724 c 0,5,6
 110 853 110 853 140 964 c 128,-1,7
 170 1075 170 1075 224 1166.5 c 128,-1,8
 278 1258 278 1258 352.5 1329 c 128,-1,9
 427 1400 427 1400 517 1448.5 c 128,-1,10
 607 1497 607 1497 708 1522.5 c 128,-1,11
 809 1548 809 1548 916 1548 c 0,12,13
 988 1548 988 1548 1050 1539.5 c 128,-1,14
 1112 1531 1112 1531 1164 1519.5 c 128,-1,15
 1216 1508 1216 1508 1258 1496 c 128,-1,16
 1300 1484 1300 1484 1333 1477 c 1,17,-1
 1318 1203 l 1,18,-1
 1237 1203 l 1,19,-1
 1199 1382 l 1,20,21
 1137 1420 1137 1420 1057 1440 c 128,-1,22
 977 1460 977 1460 872 1460 c 0,23,24
 755 1460 755 1460 645.5 1416 c 128,-1,25
 536 1372 536 1372 451 1285.5 c 128,-1,26
 366 1199 366 1199 315 1071 c 128,-1,27
 264 943 264 943 264 776 c 0,28,29
 264 679 264 679 281.5 587.5 c 128,-1,30
 299 496 299 496 333.5 415.5 c 128,-1,31
 368 335 368 335 419 268 c 128,-1,32
 470 201 470 201 537.5 153.5 c 128,-1,33
 605 106 605 106 688.5 80 c 128,-1,34
 772 54 772 54 871 55 c 0,35,36
 932 55 932 55 986 64 c 128,-1,37
 1040 73 1040 73 1084.5 88 c 128,-1,38
 1129 103 1129 103 1163 122.5 c 128,-1,39
 1197 142 1197 142 1218 165 c 1,40,-1
 1263 334 l 1,41,-1
 1334 333 l 1,42,-1
 1334 63 l 1,43,44
 1298 61 1298 61 1254.5 47 c 128,-1,45
 1211 33 1211 33 1151 16 c 128,-1,46
 1091 -1 1091 -1 1011.5 -14.5 c 128,-1,47
 932 -28 932 -28 825 -28 c 2,48,-1
 823 -28 l 1,49,50
 821 -51 821 -51 820.5 -77.5 c 128,-1,51
 820 -104 820 -104 822 -127 c 1,52,53
 892 -125 892 -125 943.5 -141 c 128,-1,54
 995 -157 995 -157 1029 -184.5 c 128,-1,55
 1063 -212 1063 -212 1079.5 -248.5 c 128,-1,56
 1096 -285 1096 -285 1096 -324 c 0,57,58
 1096 -374 1096 -374 1077.5 -411 c 128,-1,59
 1059 -448 1059 -448 1026 -472.5 c 128,-1,60
 993 -497 993 -497 947 -510.5 c 128,-1,61
 901 -524 901 -524 846 -527 c 0,62,63
 802 -529 802 -529 771 -527.5 c 128,-1,64
 740 -526 740 -526 717.5 -522.5 c 128,-1,65
 695 -519 695 -519 678 -514.5 c 128,-1,66
 661 -510 661 -510 645 -506 c 1,67,-1
 646 -424 l 1,68,69
 658 -427 658 -427 674 -430 c 128,-1,70
 690 -433 690 -433 707 -436 c 128,-1,71
 724 -439 724 -439 741.5 -440.5 c 128,-1,72
 759 -442 759 -442 774 -442 c 0,73,74
 802 -442 802 -442 833 -438 c 128,-1,75
 864 -434 864 -434 890.5 -421.5 c 128,-1,76
 917 -409 917 -409 934 -384.5 c 128,-1,77
 951 -360 951 -360 951 -318 c 0,78,79
 951 -285 951 -285 936 -261 c 128,-1,80
 921 -237 921 -237 894.5 -221.5 c 128,-1,81
 868 -206 868 -206 832.5 -199.5 c 128,-1,82
 797 -193 797 -193 756 -194 c 0,83,84
 745 -194 745 -194 728.5 -195.5 c 128,-1,85
 712 -197 712 -197 709 -198 c 1,86,87
 710 -154 710 -154 713 -111 c 128,-1,88
 716 -68 716 -68 727 -22 c 1,0,1
EndSplineSet
EndChar

StartChar: Egrave
Encoding: 200 200 138
Width: 1351
GlyphClass: 2
Flags: W
LayerCount: 2
Fore
SplineSet
729 1686 m 1,0,1
 679 1712 679 1712 625.5 1743 c 128,-1,2
 572 1774 572 1774 522 1809 c 128,-1,3
 472 1844 472 1844 429 1882.5 c 128,-1,4
 386 1921 386 1921 357 1963 c 1,5,-1
 463 2071 l 1,6,-1
 771 1729 l 1,7,-1
 729 1686 l 1,0,1
102 67 m 1,8,-1
 282 91 l 1,9,-1
 282 1439 l 1,10,-1
 105 1455 l 1,11,-1
 105 1531 l 1,12,-1
 1123 1531 l 1,13,-1
 1152 1245 l 1,14,-1
 1068 1245 l 1,15,-1
 1022 1438 l 1,16,-1
 428 1450 l 1,17,-1
 428 867 l 1,18,-1
 852 874 l 1,19,-1
 879 1034 l 1,20,-1
 958 1034 l 1,21,-1
 958 610 l 1,22,-1
 879 610 l 1,23,-1
 852 778 l 1,24,-1
 428 784 l 1,25,-1
 428 83 l 1,26,-1
 1061 100 l 1,27,-1
 1151 333 l 1,28,-1
 1225 315 l 1,29,-1
 1180 0 l 1,30,-1
 102 0 l 1,31,-1
 102 67 l 1,8,-1
EndSplineSet
EndChar

StartChar: Eacute
Encoding: 201 201 139
Width: 1351
GlyphClass: 2
Flags: W
LayerCount: 2
Fore
SplineSet
643 1729 m 1,0,-1
 958 2066 l 1,1,-1
 1056 1963 l 1,2,3
 1033 1924 1033 1924 991 1885.5 c 128,-1,4
 949 1847 949 1847 897 1811 c 128,-1,5
 845 1775 845 1775 789.5 1743 c 128,-1,6
 734 1711 734 1711 685 1686 c 1,7,-1
 643 1729 l 1,0,-1
102 67 m 1,8,-1
 282 91 l 1,9,-1
 282 1439 l 1,10,-1
 105 1455 l 1,11,-1
 105 1531 l 1,12,-1
 1123 1531 l 1,13,-1
 1152 1245 l 1,14,-1
 1068 1245 l 1,15,-1
 1022 1438 l 1,16,-1
 428 1450 l 1,17,-1
 428 867 l 1,18,-1
 852 874 l 1,19,-1
 879 1034 l 1,20,-1
 958 1034 l 1,21,-1
 958 610 l 1,22,-1
 879 610 l 1,23,-1
 852 778 l 1,24,-1
 428 784 l 1,25,-1
 428 83 l 1,26,-1
 1061 100 l 1,27,-1
 1151 333 l 1,28,-1
 1225 315 l 1,29,-1
 1180 0 l 1,30,-1
 102 0 l 1,31,-1
 102 67 l 1,8,-1
EndSplineSet
EndChar

StartChar: Ecircumflex
Encoding: 202 202 140
Width: 1351
GlyphClass: 2
Flags: W
LayerCount: 2
Fore
SplineSet
308 1693 m 1,0,-1
 597 2014 l 1,1,-1
 743 2014 l 1,2,-1
 1029 1693 l 1,3,-1
 959 1656 l 1,4,-1
 668 1911 l 1,5,-1
 370 1656 l 1,6,-1
 308 1693 l 1,0,-1
102 67 m 1,7,-1
 282 91 l 1,8,-1
 282 1439 l 1,9,-1
 105 1455 l 1,10,-1
 105 1531 l 1,11,-1
 1123 1531 l 1,12,-1
 1152 1245 l 1,13,-1
 1068 1245 l 1,14,-1
 1022 1438 l 1,15,-1
 428 1450 l 1,16,-1
 428 867 l 1,17,-1
 852 874 l 1,18,-1
 879 1034 l 1,19,-1
 958 1034 l 1,20,-1
 958 610 l 1,21,-1
 879 610 l 1,22,-1
 852 778 l 1,23,-1
 428 784 l 1,24,-1
 428 83 l 1,25,-1
 1061 100 l 1,26,-1
 1151 333 l 1,27,-1
 1225 315 l 1,28,-1
 1180 0 l 1,29,-1
 102 0 l 1,30,-1
 102 67 l 1,7,-1
EndSplineSet
EndChar

StartChar: Edieresis
Encoding: 203 203 141
Width: 1351
GlyphClass: 2
Flags: W
LayerCount: 2
Fore
SplineSet
887 1724 m 0,0,1
 868 1724 868 1724 850.5 1730.5 c 128,-1,2
 833 1737 833 1737 819.5 1749.5 c 128,-1,3
 806 1762 806 1762 797.5 1779.5 c 128,-1,4
 789 1797 789 1797 789 1819 c 0,5,6
 789 1843 789 1843 799.5 1863.5 c 128,-1,7
 810 1884 810 1884 826.5 1899 c 128,-1,8
 843 1914 843 1914 864 1922.5 c 128,-1,9
 885 1931 885 1931 906 1931 c 0,10,11
 957 1931 957 1931 981 1902.5 c 128,-1,12
 1005 1874 1005 1874 1005 1836 c 0,13,14
 1005 1811 1005 1811 995 1790.5 c 128,-1,15
 985 1770 985 1770 968.5 1755 c 128,-1,16
 952 1740 952 1740 930.5 1732 c 128,-1,17
 909 1724 909 1724 887 1724 c 0,0,1
430 1725 m 0,18,19
 411 1725 411 1725 393 1731.5 c 128,-1,20
 375 1738 375 1738 361.5 1750 c 128,-1,21
 348 1762 348 1762 340 1779.5 c 128,-1,22
 332 1797 332 1797 332 1819 c 0,23,24
 332 1843 332 1843 342.5 1863.5 c 128,-1,25
 353 1884 353 1884 369.5 1899 c 128,-1,26
 386 1914 386 1914 407 1922.5 c 128,-1,27
 428 1931 428 1931 449 1931 c 0,28,29
 500 1931 500 1931 524 1902.5 c 128,-1,30
 548 1874 548 1874 548 1836 c 0,31,32
 548 1811 548 1811 538 1790.5 c 128,-1,33
 528 1770 528 1770 511.5 1755.5 c 128,-1,34
 495 1741 495 1741 473.5 1733 c 128,-1,35
 452 1725 452 1725 430 1725 c 0,18,19
102 67 m 1,36,-1
 282 91 l 1,37,-1
 282 1439 l 1,38,-1
 105 1455 l 1,39,-1
 105 1531 l 1,40,-1
 1123 1531 l 1,41,-1
 1152 1245 l 1,42,-1
 1068 1245 l 1,43,-1
 1022 1438 l 1,44,-1
 428 1450 l 1,45,-1
 428 867 l 1,46,-1
 852 874 l 1,47,-1
 879 1034 l 1,48,-1
 958 1034 l 1,49,-1
 958 610 l 1,50,-1
 879 610 l 1,51,-1
 852 778 l 1,52,-1
 428 784 l 1,53,-1
 428 83 l 1,54,-1
 1061 100 l 1,55,-1
 1151 333 l 1,56,-1
 1225 315 l 1,57,-1
 1180 0 l 1,58,-1
 102 0 l 1,59,-1
 102 67 l 1,36,-1
EndSplineSet
EndChar

StartChar: Igrave
Encoding: 204 204 142
Width: 764
GlyphClass: 2
Flags: W
LayerCount: 2
Fore
SplineSet
436 1628 m 1,0,1
 386 1654 386 1654 332.5 1685 c 128,-1,2
 279 1716 279 1716 229 1751 c 128,-1,3
 179 1786 179 1786 136 1824.5 c 128,-1,4
 93 1863 93 1863 64 1905 c 1,5,-1
 170 2013 l 1,6,-1
 478 1671 l 1,7,-1
 436 1628 l 1,0,1
138 67 m 1,8,-1
 307 91 l 1,9,-1
 307 1440 l 1,10,-1
 141 1455 l 1,11,-1
 141 1531 l 1,12,-1
 622 1531 l 1,13,-1
 622 1455 l 1,14,-1
 454 1440 l 1,15,-1
 454 91 l 1,16,-1
 631 67 l 1,17,-1
 631 0 l 1,18,-1
 138 0 l 1,19,-1
 138 67 l 1,8,-1
EndSplineSet
EndChar

StartChar: Iacute
Encoding: 205 205 143
Width: 764
GlyphClass: 2
Flags: W
LayerCount: 2
Fore
SplineSet
350 1671 m 1,0,-1
 665 2008 l 1,1,-1
 763 1905 l 1,2,3
 740 1866 740 1866 698 1827.5 c 128,-1,4
 656 1789 656 1789 604 1753 c 128,-1,5
 552 1717 552 1717 496.5 1685 c 128,-1,6
 441 1653 441 1653 392 1628 c 1,7,-1
 350 1671 l 1,0,-1
138 67 m 1,8,-1
 307 91 l 1,9,-1
 307 1440 l 1,10,-1
 141 1455 l 1,11,-1
 141 1531 l 1,12,-1
 622 1531 l 1,13,-1
 622 1455 l 1,14,-1
 454 1440 l 1,15,-1
 454 91 l 1,16,-1
 631 67 l 1,17,-1
 631 0 l 1,18,-1
 138 0 l 1,19,-1
 138 67 l 1,8,-1
EndSplineSet
EndChar

StartChar: Icircumflex
Encoding: 206 206 144
Width: 764
GlyphClass: 2
Flags: W
LayerCount: 2
Fore
SplineSet
15 1635 m 1,0,-1
 304 1956 l 1,1,-1
 450 1956 l 1,2,-1
 736 1635 l 1,3,-1
 666 1598 l 1,4,-1
 375 1853 l 1,5,-1
 77 1598 l 1,6,-1
 15 1635 l 1,0,-1
138 67 m 1,7,-1
 307 91 l 1,8,-1
 307 1440 l 1,9,-1
 141 1455 l 1,10,-1
 141 1531 l 1,11,-1
 622 1531 l 1,12,-1
 622 1455 l 1,13,-1
 454 1440 l 1,14,-1
 454 91 l 1,15,-1
 631 67 l 1,16,-1
 631 0 l 1,17,-1
 138 0 l 1,18,-1
 138 67 l 1,7,-1
EndSplineSet
EndChar

StartChar: Idieresis
Encoding: 207 207 145
Width: 764
GlyphClass: 2
Flags: W
LayerCount: 2
Fore
SplineSet
594 1723 m 0,0,1
 575 1723 575 1723 557.5 1729.5 c 128,-1,2
 540 1736 540 1736 526.5 1748.5 c 128,-1,3
 513 1761 513 1761 504.5 1778.5 c 128,-1,4
 496 1796 496 1796 496 1818 c 0,5,6
 496 1842 496 1842 506.5 1862.5 c 128,-1,7
 517 1883 517 1883 533.5 1898 c 128,-1,8
 550 1913 550 1913 571 1921.5 c 128,-1,9
 592 1930 592 1930 613 1930 c 0,10,11
 664 1930 664 1930 688 1901.5 c 128,-1,12
 712 1873 712 1873 712 1835 c 0,13,14
 712 1810 712 1810 702 1789.5 c 128,-1,15
 692 1769 692 1769 675.5 1754 c 128,-1,16
 659 1739 659 1739 637.5 1731 c 128,-1,17
 616 1723 616 1723 594 1723 c 0,0,1
137 1724 m 0,18,19
 118 1724 118 1724 100 1730.5 c 128,-1,20
 82 1737 82 1737 68.5 1749 c 128,-1,21
 55 1761 55 1761 47 1778.5 c 128,-1,22
 39 1796 39 1796 39 1818 c 0,23,24
 39 1842 39 1842 49.5 1862.5 c 128,-1,25
 60 1883 60 1883 76.5 1898 c 128,-1,26
 93 1913 93 1913 114 1921.5 c 128,-1,27
 135 1930 135 1930 156 1930 c 0,28,29
 207 1930 207 1930 231 1901.5 c 128,-1,30
 255 1873 255 1873 255 1835 c 0,31,32
 255 1810 255 1810 245 1789.5 c 128,-1,33
 235 1769 235 1769 218.5 1754.5 c 128,-1,34
 202 1740 202 1740 180.5 1732 c 128,-1,35
 159 1724 159 1724 137 1724 c 0,18,19
138 67 m 1,36,-1
 307 91 l 1,37,-1
 307 1440 l 1,38,-1
 141 1455 l 1,39,-1
 141 1531 l 1,40,-1
 622 1531 l 1,41,-1
 622 1455 l 1,42,-1
 454 1440 l 1,43,-1
 454 91 l 1,44,-1
 631 67 l 1,45,-1
 631 0 l 1,46,-1
 138 0 l 1,47,-1
 138 67 l 1,36,-1
EndSplineSet
EndChar

StartChar: Eth
Encoding: 208 208 146
Width: 1591
GlyphClass: 2
Flags: W
LayerCount: 2
Fore
SplineSet
102 67 m 1,0,-1
 282 91 l 1,1,-1
 282 747 l 1,2,-1
 95 747 l 1,3,-1
 95 858 l 1,4,-1
 282 858 l 1,5,-1
 282 1439 l 1,6,-1
 105 1455 l 1,7,-1
 105 1531 l 1,8,-1
 354 1531 l 2,9,10
 410 1531 410 1531 460.5 1532.5 c 128,-1,11
 511 1534 511 1534 558.5 1536.5 c 128,-1,12
 606 1539 606 1539 651 1541 c 128,-1,13
 696 1543 696 1543 741 1543 c 0,14,15
 921 1543 921 1543 1060 1496 c 128,-1,16
 1199 1449 1199 1449 1294 1357 c 128,-1,17
 1389 1265 1389 1265 1438 1129.5 c 128,-1,18
 1487 994 1487 994 1487 817 c 0,19,20
 1487 620 1487 620 1427.5 466 c 128,-1,21
 1368 312 1368 312 1260.5 205.5 c 128,-1,22
 1153 99 1153 99 1004.5 43.5 c 128,-1,23
 856 -12 856 -12 679 -10 c 0,24,25
 643 -9 643 -9 603 -7 c 128,-1,26
 563 -5 563 -5 521 -3.5 c 128,-1,27
 479 -2 479 -2 437 -0.5 c 128,-1,28
 395 1 395 1 356 1 c 2,29,-1
 102 0 l 1,30,-1
 102 67 l 1,0,-1
429 99 m 1,31,32
 497 88 497 88 560.5 80.5 c 128,-1,33
 624 73 624 73 699 75 c 0,34,35
 827 77 827 77 942 120.5 c 128,-1,36
 1057 164 1057 164 1144 251 c 128,-1,37
 1231 338 1231 338 1282 469 c 128,-1,38
 1333 600 1333 600 1333 776 c 0,39,40
 1333 942 1333 942 1291.5 1070.5 c 128,-1,41
 1250 1199 1250 1199 1169.5 1286 c 128,-1,42
 1089 1373 1089 1373 970 1417 c 128,-1,43
 851 1461 851 1461 696 1457 c 0,44,45
 621 1455 621 1455 556.5 1451 c 128,-1,46
 492 1447 492 1447 429 1439 c 1,47,-1
 429 858 l 1,48,-1
 705 858 l 1,49,-1
 705 747 l 1,50,-1
 429 747 l 1,51,-1
 429 99 l 1,31,32
EndSplineSet
EndChar

StartChar: Ntilde
Encoding: 209 209 147
Width: 1680
GlyphClass: 2
Flags: W
LayerCount: 2
Fore
SplineSet
477 1731 m 1,0,1
 496 1764 496 1764 524.5 1793.5 c 128,-1,2
 553 1823 553 1823 587.5 1845.5 c 128,-1,3
 622 1868 622 1868 661.5 1881 c 128,-1,4
 701 1894 701 1894 743 1894 c 0,5,6
 775 1894 775 1894 801 1883 c 128,-1,7
 827 1872 827 1872 849 1855 c 128,-1,8
 871 1838 871 1838 890.5 1818.5 c 128,-1,9
 910 1799 910 1799 929.5 1782 c 128,-1,10
 949 1765 949 1765 970.5 1754 c 128,-1,11
 992 1743 992 1743 1018 1743 c 0,12,13
 1050 1743 1050 1743 1078 1752.5 c 128,-1,14
 1106 1762 1106 1762 1130 1777.5 c 128,-1,15
 1154 1793 1154 1793 1174.5 1812 c 128,-1,16
 1195 1831 1195 1831 1212 1850 c 1,17,-1
 1253 1792 l 1,18,19
 1233 1759 1233 1759 1204.5 1729.5 c 128,-1,20
 1176 1700 1176 1700 1141.5 1677.5 c 128,-1,21
 1107 1655 1107 1655 1067.5 1641.5 c 128,-1,22
 1028 1628 1028 1628 987 1628 c 0,23,24
 955 1628 955 1628 929 1639.5 c 128,-1,25
 903 1651 903 1651 881.5 1667.5 c 128,-1,26
 860 1684 860 1684 840.5 1704 c 128,-1,27
 821 1724 821 1724 801 1740.5 c 128,-1,28
 781 1757 781 1757 759.5 1768.5 c 128,-1,29
 738 1780 738 1780 712 1780 c 0,30,31
 680 1780 680 1780 652 1770.5 c 128,-1,32
 624 1761 624 1761 600 1745.5 c 128,-1,33
 576 1730 576 1730 555.5 1711 c 128,-1,34
 535 1692 535 1692 518 1673 c 1,35,-1
 477 1731 l 1,0,1
110 67 m 1,36,-1
 286 90 l 1,37,-1
 286 1433 l 1,38,-1
 116 1448 l 1,39,-1
 116 1531 l 1,40,-1
 441 1531 l 1,41,-1
 1189 368 l 1,42,-1
 1309 138 l 1,43,-1
 1309 1433 l 1,44,-1
 1138 1448 l 1,45,-1
 1138 1530 l 1,46,-1
 1591 1530 l 1,47,-1
 1591 1448 l 1,48,-1
 1418 1432 l 1,49,-1
 1418 0 l 1,50,-1
 1268 0 l 1,51,-1
 545 1106 l 1,52,-1
 396 1374 l 1,53,-1
 396 91 l 1,54,-1
 601 67 l 1,55,-1
 601 0 l 1,56,-1
 110 0 l 1,57,-1
 110 67 l 1,36,-1
EndSplineSet
EndChar

StartChar: Ograve
Encoding: 210 210 148
Width: 1554
GlyphClass: 2
Flags: W
LayerCount: 2
Fore
SplineSet
860 1628 m 1,0,1
 810 1654 810 1654 756.5 1685 c 128,-1,2
 703 1716 703 1716 653 1751 c 128,-1,3
 603 1786 603 1786 560 1824.5 c 128,-1,4
 517 1863 517 1863 488 1905 c 1,5,-1
 594 2013 l 1,6,-1
 902 1671 l 1,7,-1
 860 1628 l 1,0,1
89 742 m 0,8,9
 93 931 93 931 151 1080 c 128,-1,10
 209 1229 209 1229 306 1333 c 128,-1,11
 403 1437 403 1437 530.5 1493 c 128,-1,12
 658 1549 658 1549 800 1552 c 0,13,14
 953 1555 953 1555 1077 1497 c 128,-1,15
 1201 1439 1201 1439 1287.5 1335 c 128,-1,16
 1374 1231 1374 1231 1419.5 1088.5 c 128,-1,17
 1465 946 1465 946 1462 778 c 0,18,19
 1458 589 1458 589 1402 440.5 c 128,-1,20
 1346 292 1346 292 1252 189 c 128,-1,21
 1158 86 1158 86 1034 30.5 c 128,-1,22
 910 -25 910 -25 770 -28 c 0,23,24
 615 -31 615 -31 488 25.5 c 128,-1,25
 361 82 361 82 271 185.5 c 128,-1,26
 181 289 181 289 133.5 431.5 c 128,-1,27
 86 574 86 574 89 742 c 0,8,9
251 743 m 0,28,29
 251 600 251 600 288 475 c 128,-1,30
 325 350 325 350 394.5 256 c 128,-1,31
 464 162 464 162 563 108 c 128,-1,32
 662 54 662 54 787 54 c 0,33,34
 903 54 903 54 998 105 c 128,-1,35
 1093 156 1093 156 1160 250.5 c 128,-1,36
 1227 345 1227 345 1263.5 478.5 c 128,-1,37
 1300 612 1300 612 1300 777 c 0,38,39
 1300 916 1300 916 1266.5 1041.5 c 128,-1,40
 1233 1167 1233 1167 1168 1262 c 128,-1,41
 1103 1357 1103 1357 1007 1413 c 128,-1,42
 911 1469 911 1469 787 1469 c 0,43,44
 668 1469 668 1469 569.5 1418.5 c 128,-1,45
 471 1368 471 1368 400 1273.5 c 128,-1,46
 329 1179 329 1179 290 1044.5 c 128,-1,47
 251 910 251 910 251 743 c 0,28,29
EndSplineSet
EndChar

StartChar: Oacute
Encoding: 211 211 149
Width: 1554
GlyphClass: 2
Flags: W
LayerCount: 2
Fore
SplineSet
774 1671 m 1,0,-1
 1089 2008 l 1,1,-1
 1187 1905 l 1,2,3
 1164 1866 1164 1866 1122 1827.5 c 128,-1,4
 1080 1789 1080 1789 1028 1753 c 128,-1,5
 976 1717 976 1717 920.5 1685 c 128,-1,6
 865 1653 865 1653 816 1628 c 1,7,-1
 774 1671 l 1,0,-1
89 742 m 0,8,9
 93 931 93 931 151 1080 c 128,-1,10
 209 1229 209 1229 306 1333 c 128,-1,11
 403 1437 403 1437 530.5 1493 c 128,-1,12
 658 1549 658 1549 800 1552 c 0,13,14
 953 1555 953 1555 1077 1497 c 128,-1,15
 1201 1439 1201 1439 1287.5 1335 c 128,-1,16
 1374 1231 1374 1231 1419.5 1088.5 c 128,-1,17
 1465 946 1465 946 1462 778 c 0,18,19
 1458 589 1458 589 1402 440.5 c 128,-1,20
 1346 292 1346 292 1252 189 c 128,-1,21
 1158 86 1158 86 1034 30.5 c 128,-1,22
 910 -25 910 -25 770 -28 c 0,23,24
 615 -31 615 -31 488 25.5 c 128,-1,25
 361 82 361 82 271 185.5 c 128,-1,26
 181 289 181 289 133.5 431.5 c 128,-1,27
 86 574 86 574 89 742 c 0,8,9
251 743 m 0,28,29
 251 600 251 600 288 475 c 128,-1,30
 325 350 325 350 394.5 256 c 128,-1,31
 464 162 464 162 563 108 c 128,-1,32
 662 54 662 54 787 54 c 0,33,34
 903 54 903 54 998 105 c 128,-1,35
 1093 156 1093 156 1160 250.5 c 128,-1,36
 1227 345 1227 345 1263.5 478.5 c 128,-1,37
 1300 612 1300 612 1300 777 c 0,38,39
 1300 916 1300 916 1266.5 1041.5 c 128,-1,40
 1233 1167 1233 1167 1168 1262 c 128,-1,41
 1103 1357 1103 1357 1007 1413 c 128,-1,42
 911 1469 911 1469 787 1469 c 0,43,44
 668 1469 668 1469 569.5 1418.5 c 128,-1,45
 471 1368 471 1368 400 1273.5 c 128,-1,46
 329 1179 329 1179 290 1044.5 c 128,-1,47
 251 910 251 910 251 743 c 0,28,29
EndSplineSet
EndChar

StartChar: Ocircumflex
Encoding: 212 212 150
Width: 1554
GlyphClass: 2
Flags: W
LayerCount: 2
Fore
SplineSet
439 1635 m 1,0,-1
 728 1956 l 1,1,-1
 874 1956 l 1,2,-1
 1160 1635 l 1,3,-1
 1090 1598 l 1,4,-1
 799 1853 l 1,5,-1
 501 1598 l 1,6,-1
 439 1635 l 1,0,-1
89 742 m 0,7,8
 93 931 93 931 151 1080 c 128,-1,9
 209 1229 209 1229 306 1333 c 128,-1,10
 403 1437 403 1437 530.5 1493 c 128,-1,11
 658 1549 658 1549 800 1552 c 0,12,13
 953 1555 953 1555 1077 1497 c 128,-1,14
 1201 1439 1201 1439 1287.5 1335 c 128,-1,15
 1374 1231 1374 1231 1419.5 1088.5 c 128,-1,16
 1465 946 1465 946 1462 778 c 0,17,18
 1458 589 1458 589 1402 440.5 c 128,-1,19
 1346 292 1346 292 1252 189 c 128,-1,20
 1158 86 1158 86 1034 30.5 c 128,-1,21
 910 -25 910 -25 770 -28 c 0,22,23
 615 -31 615 -31 488 25.5 c 128,-1,24
 361 82 361 82 271 185.5 c 128,-1,25
 181 289 181 289 133.5 431.5 c 128,-1,26
 86 574 86 574 89 742 c 0,7,8
251 743 m 0,27,28
 251 600 251 600 288 475 c 128,-1,29
 325 350 325 350 394.5 256 c 128,-1,30
 464 162 464 162 563 108 c 128,-1,31
 662 54 662 54 787 54 c 0,32,33
 903 54 903 54 998 105 c 128,-1,34
 1093 156 1093 156 1160 250.5 c 128,-1,35
 1227 345 1227 345 1263.5 478.5 c 128,-1,36
 1300 612 1300 612 1300 777 c 0,37,38
 1300 916 1300 916 1266.5 1041.5 c 128,-1,39
 1233 1167 1233 1167 1168 1262 c 128,-1,40
 1103 1357 1103 1357 1007 1413 c 128,-1,41
 911 1469 911 1469 787 1469 c 0,42,43
 668 1469 668 1469 569.5 1418.5 c 128,-1,44
 471 1368 471 1368 400 1273.5 c 128,-1,45
 329 1179 329 1179 290 1044.5 c 128,-1,46
 251 910 251 910 251 743 c 0,27,28
EndSplineSet
EndChar

StartChar: Otilde
Encoding: 213 213 151
Width: 1554
GlyphClass: 2
Flags: W
LayerCount: 2
Fore
SplineSet
417 1731 m 1,0,1
 436 1764 436 1764 464.5 1793.5 c 128,-1,2
 493 1823 493 1823 527.5 1845.5 c 128,-1,3
 562 1868 562 1868 601.5 1881 c 128,-1,4
 641 1894 641 1894 683 1894 c 0,5,6
 715 1894 715 1894 741 1883 c 128,-1,7
 767 1872 767 1872 789 1855 c 128,-1,8
 811 1838 811 1838 830.5 1818.5 c 128,-1,9
 850 1799 850 1799 869.5 1782 c 128,-1,10
 889 1765 889 1765 910.5 1754 c 128,-1,11
 932 1743 932 1743 958 1743 c 0,12,13
 990 1743 990 1743 1018 1752.5 c 128,-1,14
 1046 1762 1046 1762 1070 1777.5 c 128,-1,15
 1094 1793 1094 1793 1114.5 1812 c 128,-1,16
 1135 1831 1135 1831 1152 1850 c 1,17,-1
 1193 1792 l 1,18,19
 1173 1759 1173 1759 1144.5 1729.5 c 128,-1,20
 1116 1700 1116 1700 1081.5 1677.5 c 128,-1,21
 1047 1655 1047 1655 1007.5 1641.5 c 128,-1,22
 968 1628 968 1628 927 1628 c 0,23,24
 895 1628 895 1628 869 1639.5 c 128,-1,25
 843 1651 843 1651 821.5 1667.5 c 128,-1,26
 800 1684 800 1684 780.5 1704 c 128,-1,27
 761 1724 761 1724 741 1740.5 c 128,-1,28
 721 1757 721 1757 699.5 1768.5 c 128,-1,29
 678 1780 678 1780 652 1780 c 0,30,31
 620 1780 620 1780 592 1770.5 c 128,-1,32
 564 1761 564 1761 540 1745.5 c 128,-1,33
 516 1730 516 1730 495.5 1711 c 128,-1,34
 475 1692 475 1692 458 1673 c 1,35,-1
 417 1731 l 1,0,1
89 742 m 0,36,37
 93 931 93 931 151 1080 c 128,-1,38
 209 1229 209 1229 306 1333 c 128,-1,39
 403 1437 403 1437 530.5 1493 c 128,-1,40
 658 1549 658 1549 800 1552 c 0,41,42
 953 1555 953 1555 1077 1497 c 128,-1,43
 1201 1439 1201 1439 1287.5 1335 c 128,-1,44
 1374 1231 1374 1231 1419.5 1088.5 c 128,-1,45
 1465 946 1465 946 1462 778 c 0,46,47
 1458 589 1458 589 1402 440.5 c 128,-1,48
 1346 292 1346 292 1252 189 c 128,-1,49
 1158 86 1158 86 1034 30.5 c 128,-1,50
 910 -25 910 -25 770 -28 c 0,51,52
 615 -31 615 -31 488 25.5 c 128,-1,53
 361 82 361 82 271 185.5 c 128,-1,54
 181 289 181 289 133.5 431.5 c 128,-1,55
 86 574 86 574 89 742 c 0,36,37
251 743 m 0,56,57
 251 600 251 600 288 475 c 128,-1,58
 325 350 325 350 394.5 256 c 128,-1,59
 464 162 464 162 563 108 c 128,-1,60
 662 54 662 54 787 54 c 0,61,62
 903 54 903 54 998 105 c 128,-1,63
 1093 156 1093 156 1160 250.5 c 128,-1,64
 1227 345 1227 345 1263.5 478.5 c 128,-1,65
 1300 612 1300 612 1300 777 c 0,66,67
 1300 916 1300 916 1266.5 1041.5 c 128,-1,68
 1233 1167 1233 1167 1168 1262 c 128,-1,69
 1103 1357 1103 1357 1007 1413 c 128,-1,70
 911 1469 911 1469 787 1469 c 0,71,72
 668 1469 668 1469 569.5 1418.5 c 128,-1,73
 471 1368 471 1368 400 1273.5 c 128,-1,74
 329 1179 329 1179 290 1044.5 c 128,-1,75
 251 910 251 910 251 743 c 0,56,57
EndSplineSet
EndChar

StartChar: Odieresis
Encoding: 214 214 152
Width: 1554
GlyphClass: 2
Flags: W
LayerCount: 2
Fore
SplineSet
1018 1723 m 0,0,1
 999 1723 999 1723 981.5 1729.5 c 128,-1,2
 964 1736 964 1736 950.5 1748.5 c 128,-1,3
 937 1761 937 1761 928.5 1778.5 c 128,-1,4
 920 1796 920 1796 920 1818 c 0,5,6
 920 1842 920 1842 930.5 1862.5 c 128,-1,7
 941 1883 941 1883 957.5 1898 c 128,-1,8
 974 1913 974 1913 995 1921.5 c 128,-1,9
 1016 1930 1016 1930 1037 1930 c 0,10,11
 1088 1930 1088 1930 1112 1901.5 c 128,-1,12
 1136 1873 1136 1873 1136 1835 c 0,13,14
 1136 1810 1136 1810 1126 1789.5 c 128,-1,15
 1116 1769 1116 1769 1099.5 1754 c 128,-1,16
 1083 1739 1083 1739 1061.5 1731 c 128,-1,17
 1040 1723 1040 1723 1018 1723 c 0,0,1
561 1724 m 0,18,19
 542 1724 542 1724 524 1730.5 c 128,-1,20
 506 1737 506 1737 492.5 1749 c 128,-1,21
 479 1761 479 1761 471 1778.5 c 128,-1,22
 463 1796 463 1796 463 1818 c 0,23,24
 463 1842 463 1842 473.5 1862.5 c 128,-1,25
 484 1883 484 1883 500.5 1898 c 128,-1,26
 517 1913 517 1913 538 1921.5 c 128,-1,27
 559 1930 559 1930 580 1930 c 0,28,29
 631 1930 631 1930 655 1901.5 c 128,-1,30
 679 1873 679 1873 679 1835 c 0,31,32
 679 1810 679 1810 669 1789.5 c 128,-1,33
 659 1769 659 1769 642.5 1754.5 c 128,-1,34
 626 1740 626 1740 604.5 1732 c 128,-1,35
 583 1724 583 1724 561 1724 c 0,18,19
89 742 m 0,36,37
 93 931 93 931 151 1080 c 128,-1,38
 209 1229 209 1229 306 1333 c 128,-1,39
 403 1437 403 1437 530.5 1493 c 128,-1,40
 658 1549 658 1549 800 1552 c 0,41,42
 953 1555 953 1555 1077 1497 c 128,-1,43
 1201 1439 1201 1439 1287.5 1335 c 128,-1,44
 1374 1231 1374 1231 1419.5 1088.5 c 128,-1,45
 1465 946 1465 946 1462 778 c 0,46,47
 1458 589 1458 589 1402 440.5 c 128,-1,48
 1346 292 1346 292 1252 189 c 128,-1,49
 1158 86 1158 86 1034 30.5 c 128,-1,50
 910 -25 910 -25 770 -28 c 0,51,52
 615 -31 615 -31 488 25.5 c 128,-1,53
 361 82 361 82 271 185.5 c 128,-1,54
 181 289 181 289 133.5 431.5 c 128,-1,55
 86 574 86 574 89 742 c 0,36,37
251 743 m 0,56,57
 251 600 251 600 288 475 c 128,-1,58
 325 350 325 350 394.5 256 c 128,-1,59
 464 162 464 162 563 108 c 128,-1,60
 662 54 662 54 787 54 c 0,61,62
 903 54 903 54 998 105 c 128,-1,63
 1093 156 1093 156 1160 250.5 c 128,-1,64
 1227 345 1227 345 1263.5 478.5 c 128,-1,65
 1300 612 1300 612 1300 777 c 0,66,67
 1300 916 1300 916 1266.5 1041.5 c 128,-1,68
 1233 1167 1233 1167 1168 1262 c 128,-1,69
 1103 1357 1103 1357 1007 1413 c 128,-1,70
 911 1469 911 1469 787 1469 c 0,71,72
 668 1469 668 1469 569.5 1418.5 c 128,-1,73
 471 1368 471 1368 400 1273.5 c 128,-1,74
 329 1179 329 1179 290 1044.5 c 128,-1,75
 251 910 251 910 251 743 c 0,56,57
EndSplineSet
EndChar

StartChar: multiply
Encoding: 215 215 153
Width: 1256
GlyphClass: 2
Flags: W
LayerCount: 2
Fore
SplineSet
191 463 m 1,0,-1
 549 799 l 1,1,-1
 194 1150 l 1,2,-1
 282 1239 l 1,3,-1
 626 875 l 1,4,-1
 966 1235 l 1,5,-1
 1059 1146 l 1,6,-1
 701 802 l 1,7,-1
 1060 443 l 1,8,-1
 972 356 l 1,9,-1
 624 723 l 1,10,-1
 283 359 l 1,11,-1
 191 463 l 1,0,-1
EndSplineSet
EndChar

StartChar: Oslash
Encoding: 216 216 154
Width: 1554
GlyphClass: 2
Flags: W
LayerCount: 2
Fore
SplineSet
491 24 m 1,0,1
 396 65 396 65 320 134.5 c 128,-1,2
 244 204 244 204 192 297 c 128,-1,3
 140 390 140 390 113 502.5 c 128,-1,4
 86 615 86 615 89 742 c 0,5,6
 93 931 93 931 151 1080 c 128,-1,7
 209 1229 209 1229 306 1333 c 128,-1,8
 403 1437 403 1437 530.5 1493 c 128,-1,9
 658 1549 658 1549 800 1552 c 0,10,11
 854 1553 854 1553 904.5 1545.5 c 128,-1,12
 955 1538 955 1538 1003 1524 c 1,13,-1
 1057 1683 l 1,14,-1
 1123 1658 l 1,15,-1
 1069 1500 l 1,16,17
 1163 1459 1163 1459 1237 1388.5 c 128,-1,18
 1311 1318 1311 1318 1362 1224.5 c 128,-1,19
 1413 1131 1413 1131 1439 1018 c 128,-1,20
 1465 905 1465 905 1462 778 c 0,21,22
 1458 589 1458 589 1402 440.5 c 128,-1,23
 1346 292 1346 292 1252 189 c 128,-1,24
 1158 86 1158 86 1034 30.5 c 128,-1,25
 910 -25 910 -25 770 -28 c 0,26,27
 659 -30 659 -30 563 -1 c 1,28,29
 547 -49 547 -49 531 -96.5 c 128,-1,30
 515 -144 515 -144 498 -192 c 1,31,-1
 427 -166 l 1,32,-1
 491 24 l 1,0,1
971 1431 m 1,33,34
 929 1449 929 1449 883.5 1459 c 128,-1,35
 838 1469 838 1469 787 1469 c 0,36,37
 668 1469 668 1469 569.5 1418.5 c 128,-1,38
 471 1368 471 1368 400 1273.5 c 128,-1,39
 329 1179 329 1179 290 1044.5 c 128,-1,40
 251 910 251 910 251 743 c 0,41,42
 251 642 251 642 269.5 550 c 128,-1,43
 288 458 288 458 323.5 378.5 c 128,-1,44
 359 299 359 299 410 235.5 c 128,-1,45
 461 172 461 172 527 129 c 1,46,-1
 971 1431 l 1,33,34
595 92 m 1,47,48
 683 54 683 54 787 54 c 0,49,50
 903 54 903 54 998 105 c 128,-1,51
 1093 156 1093 156 1160 250.5 c 128,-1,52
 1227 345 1227 345 1263.5 478.5 c 128,-1,53
 1300 612 1300 612 1300 777 c 0,54,55
 1300 876 1300 876 1283 969 c 128,-1,56
 1266 1062 1266 1062 1232 1142 c 128,-1,57
 1198 1222 1198 1222 1148.5 1287 c 128,-1,58
 1099 1352 1099 1352 1034 1396 c 1,59,60
 924 1070 924 1070 815.5 745 c 128,-1,61
 707 420 707 420 595 92 c 1,47,48
EndSplineSet
EndChar

StartChar: Ugrave
Encoding: 217 217 155
Width: 1670
GlyphClass: 2
Flags: W
LayerCount: 2
Fore
SplineSet
932 1628 m 1,0,1
 882 1654 882 1654 828.5 1685 c 128,-1,2
 775 1716 775 1716 725 1751 c 128,-1,3
 675 1786 675 1786 632 1824.5 c 128,-1,4
 589 1863 589 1863 560 1905 c 1,5,-1
 666 2013 l 1,6,-1
 974 1671 l 1,7,-1
 932 1628 l 1,0,1
257 1440 m 1,8,-1
 103 1455 l 1,9,-1
 103 1531 l 1,10,-1
 578 1531 l 1,11,-1
 578 1455 l 1,12,-1
 405 1439 l 1,13,-1
 405 638 l 2,14,15
 405 465 405 465 440 351.5 c 128,-1,16
 475 238 475 238 538 171.5 c 128,-1,17
 601 105 601 105 689 78.5 c 128,-1,18
 777 52 777 52 883 52 c 0,19,20
 997 52 997 52 1078.5 92.5 c 128,-1,21
 1160 133 1160 133 1212.5 211 c 128,-1,22
 1265 289 1265 289 1289.5 402 c 128,-1,23
 1314 515 1314 515 1314 659 c 2,24,-1
 1313 1438 l 1,25,-1
 1139 1455 l 1,26,-1
 1139 1531 l 1,27,-1
 1583 1531 l 1,28,-1
 1583 1455 l 1,29,-1
 1427 1439 l 1,30,-1
 1426 660 l 2,31,32
 1426 474 1426 474 1386 343.5 c 128,-1,33
 1346 213 1346 213 1272 130.5 c 128,-1,34
 1198 48 1198 48 1093 10 c 128,-1,35
 988 -28 988 -28 857 -28 c 0,36,37
 695 -28 695 -28 581 13 c 128,-1,38
 467 54 467 54 395 137.5 c 128,-1,39
 323 221 323 221 290 347 c 128,-1,40
 257 473 257 473 257 643 c 2,41,-1
 257 1440 l 1,8,-1
EndSplineSet
EndChar

StartChar: Uacute
Encoding: 218 218 156
Width: 1670
GlyphClass: 2
Flags: W
LayerCount: 2
Fore
SplineSet
846 1671 m 1,0,-1
 1161 2008 l 1,1,-1
 1259 1905 l 1,2,3
 1236 1866 1236 1866 1194 1827.5 c 128,-1,4
 1152 1789 1152 1789 1100 1753 c 128,-1,5
 1048 1717 1048 1717 992.5 1685 c 128,-1,6
 937 1653 937 1653 888 1628 c 1,7,-1
 846 1671 l 1,0,-1
257 1440 m 1,8,-1
 103 1455 l 1,9,-1
 103 1531 l 1,10,-1
 578 1531 l 1,11,-1
 578 1455 l 1,12,-1
 405 1439 l 1,13,-1
 405 638 l 2,14,15
 405 465 405 465 440 351.5 c 128,-1,16
 475 238 475 238 538 171.5 c 128,-1,17
 601 105 601 105 689 78.5 c 128,-1,18
 777 52 777 52 883 52 c 0,19,20
 997 52 997 52 1078.5 92.5 c 128,-1,21
 1160 133 1160 133 1212.5 211 c 128,-1,22
 1265 289 1265 289 1289.5 402 c 128,-1,23
 1314 515 1314 515 1314 659 c 2,24,-1
 1313 1438 l 1,25,-1
 1139 1455 l 1,26,-1
 1139 1531 l 1,27,-1
 1583 1531 l 1,28,-1
 1583 1455 l 1,29,-1
 1427 1439 l 1,30,-1
 1426 660 l 2,31,32
 1426 474 1426 474 1386 343.5 c 128,-1,33
 1346 213 1346 213 1272 130.5 c 128,-1,34
 1198 48 1198 48 1093 10 c 128,-1,35
 988 -28 988 -28 857 -28 c 0,36,37
 695 -28 695 -28 581 13 c 128,-1,38
 467 54 467 54 395 137.5 c 128,-1,39
 323 221 323 221 290 347 c 128,-1,40
 257 473 257 473 257 643 c 2,41,-1
 257 1440 l 1,8,-1
EndSplineSet
EndChar

StartChar: Ucircumflex
Encoding: 219 219 157
Width: 1670
GlyphClass: 2
Flags: W
LayerCount: 2
Fore
SplineSet
511 1635 m 1,0,-1
 800 1956 l 1,1,-1
 946 1956 l 1,2,-1
 1232 1635 l 1,3,-1
 1162 1598 l 1,4,-1
 871 1853 l 1,5,-1
 573 1598 l 1,6,-1
 511 1635 l 1,0,-1
257 1440 m 1,7,-1
 103 1455 l 1,8,-1
 103 1531 l 1,9,-1
 578 1531 l 1,10,-1
 578 1455 l 1,11,-1
 405 1439 l 1,12,-1
 405 638 l 2,13,14
 405 465 405 465 440 351.5 c 128,-1,15
 475 238 475 238 538 171.5 c 128,-1,16
 601 105 601 105 689 78.5 c 128,-1,17
 777 52 777 52 883 52 c 0,18,19
 997 52 997 52 1078.5 92.5 c 128,-1,20
 1160 133 1160 133 1212.5 211 c 128,-1,21
 1265 289 1265 289 1289.5 402 c 128,-1,22
 1314 515 1314 515 1314 659 c 2,23,-1
 1313 1438 l 1,24,-1
 1139 1455 l 1,25,-1
 1139 1531 l 1,26,-1
 1583 1531 l 1,27,-1
 1583 1455 l 1,28,-1
 1427 1439 l 1,29,-1
 1426 660 l 2,30,31
 1426 474 1426 474 1386 343.5 c 128,-1,32
 1346 213 1346 213 1272 130.5 c 128,-1,33
 1198 48 1198 48 1093 10 c 128,-1,34
 988 -28 988 -28 857 -28 c 0,35,36
 695 -28 695 -28 581 13 c 128,-1,37
 467 54 467 54 395 137.5 c 128,-1,38
 323 221 323 221 290 347 c 128,-1,39
 257 473 257 473 257 643 c 2,40,-1
 257 1440 l 1,7,-1
EndSplineSet
EndChar

StartChar: Udieresis
Encoding: 220 220 158
Width: 1670
GlyphClass: 2
Flags: W
LayerCount: 2
Fore
SplineSet
1090 1723 m 0,0,1
 1071 1723 1071 1723 1053.5 1729.5 c 128,-1,2
 1036 1736 1036 1736 1022.5 1748.5 c 128,-1,3
 1009 1761 1009 1761 1000.5 1778.5 c 128,-1,4
 992 1796 992 1796 992 1818 c 0,5,6
 992 1842 992 1842 1002.5 1862.5 c 128,-1,7
 1013 1883 1013 1883 1029.5 1898 c 128,-1,8
 1046 1913 1046 1913 1067 1921.5 c 128,-1,9
 1088 1930 1088 1930 1109 1930 c 0,10,11
 1160 1930 1160 1930 1184 1901.5 c 128,-1,12
 1208 1873 1208 1873 1208 1835 c 0,13,14
 1208 1810 1208 1810 1198 1789.5 c 128,-1,15
 1188 1769 1188 1769 1171.5 1754 c 128,-1,16
 1155 1739 1155 1739 1133.5 1731 c 128,-1,17
 1112 1723 1112 1723 1090 1723 c 0,0,1
633 1724 m 0,18,19
 614 1724 614 1724 596 1730.5 c 128,-1,20
 578 1737 578 1737 564.5 1749 c 128,-1,21
 551 1761 551 1761 543 1778.5 c 128,-1,22
 535 1796 535 1796 535 1818 c 0,23,24
 535 1842 535 1842 545.5 1862.5 c 128,-1,25
 556 1883 556 1883 572.5 1898 c 128,-1,26
 589 1913 589 1913 610 1921.5 c 128,-1,27
 631 1930 631 1930 652 1930 c 0,28,29
 703 1930 703 1930 727 1901.5 c 128,-1,30
 751 1873 751 1873 751 1835 c 0,31,32
 751 1810 751 1810 741 1789.5 c 128,-1,33
 731 1769 731 1769 714.5 1754.5 c 128,-1,34
 698 1740 698 1740 676.5 1732 c 128,-1,35
 655 1724 655 1724 633 1724 c 0,18,19
257 1440 m 1,36,-1
 103 1455 l 1,37,-1
 103 1531 l 1,38,-1
 578 1531 l 1,39,-1
 578 1455 l 1,40,-1
 405 1439 l 1,41,-1
 405 638 l 2,42,43
 405 465 405 465 440 351.5 c 128,-1,44
 475 238 475 238 538 171.5 c 128,-1,45
 601 105 601 105 689 78.5 c 128,-1,46
 777 52 777 52 883 52 c 0,47,48
 997 52 997 52 1078.5 92.5 c 128,-1,49
 1160 133 1160 133 1212.5 211 c 128,-1,50
 1265 289 1265 289 1289.5 402 c 128,-1,51
 1314 515 1314 515 1314 659 c 2,52,-1
 1313 1438 l 1,53,-1
 1139 1455 l 1,54,-1
 1139 1531 l 1,55,-1
 1583 1531 l 1,56,-1
 1583 1455 l 1,57,-1
 1427 1439 l 1,58,-1
 1426 660 l 2,59,60
 1426 474 1426 474 1386 343.5 c 128,-1,61
 1346 213 1346 213 1272 130.5 c 128,-1,62
 1198 48 1198 48 1093 10 c 128,-1,63
 988 -28 988 -28 857 -28 c 0,64,65
 695 -28 695 -28 581 13 c 128,-1,66
 467 54 467 54 395 137.5 c 128,-1,67
 323 221 323 221 290 347 c 128,-1,68
 257 473 257 473 257 643 c 2,69,-1
 257 1440 l 1,36,-1
EndSplineSet
EndChar

StartChar: Yacute
Encoding: 221 221 159
Width: 1312
GlyphClass: 2
Flags: W
LayerCount: 2
Fore
SplineSet
653 1671 m 1,0,-1
 968 2008 l 1,1,-1
 1066 1905 l 1,2,3
 1043 1866 1043 1866 1001 1827.5 c 128,-1,4
 959 1789 959 1789 907 1753 c 128,-1,5
 855 1717 855 1717 799.5 1685 c 128,-1,6
 744 1653 744 1653 695 1628 c 1,7,-1
 653 1671 l 1,0,-1
386 67 m 1,8,-1
 589 91 l 1,9,-1
 589 642 l 1,10,-1
 118 1439 l 1,11,-1
 -11 1455 l 1,12,-1
 -11 1531 l 1,13,-1
 455 1531 l 1,14,-1
 455 1454 l 1,15,-1
 288 1440 l 1,16,-1
 632 828 l 1,17,-1
 679 702 l 1,18,-1
 731 821 l 1,19,-1
 1057 1440 l 1,20,-1
 896 1455 l 1,21,-1
 896 1531 l 1,22,-1
 1323 1531 l 1,23,-1
 1323 1455 l 1,24,-1
 1185 1432 l 1,25,-1
 736 635 l 1,26,-1
 736 91 l 1,27,-1
 947 67 l 1,28,-1
 947 0 l 1,29,-1
 386 0 l 1,30,-1
 386 67 l 1,8,-1
EndSplineSet
EndChar

StartChar: Thorn
Encoding: 222 222 160
Width: 1304
GlyphClass: 2
Flags: W
LayerCount: 2
Fore
SplineSet
97 67 m 1,0,-1
 298 92 l 1,1,-1
 298 1441 l 1,2,-1
 133 1455 l 1,3,-1
 133 1531 l 1,4,-1
 614 1531 l 1,5,-1
 614 1455 l 1,6,-1
 446 1440 l 1,7,-1
 446 1227 l 1,8,9
 474 1230 474 1230 507 1234.5 c 128,-1,10
 540 1239 540 1239 575 1243 c 128,-1,11
 610 1247 610 1247 646 1250 c 128,-1,12
 682 1253 682 1253 717 1253 c 0,13,14
 832 1253 832 1253 929.5 1228.5 c 128,-1,15
 1027 1204 1027 1204 1097.5 1151.5 c 128,-1,16
 1168 1099 1168 1099 1207.5 1015.5 c 128,-1,17
 1247 932 1247 932 1247 815 c 0,18,19
 1247 693 1247 693 1198 600.5 c 128,-1,20
 1149 508 1149 508 1068 446.5 c 128,-1,21
 987 385 987 385 882.5 354.5 c 128,-1,22
 778 324 778 324 668 325 c 0,23,24
 584 325 584 325 531 328 c 128,-1,25
 478 331 478 331 446 332 c 1,26,-1
 446 92 l 1,27,-1
 722 67 l 1,28,-1
 722 0 l 1,29,-1
 97 0 l 1,30,-1
 97 67 l 1,0,-1
446 418 m 1,31,32
 502 409 502 409 559.5 406.5 c 128,-1,33
 617 404 617 404 665 404 c 0,34,35
 754 405 754 405 832.5 427 c 128,-1,36
 911 449 911 449 970 497.5 c 128,-1,37
 1029 546 1029 546 1063.5 623.5 c 128,-1,38
 1098 701 1098 701 1098 813 c 0,39,40
 1098 901 1098 901 1070 968.5 c 128,-1,41
 1042 1036 1042 1036 986.5 1081.5 c 128,-1,42
 931 1127 931 1127 848 1149 c 128,-1,43
 765 1171 765 1171 656 1167 c 0,44,45
 632 1166 632 1166 604.5 1163.5 c 128,-1,46
 577 1161 577 1161 549 1156.5 c 128,-1,47
 521 1152 521 1152 494.5 1147 c 128,-1,48
 468 1142 468 1142 446 1136 c 1,49,-1
 446 418 l 1,31,32
EndSplineSet
EndChar

